/* XPM */
static char *a4aad0662c5c4c62b8ee7d6563b11021_1[] = {
/* columns rows colors chars-per-pixel */
"64 64 112 2 ",
"   c #06050D",
".  c #09060E",
"X  c #0E090F",
"o  c #090713",
"O  c #0D0911",
"+  c #0E0B1A",
"@  c #140E16",
"#  c #120D1D",
"$  c #171017",
"%  c #16101C",
"&  c #1C141C",
"*  c #130E20",
"=  c #161226",
"-  c #1A1424",
";  c #1F1926",
":  c #181328",
">  c #211724",
",  c #231B25",
"<  c #241E2A",
"1  c #2A1F2B",
"2  c #2C2125",
"3  c #26212F",
"4  c #2C212D",
"5  c #32242D",
"6  c #2C2430",
"7  c #23273F",
"8  c #312533",
"9  c #332836",
"0  c #3F2C30",
"q  c #352C3B",
"w  c #382E3E",
"e  c #3A313C",
"r  c #4A3435",
"t  c #44333A",
"y  c #4D3638",
"u  c #503738",
"i  c #523A3C",
"p  c #583D3D",
"a  c #262B44",
"s  c #343243",
"d  c #3D3445",
"f  c #3E3748",
"g  c #393F4A",
"h  c #413647",
"j  c #443847",
"k  c #493945",
"l  c #403748",
"z  c #443A4B",
"x  c #493E4E",
"c  c #523B40",
"v  c #503F4C",
"b  c #3A4466",
"n  c #4F404E",
"m  c #5B4142",
"M  c #53414D",
"N  c #4C4252",
"B  c #524655",
"V  c #594551",
"C  c #554957",
"Z  c #5F4A54",
"A  c #524758",
"S  c #554A5A",
"D  c #5A4D5D",
"F  c #5E505F",
"G  c #624545",
"H  c #63484D",
"J  c #6D4D4D",
"K  c #644C54",
"L  c #684E56",
"P  c #634E5A",
"I  c #684F58",
"U  c #6E5054",
"Y  c #64525E",
"T  c #6C525A",
"R  c #74565C",
"E  c #78575A",
"W  c #7B595B",
"Q  c #5B4F60",
"!  c #5E5162",
"~  c #625565",
"^  c #695664",
"/  c #6C5966",
"(  c #705761",
")  c #745C67",
"_  c #7B5C63",
"`  c #765E68",
"'  c #7A5F68",
"]  c #7F6066",
"[  c #7D6168",
"{  c #855F5F",
"}  c #805D60",
"|  c #846063",
" . c #866164",
".. c #896263",
"X. c #896365",
"o. c #896467",
"O. c #8C6565",
"+. c #80626A",
"@. c #846369",
"#. c #87656A",
"$. c #88666B",
"%. c #8D6668",
"&. c #8E686B",
"*. c #90696B",
"=. c #946A6B",
"-. c #936B6C",
";. c #946B6C",
":. c #976D6D",
">. c #986D6D",
",. c #5A6988",
"<. c #8B9BB4",
"1. c #C0CBDC",
/* pixels */
": : : : : : : : : : : : : : : : : : : : : : : : : : : : : : : : : : : : : : : : : : : : : : : : : : : : : : : : : : : : : : : : ",
": : : 1.: : : : : : : : : b : : : : : : : : : : : : : : : : : : : : : : : : : : : : : : a : : : : : : : : : : : : : : : : : : : ",
": : : : : : : : : : : : : : : : : : : : : : : : : : : : : : : : : : : : : : : : : : : : : : : : : : : : : : : : : : : : : : : : ",
": : : : : : : : : : : : : : : : : : : : : : : : : : : : : : : : : : : : : : : : : : : : : : : : : : : : : : : : : : : : : : : : ",
": : : : : : : : : : : : : : : : : : : : : : : : : : : : : : : : : : : : : : : : : : : : : : : : : : : : : : : : : : : : : : : : ",
": : : : : : : : : : : : : : : : : : ,.: : : : : : : : : : : : : : : : : : : b : : : 1.: : : : : : : : : : : : : : : : : : : : : ",
": : : : : : : : : : : : : : : : : : : : : : : : : : : : : : : : : : : : : : : : : : : : : : : : : : : : : : : : : : : : : : : : ",
": : : : : : : : : : : : : : : : : : : : : : : : : : : : : : : : : : : : : : : : : : : : : : : : : : : : : : : : : : : : : : : : ",
": : : : : : : : : : : : : : : : : : : : : : : : : : : : : : : : : : : : : : : : : : : : : : : : : : : : : : : : : : : : : : : : ",
": : : : : : : : : : : : : : : : : : : : : : : : : : : : : : : : : : : : : : : : : : : : : : : : : : : : : : : : : : : : : : : : ",
": : : : : : : : : : : : : : : : : : : : : : : : : : : : : : : : : : : : : : : : : : : : : : : : : : : : : : : : : : : : : : : : ",
": : : : : : : : : : : : : : : : : : : : : : : : : : : : : : : : : : : : : : : : : : : : : <.: : : : : : : : : : : : : : : : : : ",
": : : : : : : : : : : : : : : : : : : = = = = = = = = = = = : : : ,.: : : : : : : : : : : : : : : : : : : : : : : : : : : : : : ",
": : : : : : : : : : : : : : : : : : : - & & $ @ g o o o @ & : = = = : : a : : : : : : : : : : : : : : : : : : : : : : : a : : : ",
": <.: : : : : : : : : : : : : : : + o r W W K A x q q q H J $ o o o + : : : : : : : : : : : : : : : : : : : : : : : : : : : : : ",
": : : : : : : : : : : : : : = + + < q L :.:.$.+.) C A z R O.J J J J m # = : : : : : : : : : : : : : : b : : : : : : : : : : : : ",
": : : b : : : : : : : : : = # $ > q A ) $.;.:.:.&.) ~ P } :.:.:.o.| E i > = : : : : : : : : : : : : : : : : : : : : : : : : : : ",
": : : : : : : : : : : : = # & 9 h z C ~ / $.*.*.*.$./ #.:.:.:.&.P z L ..u > = : : : : : : : : : : : : : : : : : : : : : : : : : ",
": : : : : : : : : : : = + & 8 z D ! ~ ~ ~ ^ / / / / ~ #.:.:.*.) ~ N K *.o.i # : : : : : : : : : : : : : : : : : : : : : : : : : ",
": : : : : : : : : : = + - 1 9 z ! ~ ~ D N N D ~ ~ ~ ~ / ) +.-.$./ ! D T *.| m + : : : : : : : : : : : : : : : : : : : : : : : : ",
": : : : : : : : : = # - 1 9 w l A ! ) ) A l N A D ~ ' / ! / +.;.$.) ! C R %.{ m # + = : : : : : : : : : : : : : : : : : : : : : ",
": : : : : : : : : * . 1 4 q z N N ^ $.$.~ N z d x Y &.+.) / ^ #.-.#.) ) I X.>.} e , = * = : : : : : : : : : : : : : : : : : : : ",
": : : : : : : : = = & 6 6 q x ! / $.;.@.~ ~ N l d M  .%.*.$./ ^ $.:.;.;.=.:.:.$.^ x 4 @ % = = = : : : : <.: : : : : : : : : : : ",
": : : : : : : : # > d d 9 q d V o.:.+.^ ~ ~ ! A d z v M W *.$./ $.:.=.=.=.:.:.;.$.^ x d q + o = : : : : : : : : : : a : : : : : ",
": : : : : : : : + r _ P z d d M %.:.[ ~ ~ ~ ~ A x C z d M R *.$.-.} K K L o.:.:.*./ Q D A q q - # : : : : : : : : : : : : : : : ",
": : : : : : : : + p &./ S x d x ' *.&.) ~ ~ C x N ! C z s K =.:.:._ N N l L  .:.-.+./ ~ ! S R U y # : : : : : : : : : : : : : : ",
": : : : : : : = = i _ ) / D x z ~ [ *.&.) ~ P K P ~ ~ A z K =.:.&.` ~ ! N f R :.:.:.+.` ) ' -.:.W r - = : : : : : : : : : : : : ",
": : : : : : = o 6 d M | ) ~ C z D ~ [ *.&.) $.*.+.~ ~ ~ S T =.;.[ ~ ~ ~ ! V W =.%.%.O.o.%.;.:.:.*.E 4 = = : : : : : : : : : : : ",
": : : : : : = o 6 d h M } R z d z D ~ ' *.*.;.#./ ~ ~ ~ ' *.:.:.*.[ ~ ~ B _ *.| V M M v U *.:.:.#.^ C , * : : : : : : : : : : : ",
": : : : : : = o 6 d d d V M d d d x D / ) ` &.*.[ ~ ~ ~ +.:.:.:.:.*.$.$. .*.} Z D S x d z U *.:.*.[ F , * : : : : : : : : : : : ",
": : : : : : = o 3 M R R M d d d d d x A A ~ ` &.*.+.+.+.&.*.+.-.:.>.>.:.:.:._ C ~ ~ D x d v %.:.:.-.] U 0 * : : : : : : : : : : ",
": : : : : : = o t R =.$.P N x d d d z N N ! ~ ` $.$.$.$.$.+.' *.o.} o.:.:.:.$./ ~ ~ ~ D x M %.:.:.*.| } r + : : : : : : : : : : ",
": : : : : : = o J =.$./ ~ ~ D h d z C ~ ! ! ! ~ ~ ~ ~ / / [ *.O.L z K O.=.*.*.$./ / ~ ~ S M %.:.:. .n j 4 # = : : : : : : : : : ",
": : : : : : = o J %./ ~ ~ ~ D l h C ~ F x x z C ~ ~ ~ +.*.-.%.K D A z Z %.' +.-.*.&.) ~ D V %.:.:.#.D z d 3 + = : : : : : : : : ",
": : : : : : = o J -.@.^ ~ ~ D h h D ' $._ D x z N N ~ ) $.:.&.Y ! ! N M o.` / +.:.:.&.$.#. .*.:.#.) ~ D x 6 o = : : : : : : : : ",
": : : : : : = o c } ;.+./ ~ D z A ! ) $.:.+.Y A N l A ! ) $.-.+./ ~ D M O.$./ / [ +.*.>.>.:.:.:.[ ! ~ ~ N 4 o = : : : : : : : : ",
": : : : : : = o 3 V | *.+.^ C N ! D D Y } #.) ~ ! N l A ! / $.;.+.) ( T  .-.$.) ) ~ [ $.&.:.:.:.#.) ) ~ z < + : : : : : : ,.: : ",
": : : : : : = o 6 d M  .%.T N ~ ^ C x x N ~ ~ ~ ~ ! x l A ! / $.;.;.;.&.) $.-.&.$./ ~ ~ ) &.:.:.:.;.&.) e + : : : : : : : : : : ",
": : : : : : = o 6 d h v M S ! / $.) ! ! ! ~ ~ ~ ~ ~ ! N l N ~ / $.:.:.;.*.*.+./ / ~ ~ ~ ~ ) &.;.:.:.;.O.i + : : : : : a : : : : ",
": : : : : : = o 6 d d d d A ~ / *.&.` ~ ~ A _ ' ~ ~ ~ ! N z N ! ) ) +.*.' ) / ~ ! N N N A ~ ) ) #.:.O.G 5 = : : : : : : : : : : ",
": : : : : : : # ; q d d d A ~ ~ [ *.&.) A z | &.) ~ ~ ~ A d z ! ~ ~ / ' ~ ~ D A N h d d z C ! ~ ) +._ 2 * : : : : : : : : : : : ",
": : : : : : : : + - d d d N ! ~ ~ [ $._ N N _ -.&.) ) ~ N z N ! ! ! ~ ! D D N z N N N N x z C ~ ~ ~ D , * : : : : : : : : : : : ",
": : : : : : : : + @ 8 d d d N ! ~ ~ ~ ~ ~ ! ~ [ *.;.*.T x N ~ ~ N A ~ ^ V M x N ~ ~ ~ ~ D x x D ! ! C s * : : : : : : : : : : : ",
": : : : : : : : + @ 4 8 d d d x ! ~ ~ ~ ! N D ~ ' -.;.%.) ! ~ ~ N A ) %.%.O.' ~ ~ ~ ~ ~ ~ ~ ~ N z d , : = : : : : : : : : : : : ",
": : : : : : : : = # & 4 9 9 9 q x N D ! N z D ~ ^ ) ) ` / ~ ! N z A / ) ' &.*.$.@.^ ~ ` $.$.$.^ N q   = : : : : : : : : : : : : ",
": : a : : : : : : = # - 1 9 q q d d x N z A ! ~ ~ ~ ~ ~ ~ ! A h d x A A ~ ' +.$.;.#.+._ R W *.' N < # = : : : : : : : : : : : : ",
": : : : : : : : : : = + - 9 d d d d d d z C D D D D ~ ~ ~ ! N N z d d z C D D Y } | | L d k E P e + : : : : : : : : : : : : : : ",
": : : : : : : : : : : = + - 9 d d d d d d h d d d z D ! ! ! ! D x d d d h l d d h h h h w 8 5 > % : : : : : : : : : : : : : : : ",
": : : : : : : : : : : : = # < d d d d d d d q q d d z z z z z z h d d d d d w 9 9 8 8 8 8 1 @ # = : : : : : : : : : : : : : : : ",
": : : : : : : : : : : : : = = > , q d 9 9 9 6 q d d d d d d d d q w d d d d d d w 8 4 4 1 $ # = : : : : : b : : : : : : : : : : ",
": : : : : : : : : : : : : : = + + < < , 4 4 4 9 e d d d d d q q 8 q d d d d d d q 6 , & & # = : : : : : : : : : : : : ,.: : : : ",
": : : : : : : : : : : : : : : : : + o # , , , 1 9 d d d d q 6 4 4 q d d d d d 6 , , # o + : : : : : : : : : : : : : : : : : : : ",
": : : : : : : : : : : : : : : : : : : * . . . - 1 4 4 4 4 4 1 1 1 4 4 4 4 q 6 . . . * : : : : : : : : : : : : : : : : : : : : : ",
": : : : : : : : : : : : : : : : : : : = = = = # O X X X X X O O O X X X O @ % = = = = : : : : : : : : : : : : : : : : : : : : : ",
": : : : : : : : : : : <.: : : : : : : : : : : = * * * * * * * * * * * * * * 7 : : : : : : : : : : : : : : : : : : : : : : : : : ",
": : : : : : : : : : : : : : : : : : : : : : : : : : : : : : : : : : : : : : : : : : : : : : : : : : : : : : : a : : : : : : : : ",
": : : : : : : : : : : : : : : : : : : : : : : : : : : : : : : : : : : : : : : : : : : : : : : : : : : : : : : : : : : : a : : : ",
": : : : : : : : : : : : : : : : : : : : : : : : : : : : : : : : : : : : : : : : : : : : : : : : : : : : : : : : : : : : : : : : ",
": : : : : : : : : : : : : : : : : : : : : : : : : : : : : : : : : : : : : : : : : : : : : : : : : : : : : : : : : : : : : : : : ",
": : : : : : : : : : : : : : : : : : : : : : : : : : : : : : : : : : : : : : : : : : : : : : : : : : : : : : : : : : : : : ,.: : ",
": : : : : : : : : : : : : : : : : : : : : : : : : : : : : : : : : : : : : : : : : : : : : : : : : : : : : : : : : : : : : : : : ",
": : : : : : : : : : : : : : : : : : : : : : : : : : : : : : : : : : : : : : : : : : : : : : : : : : : : : : : : : : : : : : : : ",
": : : : : : : : : : : : : : : : : : : : : : : : : : : : : : : : : : : : : : : : : : : : : : : : : : : : : : : : : : : : : : : : ",
": : : : : : : : : : : : : : : : <.: : : : : : : : : : : : : : : : : : : : : : : : : : : : : : : : : : : : : : : : : : : : : : : "
};
