/* XPM */
static char *fd7eccf36f9d4fd8ad5b3ab3ee675a14K03LtLfUb3JyScXl[] = {
/* columns rows colors chars-per-pixel */
"66 64 16 1 ",
"  c None",
". c #181328",
"X c #381E23",
"o c #0C2535",
"O c #262B44",
"+ c #3F3B42",
"@ c #3A4466",
"# c #89362E",
"$ c #AD5F4E",
"% c #E99766",
"& c #5A6988",
"* c #6AACF0",
"= c #9C9CA5",
"- c #8B9BB4",
"; c #C0CBDC",
": c #C4E6F1",
/* pixels */
" ..........................************.......................... ",
" ...;.........@............%%%%%%%%%%%%......O................... ",
" ......................%%%%%%%%%%%%%%%%%%%%...................... ",
" ....................%%%%%%%%%%%%%%%%%%%%%%%%.................... ",
" ..................%%%%%%%$$%%%%%%%%%%%%%%$$%%%.................. ",
" ................%%%%%$$$$%%%%%%%$%$%%%%%$%%%%%%%................ ",
" ..............%%%%%$$$$%%%%%%%%$$$$$$$$$%%%%%%%%%%.............. ",
" .............%%%%%%$$%%%%%$%%%%$$$$$$$$$%%%%%$%%%%%............. ",
" ............%%%%%%%%%%%%%$$%%%%$%%%$$$%%$%%%%$$$%%%%............ ",
" ..........%%%%$%%%%%%%%%%%$$%%$%%%%%$%%%%$%%$$%%%%%%%%.......... ",
" .........%%%%%$$%%$%%%%%%%#$$$#%%%%%%%%%%%$$$%%%%%$%%%%......... ",
" ........%%%%$$$##$$%%%%%$#$$$$$$%%%$%%%%%%#$$%%%%%$$$%%%........ ",
" ........%%%$%%%$%%$$%%%$$$$##$%%%%$$$%%%%$#$$%%%%%$$$$%%........ ",
" .......%%%$%%%%%%%%##$$$%%%%#%%%%%%$%%$$$%%$%%%%%$#$$$$%%...O... ",
" .-....%%%$%%%%%%%%%$$$$%%%%%$%%%%%%%%%%$%%%%%%%$##$$$$$$%%...... ",
" .....%%%%%%%%%%%%%%$$$$%%%%%$%%%%%$%%%%$%%%%%%%%%%%$%%$$%%%..... ",
" ...@.%%%$%%%%%%%%%$%%$%%%%%%%$%%%##%%%%#%%%%%%$%%%%$%%%$$%%..... ",
" ....%%%$$%%%%%%%%$%%$%%%%%%%%##$$###%%###%%$%#%%%%%$$%%$$$%%.... ",
" ....%%%$$#%%%%%%%%%%$%%%%%%%%$$$#$$$$#####++#%%%%%$%%%%%$$%%.... ",
" ...%%%$$$$#%%%%%%%%%#%%$%%%%$$$$$$$$$#######+%%%%%%%%%%%$$$%%...o",
" ...%%%$$$$X$%%%%%%%%##$%%$%+#$$$$$$$########+%%%%%%%$%%%$$$%%... ",
" ..%%%$$$##X##%%%%%%####%%++####$$$$X*##%%####%%%%%%$%%$$$$$$%%..o",
" ..%%%##XX###$$%%%$######++########X#*##%%%%###%%%%%$%%#$$$$$%%.. ",
" .%%%$#####$#$$$$#######$$###########*##%%%%%###%%%%$$#$$$$*$$%%.o",
" .%%%$####$$#$$$$$$#######$$$***#####*##%%%%%#*####++$$$$**$$$%%. ",
" .%%%####$$$$#$$$$$$####$$$$####:::*****#%%%##*#####$$$**$$$$$$%. ",
" .%%$###$$$$$$$$$$$$###$$$$$#####*####:::######*####$*$$$$$$$$$%. ",
"=%%%$###$$#$$$$$$$$$##$$$$$$$#++*#$$$##:::*####***##*$$$$$$#$$$%% ",
"=%%%$##%%%$#$$$$$$$##X$$$$$$$+++*$$$$#$$$$**********#$$$$$#%%%$%% ",
"=%%%##%%%%%#$$$$$$##+X$$$$$$$++*+$$$#$$$$$$$$***::::+++###%%%%#%% ",
"=%%%#%%%%%%$$$$$$##++++$$$$$#++*+++#$$$$$$$$***:::::*+++XX%%%%#$% ",
"=%%$#%%%%%%$$$#+++#+++X++##$$$++++++$$$$$$$****::::::+###X+%%+++% ",
"=%%$#%%%%%%+$#++X+####++++$$$$$++##+X$$$$$*****::::::####++###+$% ",
"=%%$##%%%%+##+$$+X#####+++$$$$$+####XX$#*******::::**###++#####$% ",
":%%#%%%%%##++$$$$######X++#$$$++####+X+**+++++*****+++*+++#####$% ",
":%%#%%%####++$$$$#####X++++#$$+++###***++++++++:**+X++**++####$$% ",
":%%%%%%%#$$$++$$X###*****************XXXX###XXX:++X+++++**+###$$% ",
":$%%%%%%$$$$$++XX##++++++*++X+XXX+++XXXX#####XX*+++XX+++++++X#$%% ",
":$%%%%%%$$$$$+++###++++X*+XXXXXXXXXXXXXX#####X:+++++####+++++#$%% ",
" .%%%%%%+$$$+######++XX*++XXXXXXXXXXXXX#####X+:++++#####++####$%. ",
" .%%%%%%+$$+#######XXXX*++XXXXXXXXXXXXX####X+*++##+#####X#####%%. ",
" .%$%%%##+++########XX***+XXXXXXX+++XXXXXXXX*++####+###+X####$%%. ",
" .$$####++++########X*:::**+XXX**XXXXXXXXXXX*+######+#######+$%%. ",
" ..$#XXX++++########X:::::*:::*XXXXXXXXXXXXX++#############++$%.. ",
" ..$##XXX++X+######X*:::::**XXXXXX++XXXXXXXX+++####+#######X+$%.. ",
" ..O$####XXXXXXXXXX*X:::::**XXX++++++XXXX++X+###+++#######+X+%... ",
" ...$##XXXXXXXXXXX**X::::**XXX+X++++++++++++#####++#######++$%... ",
" ....$#XXXX###****XXX*::**XXXXXX+++++++X++++#####X+######++$$.... ",
" ....*#XXXXX#X+XXXXXXX****XXXXXX++++++XXX++X####+X++####+$$$$.... ",
" .....*#XXXXX#+XXXXXXXXXXX*XXXXXX++++++XXXXXX##X+++++XX+$##$..... ",
" .....**XXXXXX#XXXXXXXXXXX*XXXXXX+++X++XXX+++XXXX++++++$###*&.... ",
" ......**XXXXX##$$XXXXXXXXX*XXXXXXXX++++X+++++XXXXXXXXX###*...... ",
" .......**XXXXXXX#$XXXXXXXX*XXXXXXX+++++++++++X+X++XXXX##*....... ",
" ........**XXXXXXX$#XXXXXXX+XXXXXXX++++++X+++++X+++XXX##*........ ",
" ........***#XXXXX$X##XXXXX+XXXXXX+X++++XXX++XX#+++XXX#**........ ",
" .........**##XXXX$XX##+++++XXXXXXXXX++++++####++++X#***O........ ",
" ..........***#XXX$XXXXXXXX+XXXXXXXXXX++++++##+++++#***......O... ",
" ............**###$XXXXX++X+XX+++++X++++++++XXX####**............ ",
" .............**###XXXX++++XX++++++XX+++++++XX####**............. ",
" ..............***##XXX++++X++++++XXXX+++++XX###***...........&.. ",
" ................***##XX++XX+X++XXXXXXXXXXX##****................ ",
" ..................****##XXX+XXXXXXXXXXXX##****.................. ",
" ....................*****#############******.................... ",
" ................-.....******#####*********...................... "
};
