/* XPM */
static char *_01da77fce174ecc9b2b7805961f32b9Wk2CaTnSUOStEFrW[] = {
/* columns rows colors chars-per-pixel */
"64 64 218 2 ",
"   c #110701",
".  c #150B01",
"X  c #181003",
"o  c #18100B",
"O  c #130B12",
"+  c #1F0F10",
"@  c #100C1D",
"#  c #1A1014",
"$  c #1B111B",
"%  c #2A1816",
"&  c #24141B",
"*  c #2A1B1C",
"=  c #371D14",
"-  c #2F211D",
";  c #342414",
":  c #34231C",
">  c #3C2518",
",  c #140F21",
"<  c #161125",
"1  c #191224",
"2  c #181328",
"3  c #241922",
"4  c #241A22",
"5  c #352620",
"6  c #3E2D22",
"7  c #262131",
"8  c #7E0500",
"9  c #7F0C00",
"0  c #691101",
"q  c #671D03",
"w  c #7F1701",
"e  c #492708",
"r  c #582E09",
"t  c #5A3509",
"y  c #442312",
"u  c #4A2D12",
"i  c #422A1A",
"p  c #563916",
"a  c #662106",
"s  c #6B2907",
"d  c #7E2501",
"f  c #663907",
"g  c #6B3C0D",
"h  c #7D3502",
"j  c #7C3A06",
"k  c #493522",
"l  c #4E3629",
"z  c #65430B",
"x  c #744101",
"c  c #7A4506",
"v  c #674515",
"b  c #6A4E1B",
"n  c #764612",
"m  c #734B13",
"M  c #784E12",
"N  c #6F521C",
"B  c #70521C",
"V  c #79561B",
"C  c #7E541C",
"Z  c #594222",
"A  c #644A23",
"S  c #6D5124",
"D  c #795926",
"F  c #262B44",
"G  c #3A4466",
"H  c #4F4451",
"J  c #890E00",
"K  c #9A0D00",
"L  c #8A1200",
"P  c #831B01",
"I  c #881801",
"U  c #921301",
"Y  c #9A1400",
"T  c #941A02",
"R  c #9B1B02",
"E  c #961A0A",
"W  c #A20D00",
"Q  c #A41401",
"!  c #AC1501",
"~  c #AD1900",
"^  c #A7140B",
"/  c #B21A01",
"(  c #BC1C01",
")  c #B51609",
"_  c #BD1F12",
"`  c #842402",
"'  c #872B08",
"]  c #972204",
"[  c #89330C",
"{  c #833908",
"}  c #972810",
"|  c #833B10",
" . c #AE2619",
".. c #B53529",
"X. c #C31D01",
"o. c #C01F08",
"O. c #C42104",
"+. c #CA2205",
"@. c #D42506",
"#. c #D72809",
"$. c #C42919",
"%. c #D52D19",
"&. c #E62C0A",
"*. c #E42D0D",
"=. c #EB2F0D",
"-. c #F6320C",
";. c #FD350C",
":. c #E52E11",
">. c #E83010",
",. c #F43514",
"<. c #F63716",
"1. c #FC3915",
"2. c #FE3C1A",
"3. c #CC3526",
"4. c #C93629",
"5. c #CA3B30",
"6. c #E73B27",
"7. c #FB3E23",
"8. c #854D06",
"9. c #8C5204",
"0. c #89570A",
"q. c #925905",
"w. c #995D04",
"e. c #925909",
"r. c #824413",
"t. c #894D19",
"y. c #904F1A",
"u. c #855512",
"i. c #885918",
"p. c #93571E",
"a. c #9A6208",
"s. c #9A620A",
"d. c #9D6514",
"f. c #94641A",
"g. c #9A691B",
"h. c #A86908",
"j. c #AF710E",
"k. c #A36A13",
"l. c #A56C17",
"z. c #A77016",
"x. c #AD7115",
"c. c #A3711E",
"v. c #AC741B",
"b. c #B27512",
"n. c #B77B19",
"m. c #805E20",
"M. c #BE483D",
"N. c #886528",
"B. c #956322",
"V. c #9C6C25",
"C. c #936D2B",
"Z. c #9E742B",
"A. c #A16E26",
"S. c #A46F29",
"D. c #A77727",
"F. c #AB7A2A",
"G. c #B47B22",
"H. c #A67C31",
"J. c #D0463A",
"K. c #FE4327",
"L. c #E24536",
"P. c #F34531",
"I. c #FD4A34",
"U. c #BF4E44",
"Y. c #D5574D",
"T. c #FD5B49",
"R. c #EE5E50",
"E. c #D4655B",
"W. c #E7665A",
"Q. c #FB6757",
"!. c #DD6B61",
"~. c #DD7167",
"^. c #EE756A",
"/. c #FD7668",
"(. c #BC8224",
"). c #B7842D",
"_. c #AE8231",
"`. c #B18432",
"'. c #B98733",
"]. c #BB8A34",
"[. c #C4851D",
"{. c #C18625",
"}. c #C78B26",
"|. c #C1862A",
" X c #C68C2C",
".X c #CC912D",
"XX c #D4952E",
"oX c #C38E34",
"OX c #CA8E30",
"+X c #C49136",
"@X c #CD9535",
"#X c #C9963A",
"$X c #D29632",
"%X c #D59A34",
"&X c #DA9E35",
"*X c #D49C3A",
"=X c #D99E3A",
"-X c #DDA036",
";X c #DBA13B",
":X c #E5A93F",
">X c #DDA541",
",X c #E3A941",
"<X c #E5AB41",
"1X c #E5847A",
"2X c #FC877A",
"3X c #5A6988",
"4X c #6B7081",
"5X c #8594AC",
"6X c #8B9BB4",
"7X c #EA8D83",
"8X c #F49287",
"9X c #FA968B",
"0X c #EF9D92",
"qX c #F9A59B",
"wX c #F9ADA2",
"eX c #FCB4A9",
"rX c #FEBDB2",
"tX c #C0CBDC",
/* pixels */
"2 2 2 2 2 2 2 2 2 2 2 2 2 2 2 2 2 2 2 2 2 2 2 2 2 2 2 2 2 2 2 2 2 2 2 2 2 2 2 2 2 2 2 2 2 2 2 2 2 2 2 2 2 2 2 2 2 2 2 2 2 2 2 2 ",
"2 2 2 tX2 2 2 2 2 2 2 2 2 G 2 2 2 2 2 2 2 2 2 2 2 2 2 2 2 2 2 2 2 2 2 2 2 2 2 2 2 2 2 2 F 2 2 2 2 2 2 2 2 2 2 2 2 2 2 2 2 2 2 2 ",
"2 2 2 2 2 2 2 2 2 2 2 2 2 2 2 2 2 2 2 2 2 2 2 2 2 2 2 2 2 2 2 2 2 2 2 2 2 2 2 2 2 2 2 2 2 2 2 2 2 2 2 2 2 2 2 2 2 2 2 2 2 2 2 2 ",
"2 2 2 2 2 2 2 2 2 2 2 2 2 2 2 2 2 2 2 2 2 2 2 2 2 2 2 2 2 2 2 2 2 2 2 2 2 2 2 2 2 2 2 2 2 2 2 2 2 2 2 2 2 2 2 2 2 2 2 2 2 2 2 2 ",
"2 2 2 2 2 2 2 2 2 2 2 2 2 2 2 2 2 2 2 2 2 2 2 2 2 2 2 2 2 2 2 2 2 2 2 2 2 2 2 2 2 2 2 2 2 2 2 2 2 2 2 2 2 2 2 2 2 2 2 2 2 2 2 2 ",
"2 2 2 2 2 2 2 2 2 2 2 2 2 2 2 2 2 2 3X2 2 2 2 2 2 2 2 2 2 2 2 2 2 2 2 2 2 2 G 2 2 2 tX2 2 2 2 2 2 2 2 2 2 2 2 2 2 2 2 2 2 2 2 2 ",
"2 2 2 2 2 2 2 2 2 2 2 2 2 2 2 2 2 2 2 2 2 2 2 2 2 2 2 2 2 2 2 2 2 2 2 2 2 2 2 2 2 2 2 2 2 2 2 2 2 2 2 2 2 2 2 2 2 2 2 2 2 2 2 2 ",
"2 2 2 2 2 2 2 2 2 2 2 2 2 2 2 2 2 2 2 2 2 2 2 2 2 2 2 2 2 2 2 2 2 2 2 2 2 2 2 2 2 2 2 2 2 2 2 2 2 2 2 2 2 2 2 2 2 2 2 2 2 2 2 2 ",
"2 2 2 2 2 2 2 2 2 2 2 2 2 2 2 2 2 2 2 2 2 2 2 2 2 2 2 2 2 2 2 2 2 2 2 2 2 2 2 2 2 2 2 2 2 2 2 2 2 2 2 2 2 2 2 2 2 2 2 2 2 2 2 2 ",
"2 2 2 2 2 2 2 2 2 2 2 2 2 2 2 2 2 2 2 2 2 2 2 2 2 2 2 2 2 2 2 2 2 2 2 2 2 2 2 2 2 2 2 2 2 2 2 2 2 2 2 2 2 2 2 2 2 2 2 2 2 2 2 2 ",
"2 2 2 2 2 2 2 2 2 2 2 2 2 2 2 2 2 2 2 2 2 2 2 2 2 2 2 2 2 2 2 2 2 2 2 2 2 2 2 2 2 2 2 2 2 2 2 2 2 2 2 2 2 2 2 2 2 2 2 2 2 2 2 2 ",
"2 2 2 2 2 2 2 2 2 2 2 2 2 2 2 2 2 2 2 2 2 2 2 2 2 2 2 2 2 2 2 2 2 2 2 2 2 2 2 2 2 2 2 2 2 6X2 2 2 2 2 2 2 2 2 2 2 2 2 2 2 2 2 2 ",
"2 2 2 2 2 2 2 2 2 2 2 2 2 2 2 2 2 2 2 2 2 2 2 2 2 2 2 2 2 2 2 2 2 3X2 2 2 2 2 2 2 2 2 2 2 2 2 2 2 2 2 2 2 2 2 2 2 2 2 2 2 2 2 2 ",
"2 2 2 2 2 2 2 2 2 2 2 2 2 2 2 2 2 2 2 2 2 2 2 2 6X2 2 2 2 2 2 2 2 2 2 2 F 2 2 2 2 2 2 2 2 2 2 2 2 2 2 2 2 2 2 2 2 2 2 2 F 2 2 2 ",
"2 6X2 2 2 2 2 2 2 2 2 2 2 2 2 2 2 2 1 # o X X X X X X X o $ 1 1 $ o X X X X X X X X # $ 2 2 2 2 2 2 2 2 2 2 2 2 2 2 2 2 2 2 2 2 ",
"2 2 2 2 2 2 2 2 2 2 2 2 2 2 2 2 < 4 6 Z b N B B B B B N b Z 6 5 l b N B B B B B N b v k 4 < < 2 2 2 2 G 2 2 2 2 2 2 2 2 2 2 2 2 ",
"2 2 2 G 2 2 2 2 2 2 2 2 2 2 2 < < 5 A C.H.`.`.`.`.`.`._.H.N.A Z D Z._.`.`.`.`.`.`._.Z.D k , < 2 2 2 2 2 2 2 2 2 2 2 2 2 2 2 2 2 ",
"2 2 2 2 2 2 2 2 2 2 2 2 2 2 2 1 * p N.].*X>X>X>X>X>X>X>X*X`.N.D H.#X>X>X>X>X>X>X>X;X+XZ.A : 4 1 2 2 2 2 2 2 2 2 2 2 2 2 2 2 2 2 ",
"2 2 2 2 2 2 2 2 2 2 2 2 2 < 1 6 A N._.*X:X<X,X>X>X>X>X>X*X].H.H.'.*X>X>X>X>X>X,X<X<X;X'.C.S k 4 < < 2 2 2 2 2 2 2 2 2 2 2 2 2 2 ",
"2 2 2 2 2 2 2 2 2 2 2 2 < < * A C.'.@X&X-X%X+X].'.].].].].].].].].].].].].'.].oX%X&X&X%X].Z.D > , < 2 2 2 2 2 2 2 2 2 2 2 2 2 2 ",
"2 2 2 2 2 2 2 2 2 2 2 2 4 5 p N.'.*X;X%X}.G.g.i.C C C i.B.`.#X*X].V.i.C C C i.f.D.{.XX;X;X+XC.A > 4 1 < 2 2 2 2 2 2 2 2 2 2 2 2 ",
"2 2 2 2 2 2 2 2 2 2 2 1 6 A N._.@X;X&X}.v.e.c s a a a s n A.].oXF.t.s a a q s j 9.l.{.%X;X=X'.C.D k 4 < < 2 2 2 2 2 2 2 2 2 2 2 ",
"2 2 2 2 2 2 2 2 2 2 2 # Z C.].*X&X%X}.v.e.{ d w 8 8 8 9 ' y.V.V.p.| w 8 8 8 9 d h 9.k.{.XX&X*X+XH.S - , 5X2 2 2 2 2 2 2 2 2 2 2 ",
"2 2 2 2 2 2 2 2 2 2 2 o b H.*X:X-X}.v.e.j d T Y Y Y Y Y T [ | j [ ] Y K K Y Y T ` h 8.k.{.%X:X>X].D : @ < 2 2 2 2 2 F 2 2 2 2 2 ",
"2 2 2 2 2 2 2 2 2 2 2 X N `.>X<X%XG.e.{ d L Q ~ / / / / ~ Y L J U Q ! ) ) ) ! Q U P h 9.z..X:X<X+XN.; @ < 2 2 2 2 2 2 2 2 2 2 2 ",
"2 2 2 2 2 2 2 2 2 2 2 X N `.>X,X+Xg.c d T Q / ( X.X.X.X.( ~ Y E  . .$.$.$.$._ ( ! T ` h i.).;X,X+XN.> @ < 2 2 2 2 2 2 2 2 2 2 2 ",
"2 2 2 2 2 2 2 2 2 2 2 . b F.*X*X).i.s w Y ~ ( +.@.@.@.@.@.X.) ..M.Y.E.E.Y.Y.5.$./ Y P q m D.@X=X'.m.; @ < 2 2 2 2 2 2 2 2 2 2 2 ",
"2 2 2 2 2 2 2 2 2 2 2 . v V. X XD.m q 9 Y / X.@.#.*.>.>.*.@.$.J.E.1X7X7X1X~.Y.3.) Q L 0 g g.)..XF.D ; @ < 2 2 2 2 2 2 2 2 2 2 2 ",
"2 2 2 2 2 2 2 2 2 2 2 . t f.(.(.g.n q 9 Y / X.@.*.,.,.,.,.&.%.Y.1X0XwXwXqX7XE.4.) W L 0 f i.G.(.c.m = @ < 2 2 2 2 2 2 2 2 2 2 2 ",
"2 2 2 2 2 2 2 2 2 2 2 . z g.{.{.c.n q 9 Y / X.@.>.,.1.2.1.=.6.W.7XwXrXrXeX0X~.5.) W L 0 g f.(.}.D.m ; @ < 2 2 2 2 2 2 2 2 2 2 2 ",
"2 2 2 2 2 2 2 2 2 2 2 . v D.@X@XF.M q 9 Y / X.@.>.1.2.2.1.-.7.Q.8XwXrXrXeX0X~.5.) W L 0 g V.oX@X_.V ; @ < 2 2 2 2 2 2 2 2 2 2 2 ",
"2 2 2 2 2 2 2 2 2 2 2 . b F.*X*X_.V a 9 Y / X.@.>.,.1.2.1.;.K.Q.2XqXeXeXwX8X!.5.) W J 0 n Z.@X*X'.m.; @ < 2 2 2 2 2 2 2 2 2 2 2 ",
"2 2 2 2 2 2 2 2 2 2 2 . v D.@X@XF.m q 8 Y / X.@.>.,.1.1.;.;.7.T./.8X9X9X9X^.Y.3.) Q J 0 g V.oX@X).V ; @ < 2 2 2 2 2 2 2 2 2 2 2 ",
"2 2 2 2 2 2 2 2 2 2 2 . z g.(.(.c.m s P R ~ X.@.>.,.2.K.K.7.7.I.T.Q./././.R.L.$.) Q I s g f.(.{.c.m = @ < 2 2 2 2 2 2 2 2 2 2 2 ",
"2 2 2 2 2 2 2 2 2 2 2   t e.b.n.v.f.t.| ] Q ( +.*.,.I.T.T.T.I.K.K.I.I.I.P.6.%.o.! R [ t.i.c.n.n.d.z % @ < 2 2 2 2 2 2 2 2 2 2 2 ",
"2 2 2 2 2 2 2 2 2 2 2   t 0.b.[.}.'.F.p.[ U ! ( @.6.R./.2X/.T.K.1.;.;.-.&.#.O./ K ' t.S.). X}.n.a.z % @ < 2 2 2 2 2 2 2 2 2 2 2 ",
"2 2 2 2 2 2 2 2 2 2 2   t 0.b.}.%X=XoXA.r.w T ! _ 5.W.1X9X2XQ.I.;.;.-.&.@.X./ R P j B.'.=X&X.Xn.a.f % @ < 2 2 2 2 2 2 2 2 3X2 2 ",
"2 2 2 2 2 2 2 2 2 2 2 O u M d.(.@X=X@XF.i.j ` U ^ ..E.1X8X2XQ.K.1.,.>.#.O.! Y P h 8.A.oX%X%X{.z.u.p % , < 2 2 2 2 2 2 2 2 2 2 2 ",
"2 2 2 2 2 2 2 2 2 2 2 @ : p M f.G.|.(.n.k.9.j d T  .U.E.~.W.T.7.,.&.#.O./ Y P h 8.a.v.(.|.G.g.u.v i 4 < < 2 2 2 2 2 2 F 2 2 2 2 ",
"2 2 2 2 2 2 2 2 2 2 2 < 4 : u z u.d.x.b.b.k.i.r.[ } ....J.L.6.,.*.@.O./ ] ' | u.d.x.b.x.k.i.m p > 4 2 < 2 2 2 2 2 2 2 2 2 2 2 2 ",
"2 2 2 2 2 2 2 2 2 2 2 2 2 1 & > t c q.h.b.G.F.A.p.[ E ^ _ %.:.*.#.O.! Y ' y.V.F.G.n.j.w.8.f k * 1 2 2 2 2 2 2 2 2 2 2 2 2 2 2 2 ",
"2 2 2 2 2 2 2 2 2 2 2 2 < < < & = r x q.x.|.@XoXF.t.' U ! X.+.@.O./ R ` r.A.].@X Xn.a.c f y & , < < 2 2 2 2 2 2 2 2 2 2 2 2 2 2 ",
"2 2 2 2 2 2 2 2 2 2 2 2 2 2 < < 7 = r c d.|.=X;XoXV.t.[ ] ~ ( ( / R [ r.B.'.*X;XOXv.8.f y & 1 < 2 2 2 3X2 2 2 2 2 2 2 2 2 2 2 2 ",
"2 2 2 2 2 2 2 2 2 2 2 2 2 2 2 < , & H t u.G.$X&X*XoXF.p.[ U Q ! Y ' t.S.'.%X&X%X(.f.g y & , < < 2 2 2 2 2 2 2 2 2 2 2 2 2 2 2 2 ",
"2 2 2 2 2 2 2 2 2 2 2 2 2 2 2 < < 1 & > v f.(.XX&X;XoXA.r.` U T I j B.'.*X;X%X}.c.M u 4X, < 2 2 2 2 2 2 2 2 2 2 2 2 2 2 2 2 2 2 ",
"2 2 F 2 2 2 2 2 2 2 2 2 2 2 2 2 2 < < $ u M k.(.$X=X@XF.i.{ ` ` { 8.A.oX=X%X}.z.u.p * 1 < 2 2 2 2 2 2 2 2 2 2 2 2 2 2 2 2 2 2 2 ",
"2 2 2 2 2 2 2 2 2 2 2 2 2 2 2 2 2 2 < < : p M f.G.|.|.G.k.9.j h 8.a.v.(.|.G.g.u.g > 1 < < 2 2 2 2 2 2 2 2 2 2 2 2 2 2 2 2 2 2 2 ",
"2 2 2 2 2 2 2 2 2 2 2 2 2 2 2 2 2 2 < < 4 : u v u.d.x.b.j.a.8.c q.j.b.x.k.i.m p > 4 2 < 2 2 2 2 2 2 2 2 2 2 2 2 2 2 2 2 2 2 2 2 ",
"2 2 2 2 2 2 2 2 2 2 2 2 2 2 2 2 2 2 2 2 < < $ > t c q.h.j.a.9.8.w.h.h.w.8.f y & < < 2 2 2 2 2 2 2 2 2 2 2 2 2 2 2 2 2 2 2 2 2 2 ",
"2 2 2 2 2 2 2 2 2 2 2 2 2 2 2 2 2 2 2 2 < < < & = r c q.h.w.9.9.w.h.w.8.f y % $ < < 2 2 2 2 2 2 2 2 2 2 2 G 2 2 2 2 2 2 2 2 2 2 ",
"2 2 2 2 2 2 2 2 2 2 2 2 2 2 2 2 2 2 2 2 2 2 < 1 & = t c 9.9.9.9.9.9.c f y & 1 < < 2 2 2 2 2 2 2 2 2 2 2 2 2 2 2 2 2 2 3X2 2 2 2 ",
"2 2 2 2 2 2 2 2 2 2 2 2 2 2 2 2 2 2 2 2 2 2 2 < , & y t f x x x x f f u & , < 2 2 2 2 2 2 2 2 2 2 2 2 2 2 2 2 2 2 2 2 2 2 2 2 2 ",
"2 2 2 2 2 2 2 2 2 2 2 2 2 2 2 2 2 2 2 2 2 2 2 < < 1 * > e e e e e e y * 1 < < 2 2 2 2 2 2 2 2 2 2 2 2 2 2 2 2 2 2 2 2 2 2 2 2 2 ",
"2 2 2 2 2 2 2 2 2 2 2 2 2 2 2 2 2 2 2 2 2 2 2 2 2 2 1 $ # + + + + # $ 1 2 2 2 2 2 2 2 2 2 2 2 2 2 2 2 2 2 2 2 2 2 2 2 2 2 2 2 2 ",
"2 2 2 2 2 2 2 2 2 2 2 6X2 2 2 2 2 2 2 2 2 2 2 2 2 2 < , @ @ @ @ @ @ , < < 2 F 2 2 2 2 2 2 2 2 2 2 2 2 2 2 2 2 2 2 2 2 2 2 2 2 2 ",
"2 2 2 2 2 2 2 2 2 2 2 2 2 2 2 2 2 2 2 2 2 2 2 2 2 2 < < < < < < < < < < 2 2 2 2 2 2 2 2 2 2 2 2 2 2 2 2 2 2 2 F 2 2 2 2 2 2 2 2 ",
"2 2 2 2 2 2 2 2 2 2 2 2 2 2 2 2 2 2 2 2 2 2 2 2 2 2 2 2 2 2 2 2 2 2 2 2 2 2 2 2 2 2 2 2 2 2 2 2 2 2 2 2 2 2 2 2 2 2 2 2 F 2 2 2 ",
"2 2 2 2 2 2 2 2 2 2 2 2 2 2 2 2 2 2 2 2 2 2 2 2 2 2 2 2 2 2 2 2 2 2 2 2 2 2 2 2 2 2 2 2 2 2 2 2 2 2 2 2 2 2 2 2 2 2 2 2 2 2 2 2 ",
"2 2 2 2 2 2 2 2 2 2 2 2 2 2 2 2 2 2 2 2 2 2 2 2 2 2 2 2 2 2 2 2 2 2 2 2 2 2 2 2 2 2 2 2 2 2 2 2 2 2 2 2 2 2 2 2 2 2 2 2 2 2 2 2 ",
"2 2 2 2 2 2 2 2 2 2 2 2 2 2 2 2 2 2 2 2 2 2 2 2 2 2 2 2 2 2 2 2 2 2 2 2 2 2 2 2 2 2 2 2 2 2 2 2 2 2 2 2 2 2 2 2 2 2 2 2 2 3X2 2 ",
"2 2 2 2 2 2 2 2 2 2 2 2 2 2 2 2 2 2 2 2 2 2 2 2 2 2 2 2 2 2 2 2 2 2 2 2 2 2 2 2 2 2 2 2 2 2 2 2 2 2 2 2 2 2 2 2 2 2 2 2 2 2 2 2 ",
"2 2 2 2 2 2 2 2 2 2 2 2 2 2 2 2 2 2 2 2 2 2 2 2 2 2 2 2 2 2 2 2 2 2 2 2 2 2 2 2 2 2 2 2 2 2 2 2 2 2 2 2 2 2 2 2 2 2 2 2 2 2 2 2 ",
"2 2 2 2 2 2 2 2 2 2 2 2 2 2 2 2 2 2 2 2 2 2 2 2 2 2 2 2 2 2 2 2 2 2 2 2 2 2 2 2 2 2 2 2 2 2 2 2 2 2 2 2 2 2 2 2 2 2 2 2 2 2 2 2 ",
"2 2 2 2 2 2 2 2 2 2 2 2 2 2 2 2 6X2 2 2 2 2 2 2 2 2 2 2 2 2 2 2 2 2 2 2 2 2 2 2 2 2 2 2 2 2 2 2 2 2 2 2 2 2 2 2 2 2 2 2 2 2 2 2 "
};
