/* XPM */
static char *b1616178fb54479d95c12a1eb2753084[] = {
/* columns rows colors chars-per-pixel */
"64 64 200 2 ",
"   c #000001",
".  c #05040C",
"X  c #130A0E",
"o  c #190F0F",
"O  c #1F150F",
"+  c #090714",
"@  c #0A0714",
"#  c #0E0B1A",
"$  c #140C13",
"%  c #110C1C",
"&  c #1C0F1B",
"*  c #1D1310",
"=  c #1C131C",
"-  c #391E0D",
";  c #240D19",
":  c #2C1810",
">  c #23141B",
",  c #2C1619",
"<  c #2D1B1B",
"1  c #341913",
"2  c #3D1F11",
"3  c #331F19",
"4  c #3E210E",
"5  c #3B2817",
"6  c #3A241B",
"7  c #130F21",
"8  c #161125",
"9  c #1A1325",
"0  c #181328",
"q  c #231823",
"w  c #2C1D25",
"e  c #241A29",
"r  c #291D29",
"t  c #301C21",
"y  c #2F2223",
"u  c #2C202A",
"i  c #362624",
"p  c #382626",
"a  c #3D2A23",
"s  c #33262D",
"d  c #36292D",
"f  c #3C2D2D",
"g  c #352C33",
"h  c #3C2F33",
"j  c #3B3036",
"k  c #3D353B",
"l  c #401E11",
"z  c #482601",
"x  c #492C07",
"c  c #532C07",
"v  c #582D0A",
"b  c #4F3407",
"n  c #593507",
"m  c #5F3B0B",
"M  c #432615",
"N  c #4E331A",
"B  c #4D341A",
"V  c #533414",
"C  c #5A3D12",
"Z  c #583719",
"A  c #543B1C",
"S  c #623507",
"D  c #673D02",
"F  c #713E00",
"G  c #623D14",
"H  c #442E23",
"J  c #452F28",
"K  c #453222",
"L  c #4B362A",
"P  c #5E3F26",
"I  c #513828",
"U  c #593D2B",
"Y  c #463837",
"T  c #42393E",
"R  c #4D3D3A",
"E  c #503E36",
"W  c #5F4517",
"Q  c #5C4219",
"!  c #67420B",
"~  c #754101",
"^  c #7F4901",
"/  c #754B0C",
"(  c #624316",
")  c #6A4714",
"_  c #6D4C1B",
"`  c #784D14",
"'  c #724C1B",
"]  c #7D5316",
"[  c #74531B",
"{  c #7D551B",
"}  c #584026",
"|  c #5D4226",
" . c #55433A",
".. c #594639",
"X. c #624524",
"o. c #684C27",
"O. c #6D5123",
"+. c #785626",
"@. c #7D5C23",
"#. c #644A30",
"$. c #6E5334",
"%. c #7A5B34",
"&. c #262B44",
"*. c #3E3740",
"=. c #453C42",
"-. c #493F43",
";. c #3A4466",
":. c #474046",
">. c #4A4146",
",. c #4C4449",
"<. c #525F7B",
"1. c #5D6778",
"2. c #834C03",
"3. c #814F0F",
"4. c #8E5101",
"5. c #83550D",
"6. c #895708",
"7. c #8B5A0E",
"8. c #915500",
"9. c #935803",
"0. c #9B5E03",
"q. c #885A18",
"w. c #905D13",
"e. c #996408",
"r. c #8D611A",
"t. c #956414",
"y. c #9A6313",
"u. c #996817",
"i. c #9C6B1A",
"p. c #A76908",
"a. c #B3740C",
"s. c #A26B13",
"d. c #A66B15",
"f. c #AB7214",
"g. c #A5711C",
"h. c #AB751C",
"j. c #B47511",
"k. c #B77C17",
"l. c #BB7C13",
"z. c #B17619",
"x. c #B67B1D",
"c. c #825D25",
"v. c #896528",
"b. c #976B21",
"n. c #9C6D21",
"m. c #926C2B",
"M. c #9F7122",
"N. c #9A722D",
"B. c #946D31",
"V. c #9A7335",
"C. c #A57422",
"Z. c #AD7A26",
"A. c #A0752A",
"S. c #A5792A",
"D. c #AC7D2B",
"F. c #B37B24",
"G. c #B87F27",
"H. c #A47A32",
"J. c #AA7F31",
"K. c #BE821F",
"L. c #BD8323",
"P. c #B5832D",
"I. c #BE8428",
"U. c #AD8132",
"Y. c #B38533",
"T. c #BB8A34",
"R. c #BE8D38",
"E. c #C3851D",
"W. c #C28623",
"Q. c #C58925",
"!. c #CA8C24",
"~. c #C68A2B",
"^. c #C5892C",
"/. c #CC912F",
"(. c #D5962A",
"). c #D8992E",
"_. c #C18E35",
"`. c #C49035",
"'. c #CC9333",
"]. c #C39239",
"[. c #CA963B",
"{. c #CE9839",
"}. c #D49935",
"|. c #DB9D33",
" X c #D49C3A",
".X c #D89E39",
"XX c #DEA137",
"oX c #DCA33E",
"OX c #E1A236",
"+X c #E1A53C",
"@X c #E5A83E",
"#X c #DCA541",
"$X c #E4AB43",
"%X c #EAAE42",
"&X c #EDB144",
"*X c #F0B345",
"=X c #5A6988",
"-X c #6E7B8F",
";X c #8B9BB4",
":X c #C0CBDC",
/* pixels */
"0 0 0 0 0 0 0 0 0 0 0 0 0 0 0 0 0 0 0 0 0 0 0 0 0 0 0 0 0 0 0 0 0 0 0 0 0 0 0 0 0 0 0 0 0 0 0 0 0 0 0 0 0 0 0 0 0 0 0 0 0 0 0 0 ",
"0 0 0 :X0 0 0 0 0 0 0 0 0 ;.0 0 0 0 0 0 0 0 0 0 0 0 0 0 0 0 0 0 0 0 0 0 0 0 0 0 0 0 0 0 &.0 0 0 0 0 0 0 0 0 0 0 0 0 0 0 0 0 0 0 ",
"0 0 0 0 0 0 0 0 0 0 0 0 0 0 0 0 0 0 0 0 0 0 0 0 0 0 0 0 0 0 0 0 0 0 0 0 0 0 0 0 0 0 0 0 0 0 0 0 0 0 0 0 0 0 0 0 0 0 0 0 0 0 0 0 ",
"0 0 0 0 0 0 0 0 0 0 0 0 0 0 0 0 0 0 0 0 0 0 0 0 0 0 0 0 0 0 0 0 0 0 0 0 0 0 0 0 0 0 0 0 0 0 0 0 0 0 0 0 0 0 0 0 0 0 0 0 0 0 0 0 ",
"0 0 0 0 0 0 0 0 0 0 0 0 0 0 0 0 0 0 0 0 0 0 0 0 0 0 0 0 0 0 0 0 0 0 0 0 0 0 0 0 0 0 0 0 0 0 0 0 0 0 0 0 0 0 0 0 0 0 0 0 0 0 0 0 ",
"0 0 0 0 0 0 0 0 0 0 0 0 0 0 0 0 0 0 =X0 0 0 0 0 0 0 0 0 0 0 0 0 0 0 0 0 0 0 ;.0 0 0 :X0 0 0 0 0 0 0 0 0 0 0 0 0 0 0 0 0 0 0 0 0 ",
"0 0 0 0 0 0 0 0 0 0 0 0 0 0 0 0 0 0 0 0 0 0 0 0 0 0 0 0 0 0 0 0 0 0 0 0 0 0 0 0 0 0 0 0 0 0 0 0 0 0 0 0 0 0 0 0 0 0 0 0 0 0 0 0 ",
"0 0 0 0 0 0 0 0 0 0 0 0 0 0 0 0 0 0 0 0 0 0 0 0 0 0 0 0 0 0 0 0 0 0 0 0 0 0 0 0 0 0 0 0 0 0 0 0 0 0 0 0 0 0 0 0 0 0 0 0 0 0 0 0 ",
"0 0 0 0 0 0 0 0 0 0 0 0 0 0 0 0 0 0 0 0 0 0 0 0 0 0 0 0 0 0 0 0 0 0 0 0 0 0 0 0 0 0 0 0 0 0 0 0 0 0 0 0 0 0 0 0 0 0 0 0 0 0 0 0 ",
"0 0 0 0 0 0 0 0 0 0 0 0 0 0 0 0 0 0 0 0 0 0 0 0 0 0 0 0 0 0 0 0 0 0 0 0 0 0 0 0 0 0 0 0 0 0 0 0 0 0 0 0 0 0 0 0 0 0 0 0 0 0 0 0 ",
"0 0 0 0 0 0 0 0 0 0 0 0 0 0 0 0 0 0 0 0 0 0 0 0 0 0 0 0 0 0 0 0 0 0 0 0 0 0 0 0 0 0 0 0 0 0 0 0 0 0 0 0 0 0 0 0 0 0 0 0 0 0 0 0 ",
"0 0 0 0 0 0 0 0 0 0 0 0 0 0 0 0 0 0 0 0 0 0 0 0 0 0 0 0 0 0 0 0 0 0 0 0 0 0 0 0 0 0 0 0 0 ;X0 0 0 0 0 0 0 0 0 0 0 0 0 0 0 0 0 0 ",
"0 0 0 0 0 0 0 0 0 0 0 0 0 0 0 0 0 0 0 0 0 0 0 0 0 0 0 0 0 0 0 0 0 =X0 0 0 0 0 0 0 0 0 0 0 0 0 0 0 0 0 0 0 0 0 0 0 0 0 0 0 0 0 0 ",
"0 0 0 0 0 0 0 0 0 0 0 0 0 0 0 0 0 0 0 7 +                   # 7 0 # .                 . % 0 0 0 0 0 0 0 0 0 0 0 0 0 0 0 &.0 0 0 ",
"0 ;X0 0 0 0 0 0 0 0 0 0 0 0 0 0 0 0 9 i A Q W W W W W W W Q B i y B Q W W W W W W W W A M q 0 0 0 0 0 0 0 0 0 0 0 0 0 0 0 0 0 0 ",
"0 0 0 0 0 0 0 0 0 0 0 0 0 0 0 0 0 8 = X.m.U.Y.Y.Y.Y.Y.Y.Y.J.v.| E @.S.Y.Y.Y.Y.Y.Y.Y.U.N.+.6 7 0 0 0 0 ;.0 0 0 0 0 0 0 0 0 0 0 0 ",
"0 0 0 ;.0 0 0 0 0 0 0 0 0 0 0 0 0 % 5 v.R.#X$X$X$X$X$X$X$X#XY.@.O.H. X$X$X$X$X$X$X$X$X[.N.A # 7 0 0 0 0 0 0 0 0 0 0 0 0 0 0 0 0 ",
"0 0 0 0 0 0 0 0 0 0 0 0 0 0 0 0 i } @.D. X%X&X%X$X$X$X$X$X#X].A.N.T.oX$X$X$X$X$X%X&X&XoXT.v.X.a 9 0 0 0 0 0 0 0 0 0 0 0 0 0 0 0 ",
"0 0 0 0 0 0 0 0 0 0 0 0 0 0 8 % Q m.T.{.XXOX}.`.T.T.T.T.T.T.R.].].R.T.T.T.T.T.T._.}.XXXX X].H.O.> 7 0 0 0 0 0 0 0 0 0 0 0 0 0 0 ",
"0 0 0 0 0 0 0 0 0 0 0 0 0 9 = 5 @.T.#X@X|.!.h.r.[ _ _ _ _ c.U. XoXT.v._ _ _ _ _ q.g.W.(.+X$X[.m.A > 9 0 0 0 0 0 0 0 0 0 0 0 0 0 ",
"0 0 0 0 0 0 0 0 0 0 0 0 7 i X.v.D.{.@XOX!.f.7.G 3 > , ; ; A m.].[.H.o.< ; < , , V ` s.W.|.@X.XY.m.O.K 9 0 0 0 0 0 0 0 0 0 0 0 0 ",
"0 0 0 0 0 0 0 0 0 0 0 0 + A m.R. XXX|.!.h.5.G H u e r e e J O.m.m.@.I r e r e r a Z ` u.W.).XX.X[.H.o.= 7 0 0 0 0 0 0 0 0 0 0 0 ",
"0 0 0 0 0 0 0 0 0 0 0 0   Q U.#X&XOX!.f.5.Z a f j j j j j j L I A L Y j j j j j h a N / s.E.|.%X$XR.+.* -X0 0 0 0 0 0 0 0 0 0 0 ",
"0 0 0 0 0 0 0 0 0 0 0 0   ( Y.$X*X.Xh.7.G a s k T T T T T k g u r g k T T T T T k g i Z ` d./.%X&X].@.O % 0 0 0 0 0 &.0 0 0 0 0 ",
"0 0 0 0 0 0 0 0 0 0 0 0   W Y.$X%X`.r.G H f k =.-.:.:.:.:.-.T g g k -.:.:.:.:.:.-.k h J Z ] P.$X&X].@.* % 0 0 0 0 0 0 0 0 0 0 0 ",
"0 0 0 0 0 0 0 0 0 0 0 0   Q D.oXoXP.' 6 s k =.:.,.,.,.,.,.:.-.T k -.:.,.,.,.,.,.:.-.k g t C A. X@XT.[ * % 0 0 0 0 0 0 0 0 0 0 0 ",
"0 0 0 0 0 0 0 0 0 0 0 0   C M././.C.( w g =.:.,.,.,.,.,.,.,.:.-.-.:.,.,.,.,.,.,.,.:.-.k r V r.~.(.Z._ * % 0 0 0 0 0 0 0 0 0 0 0 ",
"0 0 0 0 0 0 0 0 0 0 0 0   b t.K.E.u.G i k :.,.,.,.,.,.,.,.,.,.:.:.,.,.,.,.,.,.,.,.,.:.T s V 7.x.E.g.! o % 0 0 0 0 0 0 0 0 0 0 0 ",
"0 0 0 0 0 0 0 0 0 0 0 0   b i.Q.Q.s.G p k :.,.,.,.,.,.,.,.,.,.,.,.,.,.,.,.,.,.,.,.,.,.=.d V r.L.!.h.) o % 0 0 0 0 0 0 0 0 0 0 0 ",
"0 0 0 0 0 0 0 0 0 0 0 0   C S.}.}.Z.) p k :.,.,.,.,.,.,.,.,.,.,.,.,.,.,.,.,.,.,.,.,.,.=.s A n.'..XP.[ * % 0 0 0 0 0 0 0 0 0 0 0 ",
"0 0 0 0 0 0 0 0 0 0 0 0   Q D.oXoXP._ i k :.,.,.,.,.,.,.,.,.,.,.,.,.,.,.,.,.,.,.,.,.,.T s Z M. X@XR.{ * % 0 0 0 0 0 0 0 0 0 0 0 ",
"0 0 0 0 0 0 0 0 0 0 0 :X  C S.}.}.Z.( w k :.,.,.,.,.,.,.,.,.,.,.,.,.,.,.,.,.,.,.,.,.,.=.u N b.'..XP.[ * % 0 0 0 0 0 0 0 0 0 0 0 ",
"0 0 0 0 0 0 0 0 0 0 0 0   b i.W.Q.i.G p k :.,.,.,.,.,.,.,.,.,.,.,.,.,.,.,.,.,.,.,.,.,.=.d V w.L.Q.g.) o % 0 0 0 0 0 0 0 0 0 0 0 ",
"0 0 0 0 0 0 0 0 0 0 0 0   x 7.j.l.h.q.o...>.:.,.,.,.,.,.,.,.,.,.,.,.,.,.,.,.,.,.,.:.>. .#.@.i.k.l.e.! o % 0 0 0 0 0 0 0 0 0 0 0 ",
"0 0 0 0 0 0 0 0 0 0 0 0   x 6.a.E.~.T.H.%.E k -.,.,.,.,.,.,.,.,.,.,.,.,.,.,.,.,.:.*.Y $.V.T.~.!.l.e.D o % 0 0 0 0 0 0 0 0 0 0 0 ",
"0 0 0 0 0 0 0 0 0 0 0 0   x 6.a.!.|.@X[.N.| h -.:.,.,.,.,.,.,.,.,.,.,.,.,.,.,.,.-.j L v.R.oXOX(.l.e.m $ % 0 0 0 0 0 0 0 0 0 0 0 ",
"0 0 0 0 0 0 0 0 0 0 0 0 + M / s.L.}.+X}.Z.] P E =.-.,.,.,.,.,.,.,.,.,.,.,.,.:.-.R U ' n.`.oX.XQ.f.5.V $ 7 0 0 0 0 0 0 0 0 =X0 0 ",
"0 0 0 0 0 0 0 0 0 0 0 0 % 6 Z / t.Z.^.^.x.s.q.P h k :.,.,.,.,.,.,.,.,.,.,.,.=.h I [ y.z.I.^.G.i.5.G 5 9 0 0 0 0 0 0 0 0 0 0 0 0 ",
"0 0 0 0 0 0 0 0 0 0 0 0 0 9 < 5 m 3.y.f.j.j.s.{ | E >.:.,.,.,.,.,.,.,.,.,.>.R } ' t.j.j.j.s.7.! x < q 0 0 0 0 0 0 0 0 &.0 0 0 0 ",
"0 0 0 0 0 0 0 0 0 0 0 0 0 0 7 # 1 v ~ 8.p.j.x.Z.N.%. .k -.,.,.,.,.,.,.-.*.R $.B.S.F.k.a.0.^ S 2 % 7 0 0 0 0 0 0 0 0 0 0 0 0 0 0 ",
"0 0 0 0 0 0 0 0 0 0 0 0 0 0 0 8 > 1 c ~ 8.f.^. X[.H.o.h k :.,.,.,.,.,.=.h } B.]. X/.z.0.^ n M > 7 0 0 0 0 0 0 0 0 0 0 0 0 0 0 0 ",
"0 0 0 0 0 0 0 0 0 0 0 0 0 0 0 0 8 % : c ~ y.^.@X@X_.m.o. .>.:.,.,.,.:. .#.c.Y.oX@X'.g.2.n - % 7 0 0 0 0 0 0 0 0 0 0 0 0 0 0 0 0 ",
"0 0 0 0 0 0 0 0 0 0 0 0 0 0 0 0 &.7 % 1 v 3.F.}.OX.X_.H.%.E k -.:.*.Y $.V.T.}.OX|.I.w.S l > 7 0 0 0 0 =X0 0 0 0 0 0 0 0 0 0 0 0 ",
"0 0 0 0 0 0 0 0 0 0 0 0 0 0 0 0 0 0 <.& 1 m t.K.(.OX@X[.N.| h =.-.j I v.R.oXOX|.Q.d./ 4 ; 9 0 0 0 0 0 0 0 0 0 0 0 0 0 0 0 0 0 0 ",
"0 0 0 0 0 0 0 0 0 0 0 0 0 0 0 0 0 0 0 8 # 5 / s.L.}.@X XZ.{ P E R U ' n.'.oX.XQ.f.5.V 1.7 0 0 0 0 0 0 0 0 0 0 0 0 0 0 0 0 0 0 0 ",
"0 0 &.0 0 0 0 0 0 0 0 0 0 0 0 0 0 0 0 0 7 < V / t.F.^.^.x.s.q.X.U +.y.z.W.^.G.i.5.C 6 7 0 0 0 0 0 0 0 0 0 0 0 0 0 0 0 0 0 0 0 0 ",
"0 0 0 0 0 0 0 0 0 0 0 0 0 0 0 0 0 0 0 0 0 9 < 5 m 3.y.f.j.j.y./ ) w.j.l.j.s.7.! x 3 q 0 0 0 0 0 0 0 0 0 0 0 0 0 0 0 0 0 0 0 0 0 ",
"0 0 0 0 0 0 0 0 0 0 0 0 0 0 0 0 0 0 0 0 0 0 7 # 1 v ~ 8.p.a.p.2.^ 0.a.a.0.^ S 2 % 7 0 0 0 0 0 0 0 0 0 0 0 0 0 0 0 0 0 0 0 0 0 0 ",
"0 0 0 0 0 0 0 0 0 0 0 0 0 0 0 0 0 0 0 0 0 0 0 8 & 1 c ~ 9.p.0.8.4.0.p.0.^ n 2 > 7 0 0 0 0 0 0 0 0 0 0 0 0 0 0 0 0 0 0 0 0 0 0 0 ",
"0 0 0 0 0 0 0 0 0 0 0 0 0 0 0 0 0 0 0 0 0 0 0 0 8 % : c ~ 4.8.4.4.8.8.2.S - & 7 0 0 0 0 0 0 0 0 0 0 0 0 0 ;.0 0 0 0 0 0 0 0 0 0 ",
"0 0 0 0 0 0 0 0 0 0 0 0 0 0 0 0 0 0 0 0 0 0 0 0 0 7 % 2 n F ~ ~ ~ F F S M = 7 0 0 0 0 0 0 0 0 0 0 0 0 0 0 0 0 0 0 0 0 =X0 0 0 0 ",
"0 0 0 0 0 0 0 0 0 0 0 0 0 0 0 0 0 0 0 0 0 0 0 0 0 0 8 > 2 J z z z z z 2 < 9 0 0 0 0 0 0 0 0 0 0 0 0 0 0 0 0 0 0 0 0 0 0 0 0 0 0 ",
"0 0 0 0 0 0 0 0 0 0 0 0 0 0 0 0 0 0 0 0 0 0 0 0 0 0 0 8 % $ X X X X $ $ % 0 0 0 0 0 0 0 0 0 0 0 0 0 0 0 0 0 0 0 0 0 0 0 0 0 0 0 ",
"0 0 0 0 0 0 0 0 0 0 0 0 0 0 0 0 0 0 0 0 0 0 0 0 0 0 0 0 7 % % % % % % 7 8 0 0 0 0 0 0 0 0 0 0 0 0 0 0 0 0 0 0 0 0 0 0 0 0 0 0 0 ",
"0 0 0 0 0 0 0 0 0 0 0 ;X0 0 0 0 0 0 0 0 0 0 0 0 0 0 0 0 0 0 0 0 0 0 0 0 0 0 &.0 0 0 0 0 0 0 0 0 0 0 0 0 0 0 0 0 0 0 0 0 0 0 0 0 ",
"0 0 0 0 0 0 0 0 0 0 0 0 0 0 0 0 0 0 0 0 0 0 0 0 0 0 0 0 0 0 0 0 0 0 0 0 0 0 0 0 0 0 0 0 0 0 0 0 0 0 0 0 0 0 0 &.0 0 0 0 0 0 0 0 ",
"0 0 0 0 0 0 0 0 0 0 0 0 0 0 0 0 0 0 0 0 0 0 0 0 0 0 0 0 0 0 0 0 0 0 0 0 0 0 0 0 0 0 0 0 0 0 0 0 0 0 0 0 0 0 0 0 0 0 0 0 &.0 0 0 ",
"0 0 0 0 0 0 0 0 0 0 0 0 0 0 0 0 0 0 0 0 0 0 0 0 0 0 0 0 0 0 0 0 0 0 0 0 0 0 0 0 0 0 0 0 0 0 0 0 0 0 0 0 0 0 0 0 0 0 0 0 0 0 0 0 ",
"0 0 0 0 0 0 0 0 0 0 0 0 0 0 0 0 0 0 0 0 0 0 0 0 0 0 0 0 0 0 0 0 0 0 0 0 0 0 0 0 0 0 0 0 0 0 0 0 0 0 0 0 0 0 0 0 0 0 0 0 0 0 0 0 ",
"0 0 0 0 0 0 0 0 0 0 0 0 0 0 0 0 0 0 0 0 0 0 0 0 0 0 0 0 0 0 0 0 0 0 0 0 0 0 0 0 0 0 0 0 0 0 0 0 0 0 0 0 0 0 0 0 0 0 0 0 0 =X0 0 ",
"0 0 0 0 0 0 0 0 0 0 0 0 0 0 0 0 0 0 0 0 0 0 0 0 0 0 0 0 0 0 0 0 0 0 0 0 0 0 0 0 0 0 0 0 0 0 0 0 0 0 0 0 0 0 0 0 0 0 0 0 0 0 0 0 ",
"0 0 0 0 0 0 0 0 0 0 0 0 0 0 0 0 0 0 0 0 0 0 0 0 0 0 0 0 0 0 0 0 0 0 0 0 0 0 0 0 0 0 0 0 0 0 0 0 0 0 0 0 0 0 0 0 0 0 0 0 0 0 0 0 ",
"0 0 0 0 0 0 0 0 0 0 0 0 0 0 0 0 0 0 0 0 0 0 0 0 0 0 0 0 0 0 0 0 0 0 0 0 0 0 0 0 0 0 0 0 0 0 0 0 0 0 0 0 0 0 0 0 0 0 0 0 0 0 0 0 ",
"0 0 0 0 0 0 0 0 0 0 0 0 0 0 0 0 ;X0 0 0 0 0 0 0 0 0 0 0 0 0 0 0 0 0 0 0 0 0 0 0 0 0 0 0 0 0 0 0 0 0 0 0 0 0 0 0 0 0 0 0 0 0 0 0 "
};
