/* XPM */
static char *_360b0cb83f34812be7a4842fd0ee13b[] = {
/* columns rows colors chars-per-pixel */
"64 64 225 2 ",
"   c #000001",
".  c #05040C",
"X  c #130A0E",
"o  c #190F0F",
"O  c #1F150F",
"+  c #090714",
"@  c #0E0B1A",
"#  c #140C14",
"$  c #110C1C",
"%  c #1C0F1B",
"&  c #1D1310",
"*  c #1C131C",
"=  c #2D1513",
"-  c #2C1715",
";  c #23141C",
":  c #2D1B1B",
">  c #341913",
",  c #3D1F11",
"<  c #301F19",
"1  c #3E210E",
"2  c #3B2718",
"3  c #130F21",
"4  c #161125",
"5  c #1A1325",
"6  c #181328",
"7  c #261B27",
"8  c #331C23",
"9  c #2D2128",
"0  c #3C2B23",
"q  c #362729",
"w  c #282938",
"e  c #392E33",
"r  c #3B3036",
"t  c #36353B",
"y  c #3D343A",
"u  c #590100",
"i  c #5D0D00",
"p  c #5E1400",
"a  c #401E11",
"s  c #7C0200",
"d  c #770D00",
"f  c #7D0A00",
"g  c #771E00",
"h  c #631318",
"j  c #482601",
"k  c #482B07",
"l  c #482C0D",
"z  c #552C08",
"x  c #5A3708",
"c  c #4D341A",
"v  c #533414",
"b  c #593A16",
"n  c #543B1C",
"m  c #7C2300",
"M  c #623507",
"N  c #683C07",
"B  c #753804",
"V  c #762E17",
"C  c #693B15",
"Z  c #452D26",
"A  c #4A3625",
"S  c #563B2A",
"D  c #453537",
"F  c #4D3638",
"G  c #42393E",
"H  c #4D3C3B",
"J  c #713134",
"K  c #5F4517",
"L  c #5D4318",
"P  c #67420B",
"I  c #754101",
"U  c #7D4A05",
"Y  c #754B0C",
"T  c #694613",
"R  c #6E4D1B",
"E  c #734B14",
"W  c #7D4A16",
"Q  c #734C1A",
"!  c #78541B",
"~  c #584025",
"^  c #57463B",
"/  c #634823",
"(  c #6D5123",
")  c #795725",
"_  c #7D5C23",
"`  c #6A5033",
"'  c #262B44",
"]  c #3D3941",
"[  c #443C42",
"{  c #493F43",
"}  c #513D41",
"|  c #3F4046",
" . c #3A4466",
".. c #434046",
"X. c #494146",
"o. c #424349",
"O. c #4C4449",
"+. c #56464A",
"@. c #594448",
"#. c #445068",
"$. c #8D0500",
"%. c #910500",
"&. c #8E1804",
"*. c #9C1700",
"=. c #951A02",
"-. c #9B1801",
";. c #A80000",
":. c #A71601",
">. c #B11900",
",. c #BA1902",
"<. c #832806",
"1. c #912711",
"2. c #B02819",
"3. c #923432",
"4. c #B73127",
"5. c #C21D00",
"6. c #CC1F01",
"7. c #CE250A",
"8. c #D42405",
"9. c #DD2809",
"0. c #E52D0C",
"q. c #EB300E",
"w. c #FF370D",
"e. c #E93010",
"r. c #E6351C",
"t. c #F43617",
"y. c #FA3816",
"u. c #FF3B18",
"i. c #C6382D",
"p. c #D13727",
"a. c #D23F32",
"s. c #F63C21",
"d. c #824E0A",
"f. c #8E5101",
"g. c #82540C",
"h. c #895709",
"j. c #915501",
"k. c #935803",
"l. c #9B5E03",
"z. c #864D16",
"x. c #885918",
"c. c #915A18",
"v. c #996408",
"b. c #8F6019",
"n. c #966516",
"m. c #9A6313",
"M. c #9C6B1A",
"N. c #A66909",
"B. c #B3750C",
"V. c #A26B13",
"C. c #A86B14",
"Z. c #A97218",
"A. c #B47411",
"S. c #BB7C14",
"D. c #B1761A",
"F. c #B67C1C",
"G. c #896528",
"H. c #9A6C24",
"J. c #916C2B",
"K. c #9B722A",
"L. c #977033",
"P. c #A06D27",
"I. c #A87727",
"U. c #A07429",
"Y. c #AB7B2C",
"T. c #B47C24",
"R. c #A47A31",
"E. c #C34138",
"W. c #FB472F",
"Q. c #854F4F",
"!. c #974241",
"~. c #974D4B",
"^. c #AC4440",
"/. c #98615E",
"(. c #956C69",
"). c #BC6E68",
"_. c #C95148",
"`. c #F75A49",
"'. c #E2665B",
"]. c #D4746B",
"[. c #E66E63",
"{. c #BE821F",
"}. c #BD8324",
"|. c #B5842E",
" X c #AC8132",
".X c #B38533",
"XX c #BB8A34",
"oX c #BB8B37",
"OX c #C3851D",
"+X c #C28623",
"@X c #C58925",
"#X c #CA8B23",
"$X c #C78B2A",
"%X c #C5892C",
"&X c #CC912F",
"*X c #D6972C",
"=X c #C18E35",
"-X c #C49035",
";X c #CD9536",
":X c #C49239",
">X c #CB963A",
",X c #D19530",
"<X c #D49A35",
"1X c #DB9D33",
"2X c #D49C3A",
"3X c #D99F39",
"4X c #DEA137",
"5X c #DCA33E",
"6X c #E1A236",
"7X c #E1A53B",
"8X c #E5A83E",
"9X c #DCA541",
"0X c #E4AB43",
"qX c #EAAE42",
"wX c #EDB144",
"eX c #F0B345",
"rX c #F5887D",
"tX c #566482",
"yX c #5A6988",
"uX c #8392AA",
"iX c #8B9BB4",
"pX c #CE8F88",
"aX c #EA9187",
"sX c #F1A196",
"dX c #C0CBDC",
/* pixels */
"6 6 6 6 6 6 6 6 6 6 6 6 6 6 6 6 6 6 6 6 6 6 6 6 6 6 6 6 6 6 6 6 6 6 6 6 6 6 6 6 6 6 6 6 6 6 6 6 6 6 6 6 6 6 6 6 6 6 6 6 6 6 6 6 ",
"6 6 6 dX6 6 6 6 6 6 6 6 6  .6 6 6 6 6 6 6 6 6 6 6 6 6 6 6 6 6 6 6 6 6 6 6 6 6 6 6 6 6 6 ' 6 6 6 6 6 6 6 6 6 6 6 6 6 6 6 6 6 6 6 ",
"6 6 6 6 6 6 6 6 6 6 6 6 6 6 6 6 6 6 6 6 6 6 6 6 6 6 6 6 6 6 6 6 6 6 6 6 6 6 6 6 6 6 6 6 6 6 6 6 6 6 6 6 6 6 6 6 6 6 6 6 6 6 6 6 ",
"6 6 6 6 6 6 6 6 6 6 6 6 6 6 6 6 6 6 6 6 6 6 6 6 6 6 6 6 6 6 6 6 6 6 6 6 6 6 6 6 6 6 6 6 6 6 6 6 6 6 6 6 6 6 6 6 6 6 6 6 6 6 6 6 ",
"6 6 6 6 6 6 6 6 6 6 6 6 6 6 6 6 6 6 6 6 6 6 6 6 6 6 6 6 6 6 6 6 6 6 6 6 6 6 6 6 6 6 6 6 6 6 6 6 6 6 6 6 6 6 6 6 6 6 6 6 6 6 6 6 ",
"6 6 6 6 6 6 6 6 6 6 6 6 6 6 6 6 6 6 yX6 6 6 6 6 6 6 6 6 6 6 6 6 6 6 6 6 6 6  .6 6 6 dX6 6 6 6 6 6 6 6 6 6 6 6 6 6 6 6 6 6 6 6 6 ",
"6 6 6 6 6 6 6 6 6 6 6 6 6 6 6 6 6 6 6 6 6 6 6 6 6 6 6 6 6 6 6 6 6 6 6 6 6 6 6 6 6 6 6 6 6 6 6 6 6 6 6 6 6 6 6 6 6 6 6 6 6 6 6 6 ",
"6 6 6 6 6 6 6 6 6 6 6 6 6 6 6 6 6 6 6 6 6 6 6 6 6 6 6 6 6 6 6 6 6 6 6 6 6 6 6 6 6 6 6 6 6 6 6 6 6 6 6 6 6 6 6 6 6 6 6 6 6 6 6 6 ",
"6 6 6 6 6 6 6 6 6 6 6 6 6 6 6 6 6 6 6 6 6 6 6 6 6 6 6 6 6 6 6 6 6 6 6 6 6 6 6 6 6 6 6 6 6 6 6 6 6 6 6 6 6 6 6 6 6 6 6 6 6 6 6 6 ",
"6 6 6 6 6 6 6 6 6 6 6 6 6 6 6 6 6 6 6 6 6 6 6 6 6 6 6 6 6 6 6 6 6 6 6 6 6 6 6 6 6 6 6 6 6 6 6 6 6 6 6 6 6 6 6 6 6 6 6 6 6 6 6 6 ",
"6 6 6 6 6 6 6 6 6 6 6 6 6 6 6 6 6 6 6 6 6 6 6 6 6 6 6 6 6 6 6 6 6 6 6 6 6 6 6 6 6 6 6 6 6 6 6 6 6 6 6 6 6 6 6 6 6 6 6 6 6 6 6 6 ",
"6 6 6 6 6 6 6 6 6 6 6 6 6 6 6 6 6 4 3 +                   @ 3 4 @ .                 . $ 4 iX6 6 6 6 6 6 6 6 6 6 6 6 6 6 6 6 6 6 ",
"6 6 6 6 6 6 6 6 6 6 6 6 6 6 6 6 4 5 0 n L K K K K K K K L c q 9 c ^ K K K K K K K K n Z 7 4 6 6 6 6 6 6 6 6 6 6 6 6 6 6 6 6 6 6 ",
"6 6 6 6 6 6 6 6 6 6 6 6 6 6 6 4 4 * / J. X.X.X.X.X.X.X.XY.G.~ A _ R..X.X.X.X.X.X.X XK.( 2 3 4 6 6 6 6 6 6 6 6 6 6 6 6 6 ' 6 6 6 ",
"6 iX6 6 6 6 6 6 6 6 6 6 6 6 6 4 $ 2 G.oX9X0X0X0X0X0X0X0X9X.X_ ( R.2X0X0X0X0X0X0X0X0X>XK.n @ 3 6 6 6 6 6 6 6 6 6 6 6 6 6 6 6 6 6 ",
"6 6 6 6 6 6 6 6 6 6 6 6 6 4 4 q ~ _ Y.2XqXwXqX0X0X0X0X0X9X:XU.K.oX5X0X0X0X0X0XqXwXwX5XoXG./ 0 5 4 4 6  .6 6 6 6 6 6 6 6 6 6 6 6 ",
"6 6 6  .6 6 6 6 6 6 6 6 4 4 $ ~ J.oX;X4X6X<X-XoXoXoXoXoXoXoX-X:XoXoXoXoXoXoXoX=X<X4X4X<X-XR.( ; 3 4 6 6 6 6 6 6 6 6 6 6 6 6 6 6 ",
"6 6 6 6 6 6 6 6 6 6 6 4 5 * 2 _ oX9X8X1X#XD.b.Q Q Q Q E x..X2X5XoXG.R R R R R x.Z.+X*X7X0X>XJ.n ; 5 6 6 6 6 6 6 6 6 6 6 6 6 6 6 ",
"6 6 6 6 6 6 6 6 6 6 6 4 0 / G.Y.;X8X6X$XZ.k.B p u i u u B H.-X>XR./ : % : - : v W V.+X1X8X3XoXJ.( Z 4 4 4 6 6 6 6 6 6 6 6 6 6 6 ",
"6 6 6 6 6 6 6 6 6 6 6 + n J.oX2X4X1X$XZ.h.B m f s s s s <.z.H.J.) S 7 7 7 7 7 0 n Y M.+X*X4X3X>XR./ * 3 4 6 6 6 6 6 6 6 6 6 6 6 ",
"6 6 6 6 6 6 6 6 6 6 6   L  X9XqX6X#XZ.h.B g &.-.*.*.*.*.=.<.C n A D r r r r r e 0 c E V.OX1X8X0XoX) & $ 4 6 6 6 6 6 6 6 6 6 6 6 ",
"6 6 6 6 6 6 6 6 6 6 6   T .X0XeX3XD.k.B g $.:.>.>.>.>.>.:.&.h 8 w y G G G G G y e q b W V.&XqXwX:X_ O $ 4 6 6 6 6 6 6 6 6 6 6 6 ",
"6 6 6 6 6 6 6 6 6 6 6   K .X0XqX-Xb.B m &.:.,.5.5.5.5.5.,.1.J D t [ X.X.X.X.X.[ y e Z v ! |.0XwX:X_ & $ uX6 6 6 6 6 6 6 6 6 6 6 ",
"6 6 6 6 6 6 6 6 6 6 6   L Y.5X5X|.E p f -.>.5.6.8.8.8.8.7.2.J F ] X.O.O.O.O.O.X.[ y e 8 b U.2X7XoX! & $ 4 6 6 6 6 6 ' 6 6 6 6 6 ",
"6 6 6 6 6 6 6 6 6 6 6   x H.&X&XI.C u s *.>.5.8.9.0.q.q.r.i.3.} | O.O.O.O.O.O.O.X.[ r 7 v b.$X,XT.E & @ 4 6 6 6 6 6 6 6 6 6 6 6 ",
"6 6 6 6 6 6 6 6 6 6 6   z n.{.OXM.N i f *.>.5.8.0.t.y.y.t.a.3.@.o.O.O.O.O.O.O.O.O.X.G q v x.F.+XZ.P o $ 4 6 6 6 6 6 6 6 6 6 6 6 ",
"6 6 6 6 6 6 6 6 6 6 6   x M.@X@XM.N i f -.>.5.8.e.y.u.u.s.a.!.@.o.O.O.O.O.O.O.O.O.O.[ q v b.}.$XZ.T o $ 4 6 6 6 6 6 6 6 6 6 6 6 ",
"6 6 6 6 6 6 6 6 6 6 6   b I.<X<XY.T i s -.>.5.8.e.y.u.u.s.a.!.@.o.O.O.O.O.O.O.O.O.O.[ q n H.;X3X|.! & $ 4 6 6 6 6 6 6 6 6 6 6 6 ",
"6 6 6 6 6 6 6 6 6 6 6   L  X5X5X|.E i s -.>.5.8.e.y.u.u.s.a.!.@.o.O.O.O.O.O.O.O.O.O.G q n U.2X8XoX! & $ 4 6 6 6 6 6 6 6 6 6 6 6 ",
"6 6 6 6 6 6 6 6 6 6 6   b I.<X<XY.P u s *.>.5.8.e.y.u.w.t.a.!.@.o.O.O.O.O.O.O.O.O.O.[ 9 c H.;X3X|.! & $ 4 6 6 6 6 6 6 6 6 6 6 6 ",
"6 6 6 6 6 6 6 6 6 6 6   x M.+X@XM.N i f -.>.5.8.e.y.u.u.s.a.!.@.o.O.O.O.O.O.O.O.O.O.[ q v c.}.@XZ.T o $ 4 6 6 6 6 6 6 6 6 6 6 6 ",
"6 6 6 6 6 6 6 6 6 6 6   k h.A.S.Z.x.W <.=.:.,.6.0.t.W.`.`._.~.@.o.O.O.O.O.O.O.O.X.X.^ ` _ M.S.S.v.P o $ 4 6 6 6 6 6 6 6 6 6 6 6 ",
"6 6 6 6 6 6 6 6 6 6 6   k h.B.OX$XoXY.c.<.$.:.,.8.r.`.[.rX]./.+.o.O.O.O.O.O.O.X.] D ` L.oX$X#XS.v.M o $ 4 6 6 6 6 6 6 6 6 6 6 6 ",
"6 6 6 6 6 6 6 6 6 6 6   k h.B.#X1X7X>XK.B d =.:.,.p.'.aXsXpX(.+...O.O.O.O.O.O.{ r A G.oX5X7X*XS.v.x # $ 4 6 6 6 6 6 6 6 6 6 6 6 ",
"6 6 6 6 6 6 6 6 6 6 6 + l Y V.}.<X5X<XI.g.B <.%.;.4.'.aXsXpX(.+...O.O.O.O.{ [ H S Q H.-X5X1X@XZ.h.v # 3 4 6 6 6 6 6 6 6 6 6 6 6 ",
"6 6 6 6 6 6 6 6 6 6 6 $ 2 b Y n.T.%X%XF.V.f.B d $.2._.'.].).Q.+.o.O.O.O.O.[ r S ! m.D.}.$XT.M.g.C 2 4 4 4 6 6 6 6 6 6 6 6 6 6 6 ",
"6 6 6 6 6 6 6 6 6 6 6 4 5 : 2 x d.m.C.A.B.V.g.B <.=.2.4.E.^.Q.+.o.O.O.O.O.H ~ Q n.A.A.A.V.h.P l : 7 6 6 6 6 6 6 6 6 6 6 6 yX6 6 ",
"6 6 6 6 6 6 6 6 6 6 6 6 4 3 @ > z I k.N.A.F.Y.U.c.<.%.;.>.3.J O.O.O.{ ] H ` L.Y.T.S.B.l.z.M , $ 3 4 6 6 6 6 6 6 6 6 6 6 6 6 6 6 ",
"6 6 6 6 6 6 6 6 6 6 6 6 6 4 4 ; > z I k.C.%X2X>XY.W d %.-.3.J O.O.O.[ r ~ L.:X2X&XD.l.U x , ; 3 4 4 6 6 6 6 6 6 6 6 6 ' 6 6 6 6 ",
"6 6 6 6 6 6 6 6 6 6 6 6 6 6 6 4 $ = z I m.%X7X7X=XH.W <.1.J J O.o.X.^ ` G..X5X7X&XC.d.x 1 $ 3 6 6 6 6 6 6 6 6 6 6 6 6 6 6 6 6 6 ",
"6 6 6 6 6 6 6 6 6 6 6 6 6 6 6 4 3 $ > z d.T.<X6X3X=XY.c.V J H { ] D ` L.oX<X6X1X}.c.M a ; 3 w 6 6 6 6 6 6 6 6 6 6 6 6 6 6 6 6 6 ",
"6 6 6 6 6 6 6 6 6 6 6 6 6 6 6 6 4 4 % > x n.{.*X6X7X>XP.C Z H { y S G.oX5X6X1X@XV.Y 1 % 4 4 4 6 6 6 6 6 6 6 6 6 6 6 6 6 6 6 6 6 ",
"6 6 6 6 6 6 6 6 6 6 6 6 6 6 6 6 ' 6 4 @ 2 Y V.{.<X7X<XY.! S H H S Q H.;X5X1X@XZ.h.v # 3 4 6 6 6 6 6 6 yX6 6 6 6 6 6 6 6 6 6 6 6 ",
"6 6 6 6 6 6 6 6 6 6 6 6 6 6 6 6 6 6 tX3 : v Y n.T.%X%XF.V.x./ S ) m.D.+X%XT.M.g.b 2 3 4 6 6 6 6 6 6 6 6 6 6 6 6 6 6 6 6 6 6 6 6 ",
"6 6 6 6 6 6 6 6 6 6 6 6 6 6 6 6 6 6 6 4 5 : 2 x d.m.C.A.A.m.E P c.A.S.A.V.h.P l < 7 4 iX6 6 6 6 6 6 6 6 6 6 6 6 6 6 6 6 6 6 6 6 ",
"6 6 ' 6 6 6 6 6 6 6 6 6 6 6 6 6 6 6 6 6 4 3 @ > z I k.N.B.N.f.U l.B.B.l.U M , $ 3 4 6 6 6 6 6 6 6 6 6 6 6 6 6 6 6 6 6 6 6 6 6 6 ",
"6 6 6 6 6 6 6 6 6 6 6 6 6 6 6 6 6 6 6 6 6 4 4 % > z I k.N.l.k.f.l.N.l.U x , ; 3 4 4 6 6 6 6 6 6 6 6 6 6 6 6 6 6 6 6 6 6 6 6 6 6 ",
"6 6 6 6 6 6 6 6 6 6 6 6 6 6 6 6 6 6 6 6 6 6 6 4 $ = z U f.j.f.f.j.j.z.M 1 % 3 6 6 6 6 6 6 6 6 6 6 6 6 6 6 6 6 6 6 6 6 6 6 6 6 6 ",
"6 6 6 6 6 6 6 6 6 6 6 6 6 6 6 6 6 6 6 6 6 6 6 4 3 $ , x N I I I I B M l % 3 4 6 6 6 6 6 6 6 6 6 6 6 6 6 6 6 6 6 6 6 6 6 6 6 6 6 ",
"6 6 6 6 6 6 6 6 6 6 6 6 6 6 6 6 6 6 6 6 6 6 6 6 4 4 ; , j j j j j j 1 : 4 4 4 6 6 6 6 6 6 6 6 6 6 6 6 6 6  .6 6 6 6 6 6 6 6 6 6 ",
"6 6 6 6 6 6 6 6 6 6 6 6 6 6 6 6 6 6 6 6 6 6 6 6 6 6 4 $ # X X X X X # $ 4 6 6 6 6 6 6 6 6 6 6 6 6 6 6 6 6 6 6 6 6 6 6 yX6 6 6 6 ",
"6 6 6 6 6 6 6 6 6 6 6 6 6 6 6 6 6 6 6 6 6 6 6 6 6 6 4 3 $ #.$ $ @ @ $ 4 6 6 6 6 6 6 6 6 6 6 6 6 6 6 6 6 6 6 6 6 6 6 6 6 6 6 6 6 ",
"6 6 6 6 6 6 6 6 6 6 6 6 6 6 6 6 6 6 6 6 6 6 6 6 6 6 4 4 4 4 4 4 4 4 4 4 6 6 6 6 6 6 6 6 6 6 6 6 6 6 6 6 6 6 6 6 6 6 6 6 6 6 6 6 ",
"6 6 6 6 6 6 6 6 6 6 6 6 6 6 6 6 6 6 6 6 6 6 6 6 6 6 6 6 6 6 6 6 6 6 6 6 6 6 6 6 6 6 6 6 6 6 6 6 6 6 6 6 6 6 6 6 6 6 6 6 6 6 6 6 ",
"6 6 6 6 6 6 6 6 6 6 6 iX6 6 6 6 6 6 6 6 6 6 6 6 6 6 6 6 6 6 6 6 6 6 6 6 6 6 ' 6 6 6 6 6 6 6 6 6 6 6 6 6 6 6 6 6 6 6 6 6 6 6 6 6 ",
"6 6 6 6 6 6 6 6 6 6 6 6 6 6 6 6 6 6 6 6 6 6 6 6 6 6 6 6 6 6 6 6 6 6 6 6 6 6 6 6 6 6 6 6 6 6 6 6 6 6 6 6 6 6 6 ' 6 6 6 6 6 6 6 6 ",
"6 6 6 6 6 6 6 6 6 6 6 6 6 6 6 6 6 6 6 6 6 6 6 6 6 6 6 6 6 6 6 6 6 6 6 6 6 6 6 6 6 6 6 6 6 6 6 6 6 6 6 6 6 6 6 6 6 6 6 6 ' 6 6 6 ",
"6 6 6 6 6 6 6 6 6 6 6 6 6 6 6 6 6 6 6 6 6 6 6 6 6 6 6 6 6 6 6 6 6 6 6 6 6 6 6 6 6 6 6 6 6 6 6 6 6 6 6 6 6 6 6 6 6 6 6 6 6 6 6 6 ",
"6 6 6 6 6 6 6 6 6 6 6 6 6 6 6 6 6 6 6 6 6 6 6 6 6 6 6 6 6 6 6 6 6 6 6 6 6 6 6 6 6 6 6 6 6 6 6 6 6 6 6 6 6 6 6 6 6 6 6 6 6 6 6 6 ",
"6 6 6 6 6 6 6 6 6 6 6 6 6 6 6 6 6 6 6 6 6 6 6 6 6 6 6 6 6 6 6 6 6 6 6 6 6 6 6 6 6 6 6 6 6 6 6 6 6 6 6 6 6 6 6 6 6 6 6 6 6 yX6 6 ",
"6 6 6 6 6 6 6 6 6 6 6 6 6 6 6 6 6 6 6 6 6 6 6 6 6 6 6 6 6 6 6 6 6 6 6 6 6 6 6 6 6 6 6 6 6 6 6 6 6 6 6 6 6 6 6 6 6 6 6 6 6 6 6 6 ",
"6 6 6 6 6 6 6 6 6 6 6 6 6 6 6 6 6 6 6 6 6 6 6 6 6 6 6 6 6 6 6 6 6 6 6 6 6 6 6 6 6 6 6 6 6 6 6 6 6 6 6 6 6 6 6 6 6 6 6 6 6 6 6 6 ",
"6 6 6 6 6 6 6 6 6 6 6 6 6 6 6 6 6 6 6 6 6 6 6 6 6 6 6 6 6 6 6 6 6 6 6 6 6 6 6 6 6 6 6 6 6 6 6 6 6 6 6 6 6 6 6 6 6 6 6 6 6 6 6 6 ",
"6 6 6 6 6 6 6 6 6 6 6 6 6 6 6 6 iX6 6 6 6 6 6 6 6 6 6 6 6 6 6 6 6 6 6 6 6 6 6 6 6 6 6 6 6 6 6 6 6 6 6 6 6 6 6 6 6 6 6 6 6 6 6 6 "
};
