/* XPM */
static char *_1b06931cf2a43d1a4802c64b93e1963[] = {
/* columns rows colors chars-per-pixel */
"64 67 115 2 ",
"   c None",
".  c #120E1F",
"X  c #3B371D",
"o  c #3C381F",
"O  c #130F21",
"+  c #161125",
"@  c #191427",
"#  c #1E1A27",
"$  c #181328",
"%  c #1E1929",
"&  c #221D27",
"*  c #221E28",
"=  c #262226",
"-  c #292526",
";  c #2D2926",
":  c #25222A",
">  c #29252B",
",  c #2D2A2A",
"<  c #312E26",
"1  c #312E2B",
"2  c #363226",
"3  c #3A3623",
"4  c #3F3B26",
"5  c #34302C",
"6  c #3D3A2C",
"7  c #2C2A33",
"8  c #313136",
"9  c #403C27",
"0  c #413D29",
"q  c #494533",
"w  c #4E4B36",
"e  c #4F4B3C",
"r  c #55513F",
"t  c #262B44",
"y  c #3D3C42",
"u  c #3A4465",
"i  c #424146",
"p  c #4A494E",
"a  c #535043",
"s  c #5B5846",
"d  c #5A5749",
"f  c #504F53",
"g  c #565650",
"h  c #555458",
"j  c #55595B",
"k  c #5B5A5E",
"l  c #5B5A5D",
"z  c #646156",
"x  c #676457",
"c  c #69665B",
"v  c #68675C",
"b  c #535D74",
"n  c #6C6A60",
"m  c #737167",
"M  c #7A7972",
"N  c #767678",
"B  c #7B7B7D",
"V  c #79787A",
"C  c #817F76",
"Z  c #848277",
"A  c #85837B",
"S  c #5A6988",
"D  c #5A6988",
"F  c #828180",
"G  c #838383",
"H  c #868587",
"J  c #8F8E87",
"K  c gray55",
"L  c #939291",
"P  c #969692",
"I  c #949395",
"U  c #939394",
"Y  c #989791",
"T  c #989891",
"R  c #9B9A98",
"E  c #A09F97",
"W  c #A1A09B",
"Q  c #A6A49D",
"!  c #A8A79F",
"~  c #8493AA",
"^  c #8B9BB4",
"/  c #8B9BB4",
"(  c #A5A5A6",
")  c #ABAAA4",
"_  c #ADADA7",
"`  c #AEADA6",
"'  c #AEAEAE",
"]  c #B0AFA8",
"[  c #B6B5AF",
"{  c #B0B0B1",
"}  c #B0B0B2",
"|  c #B6B6B5",
" . c #B4B4B1",
".. c #BAB9B5",
"X. c #BBBAB6",
"o. c #BCBBB7",
"O. c #BBBAB3",
"+. c #B9B9BA",
"@. c #B5BFCE",
"#. c #C6C6C4",
"$. c #C5C4C2",
"%. c #CACACB",
"&. c #CDCDCC",
"*. c #D1D0CD",
"=. c #D4D3CF",
"-. c #C0CBDC",
";. c #D7D7D4",
":. c #D7D7D7",
">. c #D4D4D4",
",. c #D8D7D5",
"<. c #D8D8D8",
"1. c #E1E1E0",
"2. c #E5E5E5",
"3. c #EBEBEA",
"4. c #F2F2F1",
/* pixels */
"$ $ $ $ $ $ $ $ $ $ $ $ $ $ $ $ $ $ $ $ $ $ $ $ $ $ $ $ $ $ $ $ $ $ $ $ $ $ $ $ $ $ $ $ $ $ $ $ $ $ $ $ $ $ $ $ $ $ $ $ $ $ $ $ ",
"$ $ $ -.$ $ $ $ $ $ $ $ $ u $ $ $ $ $ $ $ $ $ $ $ $ $ $ $ $ $ $ $ $ $ $ $ $ $ $ $ $ $ $ t $ $ $ $ $ $ $ $ $ $ $ $ $ $ $ $ $ $ $ ",
"$ $ $ $ $ $ $ $ $ $ $ $ $ $ $ $ $ $ $ $ $ $ $ $ $ $ $ $ $ $ $ $ $ $ $ $ $ $ $ $ $ $ $ $ $ $ $ $ $ $ $ $ $ $ $ $ $ $ $ $ $ $ $ $ ",
"$ $ $ $ $ $ $ $ $ $ $ $ $ $ $ $ $ $ $ $ $ $ $ $ $ $ $ $ $ $ $ $ $ $ $ $ $ $ $ $ $ $ $ $ $ $ $ $ $ $ $ $ $ $ $ $ $ $ $ $ $ $ $ $ ",
"$ $ $ $ $ $ $ $ $ $ $ $ $ $ $ $ $ $ $ $ $ $ $ $ $ $ $ $ $ $ $ $ @ @ @ @ @ @ $ $ $ $ $ $ $ $ $ $ $ $ $ $ $ $ $ $ $ $ $ $ $ $ $ $ ",
"$ $ $ $ $ $ $ $ $ $ $ $ $ $ $ $ $ $ S $ $ $ $ $ $ @ @ % % % * * * * * * * * u @ @ $ -.$ $ $ $ $ $ $ $ $ $ $ $ $ $ $ $ $ $ $ $ $ ",
"$ $ $ $ $ $ $ $ $ $ $ $ $ $ $ $ $ $ $ $ $ $ $ @ % = ; < < 2 2 3 3 3 3 2 2 < ; = % @ @ $ $ $ $ $ $ $ $ $ $ $ $ $ $ $ $ $ $ $ $ $ ",
"$ $ $ $ $ $ $ $ $ $ $ $ $ $ $ $ $ $ $ @ @ @ % = < 3 4 4 4 4 4 4 4 4 4 4 4 4 3 2 ; = & @ $ $ $ $ $ $ $ $ $ $ $ $ $ $ $ $ $ $ $ $ ",
"$ $ $ $ $ $ $ $ $ $ $ $ $ $ $ $ $ @ % * - ; < 2 4 4 4 4 4 4 4 4 4 4 4 4 4 4 4 4 3 2 ; * @ @ $ $ $ $ $ $ $ $ $ $ $ $ $ $ $ $ $ $ ",
"$ $ $ $ $ $ $ $ $ $ $ $ $ $ $ $ @ % ; 2 3 3 4 4 4 4 4 4 4 4 4 4 4 4 4 4 4 4 4 4 4 4 2 ; = % @ $ $ $ $ $ $ $ $ $ $ $ $ $ $ $ $ $ ",
"$ $ $ $ $ $ $ $ $ $ $ $ $ $ $ @ % ; 3 4 4 4 4 4 4 4 4 4 4 4 4 4 4 4 4 4 4 4 4 4 4 4 4 3 2 ; * @ $ $ $ $ $ $ $ $ $ $ $ $ $ $ $ $ ",
"$ $ $ $ $ $ $ $ $ $ $ $ $ $ @ % - 2 4 4 4 4 4 4 4 4 4 4 4 4 4 4 4 4 4 4 4 4 4 4 4 4 4 4 4 j < = @ $ $ $ $ $ $ $ $ $ $ $ $ $ $ $ ",
"$ $ $ $ $ $ $ $ $ $ $ $ $ $ % - 2 3 4 4 4 4 4 4 4 4 4 4 4 4 4 4 4 4 4 4 4 4 4 4 4 4 4 4 4 4 3 2 = @ $ $ $ $ $ $ $ $ $ $ $ $ $ $ ",
"$ $ $ $ $ $ $ $ $ $ $ $ $ @ = < 3 4 4 4 4 4 4 4 4 4 4 4 4 4 4 4 4 4 4 4 4 4 4 4 4 4 4 4 4 4 4 4 2 = @ $ $ $ $ $ $ $ $ $ t $ $ $ ",
"$ ^ $ $ $ $ $ $ $ $ $ $ @ * < 3 4 4 4 4 4 4 4 4 4 4 4 4 4 4 4 4 4 4 4 4 4 4 4 4 4 4 4 4 4 4 4 4 4 < * $ $ $ $ $ $ $ $ $ $ $ $ $ ",
"$ $ $ $ $ $ $ $ $ $ $ $ @ - 2 4 4 4 4 4 4 4 4 4 4 4 4 3 3 2 2 3 6 3 4 4 4 4 4 4 4 4 4 4 4 4 4 4 4 3 = u $ $ $ $ $ $ $ $ $ $ $ $ ",
"$ $ $ u $ $ $ $ $ $ $ $ % < 3 4 4 4 4 4 4 4 4 4 4 3 2 ; - > > , , 1 5 2 3 4 4 4 4 4 4 4 4 4 4 4 4 3 - @ $ $ $ $ $ $ $ $ $ $ $ $ ",
"$ $ $ $ $ $ $ $ $ $ $ @ & 2 4 4 4 4 4 4 4 4 4 4 4 2 = % % % % % % * 7 7 ; 2 4 4 4 4 4 4 4 4 4 4 4 4 ; @ $ $ $ $ $ $ $ $ $ $ $ $ ",
"$ $ $ $ $ $ $ $ $ $ $ @ - 3 4 4 4 4 4 4 4 4 4 4 2 - @ @ $ $ $ $ $ $ $ % > - 3 4 4 4 4 4 4 4 4 4 4 4 < # $ $ $ $ $ $ $ $ $ $ $ $ ",
"$ $ $ $ $ $ $ $ $ $ $ @ - 3 4 4 4 4 4 4 4 4 4 4 < # $ $ $ $ $ $ $ $ $ $ @ * ; 4 4 4 4 4 4 4 4 4 4 4 2 & $ $ $ $ $ $ $ $ $ $ $ $ ",
"$ $ $ $ $ $ $ $ $ $ $ @ ; 4 4 4 4 4 4 4 4 4 4 3 - @ $ $ $ $ $ $ $ $ $ $ $ % - 3 4 4 4 4 4 4 4 4 4 4 3 = @ $ $ $ $ $ $ $ $ $ $ $ ",
"$ $ $ $ $ $ $ $ $ $ $ @ - 3 4 4 4 4 4 4 4 4 4 2 = @ $ $ $ $ $ $ $ $ $ $ $ @ = 2 4 4 4 4 4 4 4 4 4 4 4 ; @ $ $ $ $ $ $ $ $ $ $ $ ",
"$ $ $ $ $ $ $ $ $ $ $ @ - 4 4 4 4 4 4 4 4 3 3 2 & @ $ $ $ $ $ $ $ $ $ $ $ @ = 2 4 4 4 4 4 4 4 4 4 4 4 ; ~ $ $ $ $ $ $ $ $ $ $ $ ",
"$ $ $ $ $ $ $ $ $ $ $ @ - 3 4 4 4 4 4 4 4 3 3 < & @ $ $ $ $ $ $ $ $ $ $ $ @ = 3 4 4 4 4 4 4 9 4 4 4 4 < # $ $ $ $ $ t $ $ $ $ $ ",
"$ $ $ $ $ $ $ $ $ $ $ @ - 4 4 4 4 4 4 4 4 3 3 < & $ $ $ $ $ $ $ $ $ $ $ ^ @ = 3 3 3 3 3 4 4 4 4 4 4 4 < # $ $ $ $ $ $ $ $ $ $ $ ",
"$ $ $ $ $ $ $ $ $ $ $ @ - 4 4 4 4 4 4 4 3 3 3 < # $ $ $ $ $ $ $ $ $ $ $ $ @ - 3 3 3 3 3 3 4 4 9 4 4 4 < # $ $ $ $ $ $ $ $ $ $ $ ",
"$ $ $ $ $ $ $ $ $ $ $ @ ; 4 4 4 4 4 4 4 3 3 3 < # $ $ $ $ $ $ $ $ $ $ $ $ @ - 3 3 3 3 3 3 3 4 9 4 4 4 < # $ $ $ $ $ $ $ $ $ $ $ ",
"$ $ $ $ $ $ $ $ $ $ $ # ; 4 4 4 4 4 4 4 3 3 3 < & $ $ $ $ $ $ $ $ $ $ $ $ @ ; 3 3 3 3 3 3 3 4 9 4 4 4 < # $ $ $ $ $ $ $ $ $ $ $ ",
"$ $ $ $ $ $ $ $ $ $ $ # < 4 4 4 4 4 4 3 3 3 3 3 & @ $ $ $ $ $ $ $ $ $ $ $ @ 8 3 3 3 3 3 3 4 4 4 4 4 4 < # $ $ $ $ $ $ $ $ $ $ $ ",
"$ $ $ $ $ $ $ $ $ $ $ # < 4 4 4 4 4 4 3 3 3 3 3 = @ $ $ $ $ $ $ $ $ $ $ $ @ ; 3 3 3 3 3 3 4 4 4 4 4 4 < % $ $ $ $ $ $ $ $ $ $ $ ",
"$ $ $ $ $ $ $ $ $ $ $ & < 4 4 4 4 4 4 3 3 3 3 3 - # $ $ $ $ $ $ $ $ $ $ $ @ ; 3 3 3 3 3 3 4 4 4 4 4 3 ; % $ $ $ $ $ $ $ $ $ $ $ ",
"$ $ $ $ $ $ $ $ $ $ $ @.< 4 4 4 4 4 4 3 3 3 3 3 ; # $ $ $ $ $ $ $ $ $ $ $ @ ; 3 3 3 3 3 4 4 4 4 4 4 3 - @ $ $ $ $ $ $ $ $ $ $ $ ",
"$ $ $ $ $ $ $ $ $ $ $ * < 4 4 4 4 4 3 3 3 3 3 3 ; # $ $ $ $ $ $ $ $ $ $ $ @ - 3 3 4 4 4 4 4 4 4 4 4 3 - @ $ $ $ $ $ $ $ $ $ $ $ ",
"$ $ $ $ $ $ $ $ $ $ $ * < 4 4 4 4 4 4 3 3 3 3 3 - # $ $ $ $ $ $ $ u $ $ $ t - 3 4 4 4 4 4 4 4 4 4 4 4 ; # $ $ $ $ $ $ $ $ $ $ $ ",
"$ $ $ $ $ $ $ $ $ $ @ & < 4 4 4 4 4 4 4 4 4 3 3 - @ $ $ $ $ $ $ $ $ $ $ $ @ - 3 4 4 4 4 4 4 4 4 4 4 4 < # $ $ $ $ $ $ $ $ $ $ $ ",
"$ $ $ $ $ $ $ $ $ $ $ & < 4 4 4 4 4 4 4 4 4 4 3 - @ $ $ $ $ $ $ $ $ $ $ $ @ - 3 4 4 4 4 4 4 4 4 4 4 4 2 & $ $ $ $ $ $ $ $ $ $ $ ",
"$ $ $ $ $ $ $ $ $ $ $ # < 4 4 4 4 4 4 4 4 4 4 3 - @ $ $ $ $ $ $ $ $ $ $ $ % - 3 4 4 4 4 4 4 4 4 4 4 4 3 = $ $ $ $ $ $ $ $ S $ $ ",
"$ $ $ $ $ $ $ $ $ $ $ # 2 4 4 4 4 4 4 4 4 4 4 3 ; @ $ $ $ $ $ $ $ $ $ $ $ : , 3 4 4 4 4 4 4 4 4 4 4 4 3 = $ $ $ $ $ $ $ $ $ $ $ ",
"$ $ $ $ $ $ $ $ $ $ $ @ 6 4 4 4 4 4 4 4 4 4 4 4 ; % $ $ $ $ $ $ $ $ $ $ $ % , 3 4 4 4 4 4 4 4 4 4 4 4 3 = $ $ $ $ $ $ t $ $ $ $ ",
"$ $ $ $ $ $ $ $ $ $ $ @ 0 4 4 4 4 4 4 4 4 4 4 4 2 = @ $ $ $ $ $ $ $ $ $ $ @ < 4 4 4 4 4 4 4 4 4 4 4 4 3 & $ $ $ $ $ $ $ $ $ $ $ ",
"$ $ $ $ $ $ $ $ $ $ $ $ 6 3 4 4 4 4 4 4 4 4 4 4 3 ; % @ $ $ $ $ $ $ $ $ $ # < 4 4 4 4 4 4 4 4 4 4 4 4 3 & $ $ $ $ $ $ $ $ $ $ $ ",
"$ $ $ $ $ $ $ $ $ $ $ $ e 3 4 4 4 4 4 4 4 4 4 4 4 2 = % @ $ $ $ $ $ $ $ @ = 2 4 4 4 4 4 4 4 4 4 4 4 4 6 > $ $ $ $ $ $ $ $ $ $ $ ",
"$ $ $ $ $ $ $ $ $ $ $ $ n 3 4 4 4 4 4 4 4 4 4 4 4 4 2 - % @ @ @ @ @ @ @ * < 3 4 4 4 4 4 4 4 4 4 4 4 3 g % $ $ $ $ $ $ $ $ $ $ $ ",
"$ $ $ $ $ $ $ $ $ $ $ $ G 3 4 4 4 4 4 4 4 4 4 4 4 4 4 2 ; b = * * * = - < 3 4 4 4 4 4 4 4 4 4 4 4 4 X M $ $ $ $ $ $ $ $ $ $ $ $ ",
"$ $ $ $ $ $ $ $ $ $ $ $ f x 4 4 4 4 4 4 4 4 4 4 4 4 4 4 3 3 2 2 < < 2 3 4 4 4 4 4 4 4 4 4 4 4 4 4 4 q G $ $ $ $ $ $ $ $ $ $ $ $ ",
"$ $ t $ $ $ $ $ $ $ $ $ * P 4 4 4 4 4 4 4 4 4 4 4 4 4 4 4 4 4 4 4 4 4 4 4 4 4 4 4 4 4 4 4 4 4 4 4 4 J i $ $ $ $ $ $ $ $ $ $ $ $ ",
"$ $ $ $ $ $ $ $ $ $ $ $ @ U z 4 4 4 4 4 4 4 4 4 4 4 4 4 4 4 4 4 4 4 4 4 4 4 4 4 4 4 4 4 4 4 4 4 4 a R % $ $ $ $ $ $ $ $ $ $ $ $ ",
"$ $ $ $ $ $ $ $ $ $ $ $ $ k X.q 4 4 4 4 4 4 4 4 4 4 4 4 4 4 4 4 4 4 4 4 4 4 4 4 4 4 4 4 4 4 4 4 X W B + $ $ $ $ $ $ $ $ $ $ $ $ ",
"$ $ $ $ $ $ $ $ $ $ $ $ $ + H X.q 4 4 4 4 4 4 4 4 4 4 4 4 4 4 4 4 4 4 4 4 4 4 4 4 4 4 4 4 4 4 9 T | O $ $ $ $ $ $ $ $ $ $ $ $ $ ",
"$ $ $ $ $ $ $ $ $ $ $ $ $ + % { o.d 4 4 4 4 4 4 4 4 4 4 4 4 4 4 4 4 4 4 4 4 4 4 4 4 4 4 4 4 X Y #.7 + $ $ u $ $ $ $ $ $ $ $ $ $ ",
"$ $ $ $ $ $ $ $ $ $ $ $ $ + + : { :.c 9 9 9 9 9 4 4 4 4 4 4 4 4 4 4 4 4 4 4 4 4 4 4 4 4 4 e ) :.p + $ $ $ $ $ $ $ $ $ S $ $ $ $ ",
"$ $ $ $ $ $ $ $ $ $ $ $ $ $ + + + U 1.` w 3 9 9 9 9 9 4 4 4 4 4 4 4 4 4 4 4 4 4 4 4 4 X C *.%.y O + $ $ $ $ $ $ $ $ $ $ $ $ $ $ ",
"$ $ $ $ $ $ $ $ $ $ $ $ $ $ $ + O + k :.2.E c e 9 9 9 9 9 9 4 4 4 4 4 4 4 4 4 4 9 e m #.2.I > O + + $ $ $ $ $ $ $ $ $ $ $ $ $ $ ",
"$ $ $ $ $ $ $ $ $ $ $ $ $ $ $ $ + O O # U >.4.;.| Z s X o 3 3 4 4 4 4 3 X X r A | >.2.' j . O O + $ $ $ $ $ $ $ $ $ $ $ $ $ $ $ ",
"$ $ $ $ $ $ $ $ $ $ $ / $ $ $ $ $ $ + O O * p ' 2.3.4.4.=.#.O.] Q ! ` [ &.3.3.1.<.K 7 + O O + + $ $ $ $ $ $ $ $ $ $ $ $ $ $ $ $ ",
"$ $ $ $ $ $ $ $ $ $ $ $ $ $ $ $ $ $ $ + O O . . # h V I ( { +.$.&.%.#.+.( U N i . O O O + $ $ $ $ $ $ $ $ $ $ t $ $ $ $ $ $ $ $ ",
"$ $ $ $ $ $ $ $ $ $ $ $ $ $ $ $ $ $ $ $ $ + O O O . O . . . . . . . . . . . . . O O + $ + $ $ $ $ $ $ $ $ $ $ $ $ $ $ $ t $ $ $ ",
"$ $ $ $ $ $ $ $ $ $ $ $ $ $ $ $ $ $ $ $ $ $ + + O + O O O O O O O O O O O O O + + $ $ $ $ $ $ $ $ $ $ $ $ $ $ $ $ $ $ $ $ $ $ $ ",
"$ $ $ $ $ $ $ $ $ $ $ $ $ $ $ $ $ $ $ $ $ $ $ $ $ $ $ $ + + + + + + + + $ $ + $ $ $ $ $ $ $ $ $ $ $ $ $ $ $ $ $ $ $ $ $ $ $ $ $ ",
"$ $ $ $ $ $ $ $ $ $ $ $ $ $ $ $ $ $ $ $ $ $ $ $ $ $ $ $ $ $ $ $ $ $ $ $ $ $ $ $ $ $ $ $ $ $ $ $ $ $ $ $ $ $ $ $ $ $ $ $ $ S $ $ ",
"$ $ $ $ $ $ $ $ $ $ $ $ $ $ $ $ $ $ $ $ $ $ $ $ $ $ $ $ $ $ $ $ $ $ $ $ $ $ $ $ $ $ $ $ $ $ $ $ $ $ $ $ $ $ $ $ $ $ $ $ $ $ $ $ ",
"$ $ $ $ $ $ $ $ $ $ $ $ $ $ $ $ $ $ $ $ $ $ $ $ $ $ $ $ $ $ $ $ $ $ $ $ $ $ $ $ $ $ $ $ $ $ $ $ $ $ $ $ $ $ $ $ $ $ $ $ $ $ $ $ ",
"$ $ $ $ $ $ $ $ $ $ $ $ $ $ $ $ $ $ $ $ $ $ $ $ $ $ $ $ $ $ $ $ $ $ $ $ $ $ $ $ $ $ $ $ $ $ $ $ $ $ $ $ $ $ $ $ $ $ $ $ $ $ $ $ ",
"$ $ $ $ $ $ $ $ $ $ $ $ $ $ $ $ ^ $ $ $ $ $ $ $ $ $ $ $ $ $ $ $ $ $ $ $ $ $ $ $ $ $ $ $ $ $ $ $ $ $ $ $ $ $ $ $ $ $ $ $ $ $ $ $ ",
"                                                                                                                                ",
"                                                                                                                                ",
"                                                                                                                                "
};
