/* XPM */
static char *c99e58160aed4b5c8557105b1b32b47c[] = {
/* columns rows colors chars-per-pixel */
"64 64 72 1 ",
"  c #120E1F",
". c #16121F",
"X c #130F21",
"o c #140F22",
"O c #141020",
"+ c #171226",
"@ c #191623",
"# c #181327",
"$ c #1A1725",
"% c #1F1B26",
"& c #1F1C27",
"* c #181328",
"= c #393525",
"- c #3B3827",
"; c #3F3B26",
": c #37352C",
"> c #38352A",
", c #38352E",
"< c #3D3929",
"1 c #3C392F",
"2 c #20243A",
"3 c #333130",
"4 c #343231",
"5 c #373432",
"6 c #383532",
"7 c #393634",
"8 c #3D3B30",
"9 c #3E3C33",
"0 c #3A3834",
"q c #3C3A36",
"w c #423F33",
"e c #464337",
"r c #494538",
"t c #4B493A",
"y c #4D4B3C",
"u c #4F4D3E",
"i c #504D3E",
"p c #252A43",
"a c #262B44",
"s c #3A4466",
"d c #4C4A41",
"f c #514F40",
"g c #535142",
"h c #555243",
"j c #565345",
"k c #585542",
"l c #5A5747",
"z c #5B5847",
"x c #5C5947",
"c c #575650",
"v c #5D5A50",
"b c #5A5859",
"n c #5E5D60",
"m c #52607D",
"M c #54627F",
"N c #7B7B7D",
"B c #83827E",
"V c #5A6988",
"C c #858481",
"Z c #848386",
"A c gray59",
"S c #989898",
"D c #8695AE",
"F c #8898B1",
"G c #8B9BB4",
"H c #CDCCCD",
"J c #C0CBDC",
"K c #D8D5D1",
"L c #DADADB",
"P c gray97",
"I c #F8F8F7",
"U c #F8F8F8",
/* pixels */
"****************************************************************",
"***J*********s******************************a*******************",
"****************************************************************",
"****************************************************************",
"*********************************o=========X********************",
"******************V**************;;;;;;;;;;;********************",
"********************************+;;;;;;;;;;;********************",
"*******************************#=;;;;;;;;;;;+#******************",
"******************************#+;;;;;;;;;;;;++******************",
"******************************+O;;;;;;;;;;;;++#*****************",
"*****************************#+;;;;;;;;;;;;;+++*****************",
"*****************************+;;;;;;;;;;;;;;+D+*****************",
"****************************+;;;;;;;;;;;;;;;+++*****************",
"************************G*+.;;;;;;;;;;;;;;;;+++*************a***",
"*G*******************###O;;;;;;;;;;;;;;;;;;-+++*****************",
"*******************O;;;;;;;;;;;;;;;;;;;;;;;>+++****s************",
"***s***************=;;;;;;;;;;;;;;;;;;;;;;;>+++*****************",
"******************#3;;;;;;;;;;;;;;;;;;;;;;;:+++*****************",
"*****************#+4;;;;;;;;;;;;;;;;;;;;;;;,+++*****************",
"*****************++5;;;;;;;;;;;;;;;;;;;;;;;,+++*****************",
"*****************++6;;;;;;;;;;;;;;;;;;;;;;;1+++*****************",
"****************#++7;;;;;;;;;;;;;;;;;;;;;;;8+++*****************",
"****************#++0;;;;;;;;;;;;;;;;;;;;;;;9+++*****G***********",
"****************#++q;;;;;;;;;;;;;;;;;;;;;;;w+++***********a*****",
"****************#++bCCCCCCCCCBd;;;;;;;;;;;;w+++*****************",
"****************#++nSSSSSSSSSAc;;;;;;;;;;;;e+++*****************",
"****************#++mOXX       ;;;;;;;;;;;;;e++F*****************",
"*****************++++OXXXXXXX@;;;;;;;;;;;;;r+++**s**************",
"*****************++++++OOOOOo$;;;;;;;;;;;;;r+++*****************",
"******************++++++++++O$;;;;;;;;;;;;;r+++*****************",
"*******************#+++++++++%;;;;;;;;;;;;;t+++*****************",
"***********J****a*****###++++&;;;;;;;;;;;;;y+++*****************",
"**************************#++%;;;;;;;;;;;;;y+++*****************",
"***************************++%;;;;;;;;;;;;;u+++*****************",
"***************************++$;;;;;;;;;;;;;u+++*****************",
"***************************++$;;;;;;;;;;;;;i+++*****************",
"***************************++$;;;;;;;;;;;;;i+++**************V**",
"***************************++$;;;;;;;;;;;;;iK++*****************",
"***************************++$;;;;;;;;;;;;;f+++************a****",
"***************************++$;;;;;;;;;;;;;g+++*****************",
"***************************++$;;;;;;;;;;;;;h++p*****************",
"***************************+++;;;;;;;;;;;;;h+++*****************",
"****************a**********+++;;;;;;;;;;;;;j+++****V************",
"******************V********++m;;;;;;;;;;;;;j+++*****************",
"***************************+++;;;;;;;;;;;;;v+++*****************",
"**a************************+++;;;;;;;;;;;;;l+++*****************",
"***************************+++;;;;;;;;;;;;;l+++*****************",
"***************************+++;;;;;;;;;;;;;l+++*****************",
"***************************+++;;;;;;;;;;;;;x+++*****************",
"***************************+++<;;;;;;;;;;;;z+++******s**********",
"***************************+++;;;;;;;;;;;;;k+++************V****",
"***************************++MHPIIIIIIIIIIUL+++*****************",
"***************************+++NAAAAAAAAAAAAZ+++*****************",
"***************************#+++oXXX    XXXoO+++*****************",
"***********G****************++++OooXXX2ooOO+++#*****************",
"****************************++++++++++++++++++*********a********",
"*****************************++++++++++++++++***************a***",
"******************************#++++++++++++#********************",
"****************************************************************",
"*************************************************************V**",
"****************************************************************",
"****************************************************************",
"****************************************************************",
"****************G***********************************************"
};
