/* XPM */
static char *c5e8d9cdc6354b9fc809a8fc011bcf7bky9csVYpdnXrflCy[] = {
/* columns rows colors chars-per-pixel */
"64 64 107 2 ",
"   c #100C1B",
".  c #120E1F",
"X  c #130E20",
"o  c #140F21",
"O  c #141022",
"+  c #171226",
"@  c #181327",
"#  c #1B1625",
"$  c #1C1725",
"%  c #1E1A27",
"&  c #181328",
"*  c #1B1728",
"=  c #1A1F31",
"-  c #201D2C",
";  c #282427",
":  c #26242E",
">  c #3F3B26",
",  c #2E2D36",
"<  c #20243A",
"1  c #302F37",
"2  c #313038",
"3  c #36353D",
"4  c #38373E",
"5  c #3A393E",
"6  c #3C393D",
"7  c #423F3F",
"8  c #434037",
"9  c #454137",
"0  c #44413B",
"q  c #47453E",
"w  c #49463D",
"e  c #262B44",
"r  c #3F3E43",
"t  c #343D5A",
"y  c #394364",
"u  c #3A4466",
"i  c #424044",
"p  c #4A4740",
"a  c #525045",
"s  c #555344",
"d  c #585548",
"f  c #5B584C",
"g  c #4E4D50",
"h  c #505052",
"j  c #525255",
"k  c #5F5D53",
"l  c #5F5D55",
"z  c #615F56",
"x  c #605E5E",
"c  c #63615A",
"v  c #64635E",
"b  c #68665D",
"n  c #6C695F",
"m  c #5F5E61",
"M  c #4B5873",
"N  c #686764",
"B  c #676668",
"V  c #69696B",
"C  c #6D6C6A",
"Z  c #69686C",
"A  c #707069",
"S  c #717172",
"D  c #757576",
"F  c #787875",
"G  c #777678",
"H  c #7C7C7D",
"J  c #82817A",
"K  c #81807C",
"L  c #84837C",
"P  c #596786",
"I  c #5A6988",
"U  c #848482",
"Y  c #838384",
"T  c #8A8A89",
"R  c #8E8D88",
"E  c #8E8E8E",
"W  c #908E88",
"Q  c #909091",
"!  c #959596",
"~  c #9A9A9A",
"^  c #9D9D9D",
"/  c #8594AC",
"(  c #9F9FA0",
")  c #8B9BB4",
"_  c gray64",
"`  c #A7A6A1",
"'  c #A3A3A5",
"]  c #A4A4A4",
"[  c #A8A7A3",
"{  c #ABABAA",
"}  c #AFAEAF",
"|  c #B3B3B1",
" . c #B4B3B2",
".. c #B3B3B4",
"X. c gray73",
"o. c #BDBDBB",
"O. c #BFBFBC",
"+. c #C1C0BE",
"@. c #C1C1C1",
"#. c #C7C6C4",
"$. c #C8C8C7",
"%. c #C9C9CA",
"&. c #C0CBDC",
"*. c #E3DFDB",
"=. c gray90",
"-. c #F8F7F7",
";. c #F8F8F7",
/* pixels */
"& & & & & & & & & & & & & & & & & & & & & & & & & & & & & & & & & & & & & & & & & & & & & & & & & & & & & & & & & & & & & & & & ",
"& & & &.& & & & & & & & & u & & & & & & & & & & & & & & & & & & & & & & & & & & & & & & e & & & & & & & & & & & & & & & & & & & ",
"& & & & & & & & & & & & & & & & & & & & & & & & & & & & & & & & & & & & & & & & & & & & & & & & & & & & & & & & & & & & & & & & ",
"& & & & & & & & & & & & & & & & & & & & & & & & & & & & & & & & & & & & & & & & & & & & & & & & & & & & & & & & & & & & & & & & ",
"& & & & & & & & & & & & & & & & & & & & & & & & & & & + o X . . . . X o + @ & & & & & & & & & & & & & & & & & & & & & & & & & & ",
"& & & & & & & & & & & & & & & & & & I & & & & + . > > > > > > > > > > > > > =   + + &.& & & & & & & & & & & & & & & & & & & & & ",
"& & & & & & & & & & & & & & & & & & & & & O > > > > > > > > > > > > > > > > > > > > . + & & & & & & & & & & & & & & & & & & & & ",
"& & & & & & & & & & & & & & & & & & & + > > > > > > > > > > > > > > > > > > > > > > > > > & & & & & & & & & & & & & & & & & & & ",
"& & & & & & & & & & & & & & & & & & > > > > > > > > > > > > > > > > > > > > > > > > > > > > & & & & & & & & & & & & & & & & & & ",
"& & & & & & & & & & & & & & & & & > > > > > > > > > > > > > > > > > > > > > > > > > > > > > > @ & & & & & & & & & & & & & & & & ",
"& & & & & & & & & & & & & & & & > > > > > > > > > > > > > > > > > > > > > > > > > > > > > > > > & & & & & & & & & & & & & & & & ",
"& & & & & & & & & & & & & & & $ > > > > > > > > > > > > > > > > > > > > > > > > > > > > > > > > > & & & & & & & & & & & & & & & ",
"& & & & & & & & & & & & & & + > > > > > > > > > > > > > > > > > > > > > > > > > > > > > > > > > > + & & & & & & & & & & & & & & ",
"& & & & & & & & & & & & & @ > > > > > > > > > > > > > > > > > > > > > > > > > > > > > > > > > > > > @ & & & & & & & & & e & & & ",
"& ) & & & & & & & & & & & @ > > > > > > > > > > > > > > > > > > > > > > > > > > > > > > > > > > > > + & & & & & & & & & & & & & ",
"& & & & & & & & & & & & @ + > > > > > > > > > > > > > > C T ^ ~ ^ R V > > > > > > > > > > > > > > > # y & & & & & & & & & & & & ",
"& & & u & & & & & & & & + > > > > > > > > > > > > > > T T j > > > h E U > > > > > > > > > > > > > > > + & & & & & & & & & & & & ",
"& & & & & & & & & & & @ + > > > > > > > > > > > > > F B > > > > > > > S N > > > > > > > > > > > > > > + @ & & & & & & & & & & & ",
"& & & & & & & & & & & + + > > > > > > > > > > > > > S > > > > > > > > > D > > > > > > > > > > > > > > + + & & & & & & & & & & & ",
"& & & & & & & & & & & + + > > > > > > > > > > > > v > > > > > > > > > > > > > > > > > > > > > > > > > + + & & & & & & & & & & & ",
"& & & & & & & & & & @ + $ > > > > > > > > > > > > x > > > # # # # # > > > > > > > > > > > > > > > > > + + & & & & & & & & & & & ",
"& & & & & & & & & & + + $ > > > > > > > > > > > > > > > # + + + + + # > > > > > > > > > > > > > > > > + + @ & & & & & & & & & & ",
"& & & & & & & & & & + + > > > > > > > > > > > > > > > # + + @ @ + + + > > > > > > > > > > > > > > > 7 + / @ & & & & & & & & & & ",
"& & & & & & & & & & + + # l z z z z z z z z z z c > > + + @ & & & + + > > > > > > > > > > > > > > > g + + @ & & & & e & & & & & ",
"& & & & & & & & & & + + - _ ] ] _ ' _ _ _ _ _ ' ^ 3 # + + & & & & + > > > > > > > > > > > > > > > A , + + @ & & & & & & & & & & ",
"& & & & & & & & & & + + + 2 1 , , , , , , , , , , # + + @ & & & & > > > > > > > > > > > > > > > > H + + + @ & & & & & & & & & & ",
"& & & & & & & & & & + + + + O X X X X M X X X o O + + + & & & & > > > > > > > > > > > > > > > > K 4 + + + & & & & & & & & & & & ",
"& & & & & & & & & & @ + + + + O O O O O O O O + + + + + & & @ > > > > > > > > > > > > > > > > k T t + + + & & & & & & & & & & & ",
"& & & & & & & & & & & + + + + + + + + + + + + + + + + & & # > > > > > > > > > > > > > > > > f ` r O + + + & & & & & & & & & & & ",
"& & & & & & & & & & & & + + + + + + + + + + + + + + @ @ > > > > > > > > > > > > > > > > > a ` g o + + + & & & & & & & & & & & & ",
"& & & & & & & & & & & & & & @ @ + + + + + + @ @ @ & # > > > > > > > > > > > > > > > > > c | V O O + + + & & & & & & & & & & & & ",
"& & & & & & & & & & & &.& & & & e & & & & & & & @ > > > > > > > > > > > > > > > > > > J X.m X O + + + @ & & & & & & & & & & & & ",
"& & & & & & & & & & & & & & & & & & & & & & & # > > > > > > > > > > > > > > > > > d  .{ j X O + + + + & & & & & & & & & & & & & ",
"& & & & & & & & & & & & & & & & & & & & & & > > > > > > > > > > > > > > > > > > R o.Q % X O + + + + & & & & & & & & & & & & & & ",
"& & & & & & & & & & & & & & & & & & & & # > > > > > > > > > > > > > > > > > n o...j X X O + + + + & & & & & & & & & & & & & & & ",
"& & & & & & & & & & & & & & & & & & & $ > > > > > > > > > > > > > > > > f [ @.Y . X X O + + + + & & & & & & & & & & & & & & & & ",
"& & & & & & & & & & & & & & & & & & % > > > > > > > > > > > > > > > > W $.( r X X o O + + + + & & & & & & & & & & & & & & I & & ",
"& & & & & & & & & & & & & & & & & ; > > > > > > > > > > > > > > > L +.X.V . X o O + + + *.+ & & & & & & & & & & & & & & & & & & ",
"& & & & & & & & & & & & & & & & % > > > > > > > > > > > > > > b O.%.G : X X O + + + + + @ & & & & & & & & & & & & & & e & & & & ",
"& & & & & & & & & & & & & & & % > > > > > > > > > > > > > s ` #.! 5 . X o O O + + @ @ @ # # # # # # @ & & & & & & & & & & & & & ",
"& & & & & & & & & & & & & & # > > > > > > > > > > > > > > > > > > > > > > > > > > > > > > > > > > > > & & & & & & & & & & & & & ",
"& & & & & & & & & & & & & & > > > > > > > > > > > > > > > > > > > > > > > > > > > > > > > > > > > > > * & & & & & & & & & & & & ",
"& & & & & & & & & & & & & ; > > > > > > > > > > > > > > > > > > > > > > > > > > > > > > > > > > > > 8 P & & & & & & & & & & & & ",
"& & & & & & & & & & & & @ > > > > > > > > > > > > > > > > > > > > > > > > > > > > > > > > > > > > > > # + & & & & & & & & & & & ",
"& & & & & & & & & & & @ # > > > > > > > > > > > > > > > > > > > > > > > > > > > > > > > > > > > > > > # + & & & & & & & & & & & ",
"& & e & & & & & & & & + > > > > > > > > > > > > > > > > > > > > > > > > > > > > > > > > > > > > > > 0 # + @ & & & & & & & & & & ",
"& & & & & & & & & & @ + > > > > > > > > > > > > > > > > > > > > > > > > > > > > > > > > > > > > > > 9 # + @ & & & & & & & & & & ",
"& & & & & & & & & & + # > > > > > > > > > > > > > > > > > > > > > > > > > > > > > > > > > > > > > > q # + + & & & & & & & & & & ",
"& & & & & & & & & & + > > > > > > > > > > > > > > > > > > > > > > > > > > > > > > > > > > > > > > > w # + + & & & & & & & & & & ",
"& & & & & & & & & @ + 6 > > > > > > > > > > > > > > > > > > > > > > > > > > > > > > > > > > > > > > p # + y & & & & & & & & & & ",
"& & & & & & & & & + + i > > > > > > > > > > > > > > > > > > > > > > > > > > > > > > > > > > > > > > w # + + & & & & & I & & & & ",
"& & & & & & & & & + + 2 =.-.;.;.;.;.;.;.;.;.;.;.;.;.;.;.;.;.;.;.;.;.;.;.;.;.;.;.;.;.;.;.;.;.;.;.;.;.} # + + & & & & & & & & & & ",
"& & & & & & & & & + + * T ! ! ! ! ! ! ! ! ! ! ! ! ! ! ! ! ! ! ! ! ! ! ! ! ! ! ! ! ! ! ! ! ! ! ! ! ! Z + + + & & & & & & & & & & ",
"& & & & & & & & & + + + O o X X . . . . . . . . . . . . . . . . . . . . . . . . . . . . . . X X X O + + + @ & & & & & & & & & & ",
"& & & & & & & & & @ + / + O O o o X X X X X X X X X X X X X X X X X X X X X < X X X X X X X o o O + + + + & & & & & & & & & & & ",
"& & & & & & & & & & + + + + + + + + + + + + + + + + + + + + + + + + + + + + + + + + + + + + + + + + + + + & & e & & & & & & & & ",
"& & & & & & & & & & & + + + + + + + + + + + + + + + + + + + + + + + + + + + + + + + + + + + + + + + + + & & & & & & & & e & & & ",
"& & & & & & & & & & & & @ + + + + + + + + + + + + + + + + + + + + + + + + + + + + + + + + + + + + + @ & & & & & & & & & & & & & ",
"& & & & & & & & & & & & & & & & & & & & & & & & & & & & & & & & & & & & & & & & & & & & & & & & & & & & & & & & & & & & & & & & ",
"& & & & & & & & & & & & & & & & & & & & & & & & & & & & & & & & & & & & & & & & & & & & & & & & & & & & & & & & & & & & & I & & ",
"& & & & & & & & & & & & & & & & & & & & & & & & & & & & & & & & & & & & & & & & & & & & & & & & & & & & & & & & & & & & & & & & ",
"& & & & & & & & & & & & & & & & & & & & & & & & & & & & & & & & & & & & & & & & & & & & & & & & & & & & & & & & & & & & & & & & ",
"& & & & & & & & & & & & & & & & & & & & & & & & & & & & & & & & & & & & & & & & & & & & & & & & & & & & & & & & & & & & & & & & ",
"& & & & & & & & & & & & & & & & ) & & & & & & & & & & & & & & & & & & & & & & & & & & & & & & & & & & & & & & & & & & & & & & & "
};
