/* XPM */
static char *_41389229a6c4111c8d862cbd6bfd5dctLf4UvfjWEcV2qg6[] = {
/* columns rows colors chars-per-pixel */
"64 64 117 2 ",
"   c #120E1F",
".  c #1C181F",
"X  c #130F21",
"o  c #161125",
"O  c #191524",
"+  c #1C1827",
"@  c #1C1828",
"#  c #211F2A",
"$  c #242025",
"%  c #2A2626",
"&  c #2F2C27",
"*  c #24222B",
"=  c #29272F",
"-  c #302C25",
";  c #302D29",
":  c #343026",
">  c #383425",
",  c #3F3B26",
"<  c #37362E",
"1  c #383529",
"2  c #3F3C2E",
"3  c #2C2A33",
"4  c #21263C",
"5  c #312F37",
"6  c #35333A",
"7  c #38373F",
"8  c #403C27",
"9  c #413D28",
"0  c #413E35",
"q  c #45422D",
"w  c #464333",
"e  c #4B4634",
"r  c #4C4836",
"t  c #44433D",
"y  c #4C4A3B",
"u  c #514E3E",
"i  c #262B44",
"p  c #3C3B41",
"a  c #2E3653",
"s  c #394365",
"d  c #4A494D",
"f  c #514E41",
"g  c #565342",
"h  c #52514D",
"j  c #595749",
"k  c #5B584B",
"l  c #4E4E52",
"z  c #595753",
"x  c #5D5B53",
"c  c #5B5A5B",
"v  c #615E52",
"b  c #68665C",
"n  c #5F5F61",
"m  c #615F62",
"M  c #53617E",
"N  c #636365",
"B  c #6C6A66",
"V  c #676668",
"C  c #68676A",
"Z  c #6C6B6C",
"A  c #75736D",
"S  c #787568",
"D  c #7A796F",
"F  c #747374",
"G  c #7A7975",
"H  c #787779",
"J  c #7B7B7C",
"K  c #82817A",
"L  c #89877D",
"P  c #8B8A7F",
"I  c #596887",
"U  c #5A6988",
"Y  c #6C788C",
"T  c #7F7E80",
"R  c #858485",
"E  c #8B8A85",
"W  c #878788",
"Q  c #8C8C8A",
"!  c #93928B",
"~  c #939393",
"^  c #989796",
"/  c #9B9993",
"(  c #979798",
")  c #9E9E9F",
"_  c #A6A49E",
"`  c #8B9BB4",
"'  c #A2A2A1",
"]  c #ACABA5",
"[  c #A7A7A8",
"{  c #ACACAD",
"}  c #B0AEA6",
"|  c #B5B4AE",
" . c #B5B5B5",
".. c #BFBEB7",
"X. c #BCBCBB",
"o. c #C2C1BB",
"O. c #BBC6D6",
"+. c #C4C4C3",
"@. c #CBCBC7",
"#. c #CDCDCB",
"$. c #D0D0CF",
"%. c #C0CBDC",
"&. c LightGray",
"*. c #D5D4D0",
"=. c #D5D5D5",
"-. c #DADAD7",
";. c #DFDFDF",
":. c #E1E1DF",
">. c #E2E2E0",
",. c #E4E4E1",
"<. c #E6E6E6",
"1. c #EAEAEA",
"2. c #EDEDEC",
"3. c #F0F0EF",
"4. c #F1F1F1",
"5. c gray97",
"6. c #F9F9F8",
/* pixels */
"@ @ @ @ @ @ @ @ @ @ @ @ @ @ @ @ @ @ @ @ @ @ @ @ @ @ @ @ @ @ @ @ @ @ @ @ @ @ @ @ @ @ @ @ @ @ @ @ @ @ @ @ @ @ @ @ @ @ @ @ @ @ @ @ ",
"@ @ @ %.@ @ @ @ @ @ @ @ @ s @ @ @ @ @ @ @ @ @ @ @ @ @ @ @ @ @ @ @ @ @ @ @ @ @ @ @ @ @ @ i @ @ @ @ @ @ @ @ @ @ @ @ @ @ @ @ @ @ @ ",
"@ @ @ @ @ @ @ @ @ @ @ @ @ @ @ @ @ @ @ @ @ @ @ @ @ @ @ @ @ @ @ @ @ @ @ @ @ @ @ @ @ @ @ @ @ @ @ @ @ @ @ @ @ @ @ @ @ @ @ @ @ @ @ @ ",
"@ @ @ @ @ @ @ @ @ @ @ @ @ @ @ @ @ @ @ @ @ @ @ @ @ @ @ @ + + + o o + + + + @ @ @ @ @ @ @ @ @ @ @ @ @ @ @ @ @ @ @ @ @ @ @ @ @ @ @ ",
"@ @ @ @ @ @ @ @ @ @ @ @ @ @ @ @ @ @ @ @ @ @ @ @ @ o   , , , , , , , , , , ,   o @ @ @ @ @ @ @ @ @ @ @ @ @ @ @ @ @ @ @ @ @ @ @ @ ",
"@ @ @ @ @ @ @ @ @ @ @ @ @ @ @ @ @ @ U @ @ + o . , , , , , , , , , , , , , , , , , X O.@ @ @ @ @ @ @ @ @ @ @ @ @ @ @ @ @ @ @ @ @ ",
"@ @ @ @ @ @ @ @ @ @ @ @ @ @ @ @ @ @ @ @ o , , , , , , , , , , , , , , , , , , , , , , $ + @ @ @ @ @ @ @ @ @ @ @ @ @ @ @ @ @ @ @ ",
"@ @ @ @ @ @ @ @ @ @ @ @ @ @ @ @ @ @ o , , , , , , , , , , , , , , , , , , , , , , , , , , o @ @ @ @ @ @ @ @ @ @ @ @ @ @ @ @ @ @ ",
"@ @ @ @ @ @ @ @ @ @ @ @ @ @ @ @ @ o , , , , , , , , , , , , , , , , , , , , , , , , , , , , o @ @ @ @ @ @ @ @ @ @ @ @ @ @ @ @ @ ",
"@ @ @ @ @ @ @ @ @ @ @ @ @ @ @ @ o , , , , , , , , , , , , , , , , , , , , , , , , , , , , , , o @ @ @ @ @ @ @ @ @ @ @ @ @ @ @ @ ",
"@ @ @ @ @ @ @ @ @ @ @ @ @ @ @ @ , , , , , , , , , , , , , , , , , , , , , , , , , , , , , , , , @ @ @ @ @ @ @ @ @ @ @ @ @ @ @ @ ",
"@ @ @ @ @ @ @ @ @ @ @ @ @ @ @ o , , , , , , , , , , , , , , , , , , , , , , , , , , , , , , , , o + @ @ @ @ @ @ @ @ @ @ @ @ @ @ ",
"@ @ @ @ @ @ @ @ @ @ @ @ @ @ o , , , , , , , , , , , , , , , , , , , , , , , , , , , , , , , , , , o @ @ @ @ @ @ @ @ @ @ @ @ @ @ ",
"@ @ @ @ @ @ @ @ @ @ @ @ @ + o , , , , , , , , , , , , , , , , , , , , , , , , , , , , , , , , , , o + @ @ @ @ @ @ @ @ @ i @ @ @ ",
"@ ` @ @ @ @ @ @ @ @ @ @ @ + , , , , , , , , , , , , , , , z J Q W F t , , , , , , , , , , , , , , , o @ @ @ @ @ @ @ @ @ @ @ @ @ ",
"@ @ @ @ @ @ @ @ @ @ @ @ + o , , , , , , , , , , , , , h ~ Q J H J J ~ R , , , , , , , , , , , , , , o s @ @ @ @ @ @ @ @ @ @ @ @ ",
"@ @ @ s @ @ @ @ @ @ @ @ o o , , , , , , , , , , , , t ~ l # o     O = C A , , , , , , , , , , , , , o o @ @ @ @ @ @ @ @ @ @ @ @ ",
"@ @ @ @ @ @ @ @ @ @ @ + o > , , , , , , , , , , , , Z p   X X X X X X   C , , , , , , , , , , , , , o o @ @ @ @ @ @ @ @ @ @ @ @ ",
"@ @ @ @ @ @ @ @ @ @ @ + o ; , , , , , , , , , , , < c X X X o o o X X X > , , , , , , , , , , , , 0 o o + @ @ @ @ @ @ @ @ @ @ @ ",
"@ @ @ @ @ @ @ @ @ @ @ + o d ~ ^ ^ ^ ^ ^ ^ ^ ^ ^ ^ ~ p X o o o o o o o X o , , , , , , , , , , , , z o o + @ @ @ @ @ @ @ @ @ @ @ ",
"@ @ @ @ @ @ @ @ @ @ @ o o 7 C C V V N N N N N V V N X o o o o o o o o o , , , , , , , , , , , , , n o o + @ @ @ @ @ @ @ @ @ @ @ ",
"@ @ @ @ @ @ @ @ @ @ @ + o o o X X X X       X X X X o o o o o o o o o , , , , , , , , , , , , , B 6 o o + @ @ @ @ @ @ @ @ @ @ @ ",
"@ @ @ @ @ @ @ @ @ @ @ + o o o o o X X X X X X X o o o o o % - : > , , , , , , , , , , , , , , , H # o o ` @ @ @ @ @ @ @ @ @ @ @ ",
"@ @ @ @ @ @ @ @ @ @ @ @ o o o o o o o o o o o o o o o o + , , , , , , , , , , , , , , , , , , Q m o o o + @ @ @ @ @ i @ @ @ @ @ ",
"@ @ @ @ @ @ @ @ @ @ @ @ + o o o o o o o o o o o o o o o + , , , , , , , , , , , , , , , , , Q R X o o o @ @ @ @ @ @ @ @ @ @ @ @ ",
"@ @ @ @ @ @ @ @ @ @ @ @ @ @ + o o o o o o o o o o + + o + , , , , , , , , , , , , , , , w ' Q * o o o + @ @ @ @ @ @ @ @ @ @ @ @ ",
"@ @ @ @ @ @ @ @ @ @ @ @ @ @ @ @ @ @ @ I @ @ @ @ @ @ + o o , , , , , , , , , , , , , , , 2 Z Y X o o o + @ @ @ @ @ @ @ @ @ @ @ @ ",
"@ @ @ @ @ @ @ @ @ @ @ @ @ @ @ @ @ @ @ @ @ @ @ @ @ @ + o o , , , , , , , , , , , , , , , , , , : o s o @ @ @ @ @ @ @ @ @ @ @ @ @ ",
"@ @ @ @ @ @ @ @ @ @ @ @ @ @ @ @ @ @ @ @ @ @ @ @ @ @ + o o , , , , , , , , , , , , , , , , , , , , o + @ @ @ @ @ @ @ @ @ @ @ @ @ ",
"@ @ @ @ @ @ @ @ @ @ @ @ @ @ @ @ @ @ @ @ @ @ @ @ @ @ o o o , , , , , , , , , , , , , , , , , , , , : + @ @ @ @ @ @ @ @ @ @ @ @ @ ",
"@ @ @ @ @ @ @ @ @ @ @ @ @ @ @ @ @ @ @ @ @ @ @ @ @ @ o o o , , , , , , , , , , , , , , , , , , , , , o @ @ @ @ @ @ @ @ @ @ @ @ @ ",
"@ @ @ @ @ @ @ @ @ @ @ %.@ @ @ @ i @ @ @ @ @ @ @ @ @ o o o X.+.X.| / G y , , , , , , , , , , , , , , , + @ @ @ @ @ @ @ @ @ @ @ @ ",
"@ @ @ @ @ @ @ @ @ @ @ @ @ @ @ @ @ @ @ @ @ @ @ @ @ @ o o o N Z F H ~ X...x , , , , , , , , , , , , , , o @ @ @ @ @ @ @ @ @ @ @ @ ",
"@ @ @ @ @ @ @ @ @ @ @ @ @ @ @ @ @ @ @ @ @ @ @ @ @ @ + o o o X X   a   F  .w , , , , , , , , , , , , , + + @ @ @ @ @ @ @ @ @ @ @ ",
"@ @ @ @ @ @ @ @ @ @ @ @ , , , , , , , , , , , , , % + o o o o X X X X   c K , , , , , , , , , , , , 0 $ o @ @ @ @ @ @ @ @ @ @ @ ",
"@ @ @ @ @ @ @ @ @ @ @ @ , , , , , , , , , , , , , > + o o o o o o o X X # x , , , , , , , , , , , , w $ o + @ @ @ @ @ @ @ @ @ @ ",
"@ @ @ @ @ @ @ @ @ @ @ + , , , , , , , , , , , , , , + + o o o o o o o o X 1 , , , , , , , , , , , , w $ o + @ @ @ @ @ @ @ U @ @ ",
"@ @ @ @ @ @ @ @ @ @ + * y , , , , , , , , , , , , , + + + + o o o o o o o , , , , , , , , , , , , , u % o + @ @ @ @ @ @ @ @ @ @ ",
"@ @ @ @ @ @ @ @ @ @ o o b , , , , , , , , , , , , , , + + @ @ @ + o o o > , , , , , , , , , , , , , v : o o @ @ @ @ @ i @ @ @ @ ",
"@ @ @ @ @ @ @ @ @ + o o K , , , , , , , , , , , , , , + + @ @ @ @ + o , , , , , , , , , , , , , , , B : o o @ @ @ @ @ @ @ @ @ @ ",
"@ @ @ @ @ @ @ @ @ + o o Z y , , , , , , , , , , , , , , , > * @ & > , , , , , , , , , , , , , , , , B : o o @ @ @ @ @ @ @ @ @ @ ",
"@ @ @ @ @ @ @ @ @ + o o 3 ! , , , , , , , , , , , , , , , , , , , , , , , , , , , , , , , , , , , f Z o o o @ @ @ @ @ @ @ @ @ @ ",
"@ @ @ @ @ @ @ @ @ + o o @ Q r , , , , , , , , , , , , , , , , , , , , , , , , , , , , , , , , , , S C M o + @ @ @ @ @ @ @ @ @ @ ",
"@ @ @ @ @ @ @ @ @ + o o o R D , , , , , , , , , , , , , , , , , , , , , , , , , , , , , , , , , e X.o o o + @ @ @ @ @ @ @ @ @ @ ",
"@ @ @ @ @ @ @ @ @ @ o o o @ +.v , , , , , , , , , , , , , , , , , , , , , , , , , , , , , , , 9 ] V o o o + @ @ @ @ @ @ @ @ @ @ ",
"@ @ i @ @ @ @ @ @ @ + o o o N ..y , , , , , , , , , , , , , , , , , , , , , , , , , , , , , , E  .@ o o o @ @ @ @ @ @ @ @ @ @ @ ",
"@ @ @ @ @ @ @ @ @ @ + o o o O ' ..r , , , , , , , , , , , , , , , , , , , , , , , , , , , , / $.p o o o o @ @ @ @ @ @ @ @ @ @ @ ",
"@ @ @ @ @ @ @ @ @ @ @ o o o o @ { @.j 8 8 8 8 8 8 8 8 8 8 8 8 8 8 8 8 8 8 8 8 8 8 8 8 8 u | =.l X o o o + @ @ @ @ @ @ @ @ @ @ @ ",
"@ @ @ @ @ @ @ @ @ @ @ + o o o o * { :.! , 8 8 8 8 8 8 8 8 8 8 8 8 8 8 8 8 8 8 8 8 8 8 ! -.+.d X o o o o @ @ @ @ @ @ @ @ @ @ @ @ ",
"@ @ @ @ @ @ @ @ @ @ @ @ + o o o X + J <.-.K g 9 9 9 9 9 9 9 9 9 9 9 9 9 9 9 9 q k L -.2.( * X o o o o + @ s @ @ @ @ @ @ @ @ @ @ ",
"@ @ @ @ @ @ @ @ @ @ @ @ @ o o o o X X d { 2.>.+.P g , , , 8 8 8 , , , , e S _ #.<.<.[ d X X o o o o + @ @ @ @ @ @ @ @ U @ @ @ @ ",
"@ @ @ @ @ @ @ @ @ @ @ @ @ + o o o o X X o 3 ~ ;.2.5.3.*...| } ] | o.#.,.6.4.1.&.T = o X X o o o o + @ @ @ @ @ @ @ @ @ @ @ @ @ @ ",
"@ @ @ @ @ @ @ @ @ @ @ @ @ @ + o o o o o X X X   l J ( [ X.+.@.#.+. .{ ) W N 5   X X X o o o o o + @ @ @ @ @ @ @ @ @ @ @ @ @ @ @ ",
"@ @ @ @ @ @ @ @ @ @ @ @ @ @ @ + o o o o o o X X X X                     X X X X X o o o o o o + @ @ @ @ @ @ @ @ @ @ @ @ @ @ @ @ ",
"@ @ @ @ @ @ @ @ @ @ @ ` @ @ @ @ @ + o o o o o o o X X X X X X X X X X X X o 4 o o o o o o o + @ @ @ @ @ @ @ @ @ @ @ @ @ @ @ @ @ ",
"@ @ @ @ @ @ @ @ @ @ @ @ @ @ @ @ @ @ + o o o o o o o o o o o o o o o o o o o o o o o o o + @ @ @ @ @ @ @ @ @ @ i @ @ @ @ @ @ @ @ ",
"@ @ @ @ @ @ @ @ @ @ @ @ @ @ @ @ @ @ @ @ + o o o o o o o o o o o o o o o o o o o o + + @ @ @ @ @ @ @ @ @ @ @ @ @ @ @ @ @ i @ @ @ ",
"@ @ @ @ @ @ @ @ @ @ @ @ @ @ @ @ @ @ @ @ @ @ @ + + o o o o o o o o o o o o o + + @ @ @ @ @ @ @ @ @ @ @ @ @ @ @ @ @ @ @ @ @ @ @ @ ",
"@ @ @ @ @ @ @ @ @ @ @ @ @ @ @ @ @ @ @ @ @ @ @ @ @ @ @ @ + + + + + + @ @ @ @ @ @ @ @ @ @ @ @ @ @ @ @ @ @ @ @ @ @ @ @ @ @ @ @ @ @ ",
"@ @ @ @ @ @ @ @ @ @ @ @ @ @ @ @ @ @ @ @ @ @ @ @ @ @ @ @ @ @ @ @ @ @ @ @ @ @ @ @ @ @ @ @ @ @ @ @ @ @ @ @ @ @ @ @ @ @ @ @ @ U @ @ ",
"@ @ @ @ @ @ @ @ @ @ @ @ @ @ @ @ @ @ @ @ @ @ @ @ @ @ @ @ @ @ @ @ @ @ @ @ @ @ @ @ @ @ @ @ @ @ @ @ @ @ @ @ @ @ @ @ @ @ @ @ @ @ @ @ ",
"@ @ @ @ @ @ @ @ @ @ @ @ @ @ @ @ @ @ @ @ @ @ @ @ @ @ @ @ @ @ @ @ @ @ @ @ @ @ @ @ @ @ @ @ @ @ @ @ @ @ @ @ @ @ @ @ @ @ @ @ @ @ @ @ ",
"@ @ @ @ @ @ @ @ @ @ @ @ @ @ @ @ @ @ @ @ @ @ @ @ @ @ @ @ @ @ @ @ @ @ @ @ @ @ @ @ @ @ @ @ @ @ @ @ @ @ @ @ @ @ @ @ @ @ @ @ @ @ @ @ ",
"@ @ @ @ @ @ @ @ @ @ @ @ @ @ @ @ ` @ @ @ @ @ @ @ @ @ @ @ @ @ @ @ @ @ @ @ @ @ @ @ @ @ @ @ @ @ @ @ @ @ @ @ @ @ @ @ @ @ @ @ @ @ @ @ "
};
