/* XPM */
static char *a173ef9e40dc4619b0cdf9eb83a178d78aneDuukGUCWQEH1[] = {
/* columns rows colors chars-per-pixel */
"64 64 89 1 ",
"  c #1C190D",
". c #120E1F",
"X c #211E1E",
"o c #130F21",
"O c #140F22",
"+ c #151023",
"@ c #171522",
"# c #171227",
"$ c #171424",
"% c #1A1623",
"& c #181327",
"* c #1B1626",
"= c #1D1923",
"- c #1D1B27",
"; c #181328",
": c #1B1728",
"> c #211E23",
", c #282423",
"< c #22202B",
"1 c #3F3B26",
"2 c #2B2932",
"3 c #20243A",
"4 c #21283D",
"5 c #393632",
"6 c #333138",
"7 c #36353D",
"8 c #38363C",
"9 c #39383E",
"0 c #403E3A",
"q c #45443C",
"w c #4E4B39",
"e c #514D3C",
"r c #53503E",
"t c #262B44",
"y c #3B3A40",
"u c #3C3B41",
"i c #3E3D43",
"p c #403F45",
"a c #3A4365",
"s c #3A4466",
"d c #414044",
"f c #434248",
"g c #555240",
"h c #585543",
"j c #595645",
"k c #505053",
"l c #595852",
"z c #626159",
"x c #65645C",
"c c #5F5E61",
"v c #576075",
"b c #626164",
"n c #6B6A66",
"m c #717066",
"M c #75736B",
"N c #73726D",
"B c #78766D",
"V c #6F6F70",
"C c #747476",
"Z c #828076",
"A c #828179",
"S c #848279",
"D c #89877E",
"F c #596887",
"G c #5A6988",
"H c #777E89",
"J c gray51",
"K c #8D8C87",
"L c #878789",
"P c #8C8C89",
"I c #8D8D8D",
"U c #939394",
"Y c #959596",
"T c #999898",
"R c #A1A19E",
"E c #808FA7",
"W c #8A9AB3",
"Q c #8B9BB4",
"! c #A1A0A0",
"~ c #AFB9C8",
"^ c #B8BAC0",
"/ c gray77",
"( c #CECECE",
") c #C0CBDC",
"_ c gray82",
"` c #E2E2E1",
"' c #F4F4F4",
"] c #F8F7F7",
"[ c #F8F8F7",
/* pixels */
";;;;;;;;;;;;;;;;;;;;;;;;;;;;;;;;;;;;;;;;;;;;;;;;;;;;;;;;;;;;;;;;",
";;;);;;;;;;;;s;;;;;;;;;;;;;;;;;;;;;;;;;;;;;;t;;;;;;;;;;;;;;;;;;;",
";;;;;;;;;;;;;;;;;;;;;;;;;;;;;;;;;;;;;;;;;;;;;;;;;;;;;;;;;;;;;;;;",
";;;;;;;;;;;;;;;;;;;;;;;;;;;;;;;;;;;;;;;;;;;;;;;;;;;;;;;;;;;;;;;;",
";;;;;;;;;;;;;;;;;;;;;;;;;;;;;;;;;;;;;;;;;;;;;;;;;;;;;;;;;;;;;;;;",
";;;;;;;;;;;;;;;;;;G;;;;;;;;;;;;;#111114111H111;;;;;;;;;;;;;;;;;;",
";;;;;;;;;;;;;;;;;;;;;;;;;;;;;;;#111111111111 1;;;;;;;;;;;;;;;;;;",
";;;;;;;;;;;;;;;;;;;;;;;;;;;;;;&111111111111111;;;;;;;;;;;;;;;;;;",
";;;;;;;;;;;;;;;;;;;;;;;;;;;;;&1111111111111111##;;;;;;;;;;;;;;;;",
";;;;;;;;;;;;;;;;;;;;;;;;;;;;;11111111111111111##&;;;;;;;;;;;;;;;",
";;;;;;;;;;;;;;;;;;;;;;;;;;;;%11111111111111111##&;;;;;;;;;;;;;;;",
";;;;;;;;;;;;;;;;;;;;;;;;;;;#111111111111111111###;;;;;;;;;;;;;;;",
";;;;;;;;;;;;;;;;;;;;;;;;;;#1111111111111111111###;;;;;;;;;;;;;;;",
";;;;;;;;;;;;;;;;;;;;;;;;W&11111111111111111111###;;;;;;;;;;;t;;;",
";Q;;;;;;;;;;;;;;;;;;;;;;;111111111111111111111###;;;;;;;;;;;;;;;",
";;;;;;;;;;;;;;;;;;;;;;;;1111111111111111111111###;;s;;;;;;;;;;;;",
";;;s;;;;;;;;;;;;;;;;;;;#1111111111111111111111+##;;;;;;;;;;;;;;;",
";;;;;;;;;;;;;;;;;;;;;;#11111111111111111111111+##;;;;;;;;;;;;;;;",
";;;;;;;;;;;;;;;;;;;;;#1111111111J1111111111111###;;;;;;;;;;;;;;;",
";;;;;;;;;;;;;;;;;;;;#1111111111nV1111111111111###;;;;;;;;;;;;;;;",
";;;;;;;;;;;;;;;;;;;&1111111111lI-1111111111111###;;;;;;;;;;;;;;;",
";;;;;;;;;;;;;;;;;;;1111111111qI111111111111111###;;;;;;;;;;;;;;;",
";;;;;;;;;;;;;;;;;;=1111111111Ik111111111111111###;;;Q;;;;;;;;;;;",
";;;;;;;;;;;;;;;;;&1111111111Pb1111111111111111###;;;;;;;;;t;;;;;",
";;;;;;;;;;;;;;;;&1111111111NJ>1111111111111111###;;;;;;;;;;;;;;;",
";;;;;;;;;;;;;;;&1111111111zT<,>%>1111111111111###;;;;;;;;;;;;;;;",
";;;;;;;;;;;;;;&11111111111T6,%##%1111111111111E##;;;;;;;;;;;;;;;",
";;;;;;;;;;;;;;11111111111Rc>%###%1111111111111###a;;;;;;;;;;;;;;",
";;;;;;;;;;;;;-1111111111KC,%####%1111111111111###;;;;;;;;;;;;;;;",
";;;;;;;;;;;;*1111111111MY->#####%1111111111111###;;;;;;;;;;;;;;;",
";;;;;;;;;;;*1111111111x!2O+######1111111111111###;;;;;;;;;;;;;;;",
";;;;;;;;;;&~1111111111m0XXXXXXXXX1111111111111XX>>>=;;;;;;;;;;;;",
";;;;;;;;;;#11111111111111111111111111111111111111111;;;;;;;;;;;;",
";;;;;;;;;&#11111111111111111111111111111111111111111;;;;;;;;;;;;",
";;;;;;;;;##11111111111111111111111111111111111111111#&;;;;;;;;;;",
";;;;;;;;;##11111111111111111111111111111111111111111##;;;;;;;;;;",
";;;;;;;;;##11111111111111111111111111111111111111111##&;;;;;;G;;",
";;;;;;;;;##11111111111111111111111111111111111111111###;;;;;;;;;",
";;;;;;;;;##51111111111111111111111111111111111111111###;;;;t;;;;",
";;;;;;;;;##51111111111111111111111111111111111111111###;;;;;;;;;",
";;;;;;;;;##51111111111111111111111111111111111111111###;;;;;;;;;",
";;;;;;;;;##8ADDDDDDDDDDDDDDDDDDDD1111111111111ZSSSSB###;;;;;;;;;",
";;;;;;;;;##7/____________________1111111111111(____^###;;;;;;;;;",
";;;;;;;;;##*uiuy99v9999999999v9991111111111111diipfu##&;;;;;;;;;",
";;;;;;;;;####+oo....o..oooooo....w111111111111@ooo+###&;;;;;;;;;",
";;t;;;;;;&####++++++++++++++++Oooe111111111111*o++####;;;;;;;;;;",
";;;;;;;;;;#####################++r111111111111$+#####&;;;;;;;;;;",
";;;;;;;;;;;&####################+g111111111111######&;;;;;;;;;;;",
";;;;;;;;;;;;;&&##################h111111111111####&;;;;;;;;;;;;;",
";;;;;;;;;;;;;;;;;;;;;;;;;;;;;&###j111111111111###&&&;s;;;;;;;;;;",
";;;;;;;;;;;;;;;;;;;;;;;;;;;;;;###g111111111111###&&&;;;;;;;G;;;;",
";;;;;;;;;;;;;;;;;;;;;;;;;;;;;F##:`[[[[[[[[[[]'###;&&;;;;;;;;;;;;",
";;;;;;;;;;;;;;;;;;;;;;;;;;;;;;###LYYYYYYYYYYYU###;;;;;;;;;;;;;;;",
";;;;;;;;;;;;;;;;;;;;;;;;;;;;;;###+Ooo......oO+###;;;;;;;;;;;;;;;",
";;;;;;;;;;;Q;;;;;;;;;;;;;;;;;;&###++OO3ooOO++###&;;;;;;;;;;;;;;;",
";;;;;;;;;;;;;;;;;;;;;;;;;;;;;;;#################;;;;;;;t;;;;;;;;",
";;;;;;;;;;;;;;;;;;;;;;;;;;;;;;;;###############;;;;;;;;;;;;;t;;;",
";;;;;;;;;;;;;;;;;;;;;;;;;;;;;;;;;&###########&;;;;;;;;;;;;;;;;;;",
";;;;;;;;;;;;;;;;;;;;;;;;;;;;;;;;;;;&;;;;;;;;;;;;;;;;;;;;;;;;;;;;",
";;;;;;;;;;;;;;;;;;;;;;;;;;;;;;;;;;&&;;;;;;;;;;;;;;;;;;;;;;;;;G;;",
";;;;;;;;;;;;;;;;;;;;;;;;;;;;;;;;;;;;;;;;;;;;;;;;;;;;;;;;;;;;;;;;",
";;;;;;;;;;;;;;;;;;;;;;;;;;;;;;;;;;;;;;;;;;;;;;;;;;;;;;;;;;;;;;;;",
";;;;;;;;;;;;;;;;;;;;;;;;;;;;;;;;;;;;;;;;;;;;;;;;;;;;;;;;;;;;;;;;",
";;;;;;;;;;;;;;;;Q;;;;;;;;;;;;;;;;;;;;;;;;;;;;;;;;;;;;;;;;;;;;;;;"
};
