/* XPM */
static char *_fef55aaf5524511b96f463004230561armgrZ4RaTU9q2uN[] = {
/* columns rows colors chars-per-pixel */
"64 64 113 2 ",
"   c #120E1F",
".  c #19161E",
"X  c #28241F",
"o  c #130F21",
"O  c #161225",
"+  c #181326",
"@  c #1D1A27",
"#  c #181328",
"$  c #1E1B29",
"%  c #201E2A",
"&  c #1E232F",
"*  c #282426",
"=  c #23212C",
"-  c #2A292F",
";  c #3A3626",
":  c #3F3B26",
">  c #292731",
",  c #2F2D35",
"<  c #21263C",
"1  c #302E38",
"2  c #343237",
"3  c #383530",
"4  c #393831",
"5  c #35333A",
"6  c #38363D",
"7  c #3C3B3C",
"8  c #403C27",
"9  c #423E2B",
"0  c #45412D",
"q  c #454130",
"w  c #4A4633",
"e  c #4D4A3B",
"r  c #55513E",
"t  c #262B44",
"y  c #323647",
"u  c #393740",
"i  c #3C3B41",
"p  c #343D5C",
"a  c #3A4466",
"s  c #424147",
"d  c #484640",
"f  c #4F4D44",
"g  c #48474B",
"h  c #4A494C",
"j  c #504D40",
"k  c #565244",
"l  c #52514B",
"z  c #5A5749",
"x  c #5D5A4D",
"c  c #4D4C50",
"v  c #525154",
"b  c #565559",
"n  c #5C5B5C",
"m  c #615E51",
"M  c #605E5B",
"N  c #63604F",
"B  c #636155",
"V  c #676559",
"C  c #6A685E",
"Z  c #52607D",
"A  c #626164",
"S  c #6F6C62",
"D  c #676669",
"F  c #6C6C6E",
"G  c #716F66",
"H  c #747169",
"J  c #78766E",
"K  c #6E6D70",
"L  c #706F72",
"P  c #747475",
"I  c #7C7B76",
"U  c #777779",
"Y  c #7A7A7C",
"T  c #817F78",
"R  c #858277",
"E  c #83827B",
"W  c #5A6988",
"Q  c #7F7F81",
"!  c #828283",
"~  c #908E84",
"^  c #95938E",
"/  c #949495",
"(  c #9C9A93",
")  c #999999",
"_  c #8B9BB4",
"`  c #A6A6A4",
"'  c #ABAAA3",
"]  c #ADACAC",
"[  c #B3B2AD",
"{  c #B3B3B3",
"}  c #B8B7B0",
"|  c #BAB9B6",
" . c #BBBBBB",
".. c #C1C1BD",
"X. c #BDC8D9",
"o. c #C3C3C3",
"O. c #C8C7C4",
"+. c #C9C8C3",
"@. c #C7C7C8",
"#. c #CBCBCB",
"$. c #D2D1CC",
"%. c #C0CBDC",
"&. c #D7D7D2",
"*. c #D7D6D4",
"=. c gray86",
"-. c #DFDEDC",
";. c #E1E1DF",
":. c #E5E5E4",
">. c #E7E6E4",
",. c #EAE9E8",
"<. c #EEEDEC",
"1. c #EEEEEE",
"2. c gray96",
/* pixels */
"# # # # # # # # # # # # # # # # # # # # # # # # # # # # # # # # # # # # # # # # # # # # # # # # # # # # # # # # # # # # # # # # ",
"# # # %.# # # # # # # # # a # # # # # # # # # # # # # # # # # # # # # # # # # # # # # # t # # # # # # # # # # # # # # # # # # # ",
"# # # # # # # # # # # # # # # # # # # # # # # # # # # # # # # # # # # # # # # # # # # # # # # # # # # # # # # # # # # # # # # # ",
"# # # # # # # # # # # # # # # # # # # # # # # # # # # # # # # # # # # # # # # # # # # # # # # # # # # # # # # # # # # # # # # # ",
"# # # # # # # # # # # # # # # # # # O o o o o o o o o o o o o o o o o o o o o o o o o o o o o # # # # # # # # # # # # # # # # # ",
"# # # # # # # # # # # # # # # # # # & : : : : : : : : : : : : : : : : : : : : : : : : : : : : : # # # # # # # # # # # # # # # # ",
"# # # # # # # # # # # # # # # # # # : : : : : : : : : : : : : : : : : : : : : : : : : : : : : : # # # # # # # # # # # # # # # # ",
"# # # # # # # # # # # # # # # # + O : : : : : : : : : : : : : : : : : : : : : : : : : : : : : : + # # # # # # # # # # # # # # # ",
"# # # # # # # # # # # # # # # + # . : : : : : : : : : : : : : : : : : : : : : : : : : : : : : : # # # # # # # # # # # # # # # # ",
"# # # # # # # # # # # # # # # # # : : : : : : : : : : : : : : : : : : : : : : : : : : : : : : : # # # # # # # # # # # # # # # # ",
"# # # # # # # # # # # # # # # # # : : : : : : : : : : : : : : : : : : : : : : : : : : : : : : : # # + # # # # # # # # # # # # # ",
"# # # # # # # # # # # # # # + # # : : : : : : : : : : : : : : : : : : : : : : : : : : : : : : : # # + # # # # # # # # # # # # # ",
"# # # # # # # # # # # # # # # # # : : : : : : : : : : : : : : : : : : : : : : : : : : : : : : : # # # # # # # # # # # # # # # # ",
"# # # # # # # # # # # # # # # # O : : : : : : : : : : : : : : : : : : : : : : : : : : : : : : : # # # # # # # # # # # # t # # # ",
"# _ # # # # # # # # # # # # # # : : : : : : : : : : : : : : : : : : : : : : : : : : : : : : : : # # # + + # # # # # # # # # # # ",
"# # # # # # # # # # # # # # # # : : : : : : : : : : : : 4 4 4 4 4 4 4 4 4 4 4 4 4 4 4 4 4 4 4 7 # # # a + # # # # # # # # # # # ",
"# # # a # # # # # # # # + + # # : : : : : : : : : : : l ) ) ) ) ) ) ) ) ) ) ) ) ) ) ) ) ) ) ) P # # # # # # # # # # # # # # # # ",
"# # # # # # # # # # # # + + # # : : : : : : : : : : : n g g g g g g g g g g h h h h h g h h h 7 # # + # # # # # # # # # # # # # ",
"# # # # # # # # # # + + + # # O : : : : : : : : : : : v       o o o o o o o o o o o o o o o O O # # + # # # # # # # # # # # # # ",
"# # # # # # # # # # + + + # # : : : : : : : : : : : 4 - o o o o o o o o o o o o o o o o O O # # # # # # # # # # # # # # # # # # ",
"# # # # # # # # # # # # # # # : : : : : : : : : : : l : o O O . : : : : : : : X O O # # O # # # # + # # # # # # # # # # # # # # ",
"# # # # # # # # # # # # # # # : : : : : : : : : : : h : : : : : : : : : : : : : : : : O # # # # + # # # # # # # # # # # # # # # ",
"# # # # # # # # # # # # + # # : : : : : : : : : : : : : : : : : : : : : : : : : : : : : : + + + # # + + _ # # # # # # # # # # # ",
"# # # # # # # # # # # # + # + : : : : : : : : : : : : : : : : : : : : : : : : : : : : : : : : + # # # + # # # # # # t # # # # # ",
"# # # # # # # # # # # # # # O : : : : : : : : : : : : : : : : : : : : : : : : : : : : : : : : : # # # # # # # # # # # # # # # # ",
"# # # # # # # # # # # # # # : : : : : : : : : : : : : : : : : : : : : : : : : : : : : : : : : : : # # # # # # # # # # # # # # # ",
"# # # # # # # # # # # # # # : : : : : : : : : : : : : : : : : : : : : : : : : : : : : : : : : : : + # # # # # # # # # # # # # # ",
"# # # # # # # # # # # # # # : : : : : : : : : : : : : : : : : : : : : : : : : : : : : : : : : : : y # # # # # # # # # # # # # # ",
"# # # # # # # # # # # + # # : : : : : : : : : : : : : : : : z C G x : : : : : : : : : : : : : : : : * + # # # # # # # # # # # # ",
"# # # # # # # # # # # + # : : : : : : : : : : : : : : e ^  .| | | | { S : : : : : : : : : : : : : : : # # # # # # # # # # # # # ",
"# # # # # # # # # # # # # 2 E T J S V x k e 0 : : : j { ) K c i 2 h P ] H : : : : : : : : : : : : : : # + # # # # # # # # # # # ",
"# # # # # # # # # # # X.# v { | | |  . .o.o.@.@.@.@.o.D       o o     5 ] q : : : : : : : : : : : : : + # # # # # # # # # # # # ",
"# # # # # # # # # # # # # + > , 5 7 s g c b n A D F n O o o o o o o o   h I : : : : : : : : : : : : : # # + + # # # # # # # # # ",
"# # # # # # # # # # # # # # # O o o         o o o o o o O O # # O p O o % M : : : : : : : : : : : : : O # + # # # # # # # # # # ",
"# # # # # # # # # # # # # # # # O O O O o o o o o O O # # # # # # # O O o f : : : : : : : : : : : : : : # # # # # # # # # # # # ",
"# # # # # # # # # # # # # # # # # # # # # # # # # # # # # # # # # # # # O d : : : : : : : : : : : : : 7 # # # # # # # # # # # # ",
"# # # # # # # # # # # # + # # # # # # # # # # + + + # # # + + # + # # # # 3 : : : : : : : : : : : : : h # # # # # # # # # W # # ",
"# # # # # # # # # # # # + + # + : : : : : : : : : : + + # # # # + # # # # : : : : : : : : : : : : : : h # # # # # # # # # # # # ",
"# # # # # # # # # # # : : : : : : : : : : : : : : : # + # # # # + # # # : : : : : : : : : : : : : : w 6 # # + # # # # t # # # # ",
"# # # # # # # # # # # s f : : : : : : : : : : : : : : # # # # # # # # : : : : : : : : : : : : : : : S @ # # + + # # # # # # # # ",
"# # # # # # # # # # # u ^ : : : : : : : : : : : : : : : : ; # # * : : : : : : : : : : : : : : : : : E $ # # # # # # # # # # # # ",
"# # # # # # # # # # # # / m : : : : : : : : : : : : : : : : : : : : : : : : : : : : : : : : : : : e J + # # # # # # # # # # # # ",
"# # # # # # # # # # # # 1 [ 9 : : : : : : : : : : : : : : : : : : : : : : : : : : : : : : : : : : H U Z # # # # # # # # # # # # ",
"# # # # # # # # # # # # + ) G : : : : : : : : : : : : : : : : : : : : : : : : : : : : : : : : : 0  .= O # # # # # # # # # # # # ",
"# # # # # # # # # # # # # s ..k : : : : : : : : : : : : : : : : : : : : : : : : : : : : : : : : ] L O # # # # # # # # # # # # # ",
"# # t # # # # # # # # # # O P  .w : : : : : : : : : : : : : : : : : : : : : : : : : : : : : : ( { $ # # # # # # # # # # # # # # ",
"# # # # # # + # # # # # # O @ ] | w : : : : : : : : : : : : : : : : : : : : : : : : : : : : ` @.7 O # # # # # # # # # # # # # # ",
"# # # # # # + # + # # # # # O % | O.z : : : : : : : : : : : : : : : : : : : : : : : : : z O.#.g o # # # + # # # # # # # # # # # ",
"# # # # # # # # # # # # # # # O = ] ;.( : : : : : : : : : : : : : : : : : : : : : : w ' -.| , o O # # # # # # # # # # # # # # # ",
"# # # # # # # # # # # # # # # O o @ Y :.-.E z 8 : : : : : : : : : : : : : : : w B ( :.:.U @ o O # # # + # a # # # # # # # # # # ",
"# # # # # # # # # # # # + # # # O o   i ` 1.:.@.~ N : : : : : : : : : : r R [ *.1.=.) , o o O # # # # + # # # # # # # W # # # # ",
"# # # # # # # # # # # # # + # # # O o o O > ! =.1.2.2.&.+.| [ ' } ..$.,.2.1.,.o.A $   o o O # # # # # # # # # # # # # # # # # # ",
"# # # # # # # # # # # # # # + # # # O O o o o   h P / ` { | @.#.o.{ ] ) Q b @ o   o o O # # # # # # # # # # # # # # # # # # # # ",
"# # # # # # # # # # # # # # # + # # # # # O o o o o                     o o o o o O # # # # # + # # # # # # # # # # # # # # # # ",
"# # # # # # # # # # # _ # # # # # # # # # # # O O o o o o o o o o o o o o O < # O # # # # # # # # # # # # # # # # # # # # # # # ",
"# # # # # # # # # # # # # # # # # # + # # # # # # # # # O O O O O O # # # # # # # # # # + # # # # # # # # # # t # # # # # # # # ",
"# # # # # # # # # # # # # # # # # # # # + # # # # # # # # # # # # # # # # # # # # # + # # # # # # # # # # # # # # # # # t # # # ",
"# # # # # # # # # # # # # # # # # # # # # # # + # # # # # # # # # # # # # # # + # # # # # # # # # # # # # # # # # # # # # # # # ",
"# # # # # # # # # # # # # # # # # # + + # # # # # # # # + + + + # # # # # # # # # # # # # # # # # # # # # # # # # # # # # # # # ",
"# # # # # # # # # # # # # # # # # # # # # # # # # # # # # # # # # + + + # # # # # # # # # # # # # # # # # # # # # # # # # W # # ",
"# # # # # # # # # # # # # # # # # # # # # # # # # # # # # # # # # + # # # # # # # # # # # # # # # # # # # # # # # # # # # # # # ",
"# # # # # # # # # # # # # # # # # # # # # # # # # # # # # # # # # + # # # # # # # # # # # # # # # # # # # # # # # # # # # # # # ",
"# # # # # # # # # # # # # # # # # # # # # # # # # # # # # # # # # # # # # # # # # # # # # # # # # # # # # # # # # # # # # # # # ",
"# # # # # # # # # # # # # # # # _ # # # # # # # # # # # # # # # # # # # # # # # # # # # # # # # # # # # # # # # # # # # # # # # "
};
