/* XPM */
static char *_8b0d19bb81a41c198a1f396c65143aeHHJrHReNVujS1fMT[] = {
/* columns rows colors chars-per-pixel */
"64 64 124 2 ",
"   c #120E1F",
".  c #130F21",
"X  c #161125",
"o  c #181326",
"O  c #1C1925",
"+  c #181328",
"@  c #1E1A28",
"#  c #221D28",
"$  c #272327",
"%  c #292527",
"&  c #2D2927",
"*  c #252129",
"=  c #29262A",
"-  c #2E2A2A",
";  c #312D27",
":  c #353127",
">  c #3A3626",
",  c #3F3B26",
"<  c #3E3A2B",
"1  c #2A2730",
"2  c #2D2C34",
"3  c #2D2F3E",
"4  c #302F36",
"5  c #302E38",
"6  c #353232",
"7  c #383636",
"8  c #3C3A35",
"9  c #33323B",
"0  c #3B3A3D",
"q  c #403C27",
"w  c #423F2E",
"e  c #47432E",
"r  c #454234",
"t  c #44423C",
"y  c #4E4B3B",
"u  c #262B44",
"i  c #3D3B41",
"p  c #323B59",
"a  c #413F40",
"s  c #3C4155",
"d  c #3A4466",
"f  c #424044",
"g  c #4C4A43",
"h  c #444349",
"j  c #4E4D4A",
"k  c #514F44",
"l  c #514F4A",
"z  c #545143",
"x  c #585542",
"c  c #53514C",
"v  c #5B5849",
"b  c #4D4C51",
"n  c #555454",
"m  c #595752",
"M  c #5D5B54",
"N  c #5A5A5B",
"B  c #64625B",
"V  c #5E5E61",
"C  c #55627C",
"Z  c #666564",
"A  c #666669",
"S  c #6C6C6B",
"D  c #706F66",
"F  c #75736D",
"G  c #79776E",
"H  c #7B796E",
"J  c #747372",
"K  c #7A7972",
"L  c #7C7B7C",
"P  c #807E75",
"I  c #817F79",
"U  c #84837E",
"Y  c #88877C",
"T  c #5A6988",
"R  c #838382",
"E  c #898780",
"W  c #8E8C85",
"Q  c #878788",
"!  c #8B8A8A",
"~  c #908F88",
"^  c #949494",
"/  c #9C9A93",
"(  c #979798",
")  c #9C9B9C",
"_  c #A2A29E",
"`  c #A6A59F",
"'  c #9F9FA0",
"]  c #8B9BB4",
"[  c #9EA6B2",
"{  c #A1A1A2",
"}  c #A6A5A2",
"|  c #A4A4A4",
" . c #ADABA4",
".. c #ACAAA6",
"X. c #AAA9A9",
"o. c #AEADA9",
"O. c #ACACAD",
"+. c #B1B0AA",
"@. c #B5B4AD",
"#. c #B6B5B1",
"$. c #B7B7B7",
"%. c #B9B9B7",
"&. c #BBBABA",
"*. c gray",
"=. c #C1BFB9",
"-. c #C2C1BB",
";. c #BBC6D6",
":. c #C2C2C1",
">. c #C3C2C3",
",. c #C8C7C2",
"<. c #CDCCC7",
"1. c #CDCCCC",
"2. c #D2D1CE",
"3. c #C0CBDC",
"4. c #D1D1D0",
"5. c #D4D4D2",
"6. c #D7D6D4",
"7. c #DADADB",
"8. c #E2E2DF",
"9. c #E2E2E1",
"0. c #E4E3E2",
"q. c #EDEDEC",
"w. c #F3F3F3",
"e. c #F9F9F9",
/* pixels */
"+ + + + + + + + + + + + + + + + + + + + + + + + + + + + + + + + + + + + + + + + + + + + + + + + + + + + + + + + + + + + + + + + ",
"+ + + 3.+ + + + + + + + + d + + + + + + + + + + + + + + + + + + + + + + + + + + + + + + u + + + + + + + + + + + + + + + + + + + ",
"+ + + + + + + + + + + + + + + + + + + + + + + + + + + + + + + + + + + + + + + + + + + + + + + + + + + + + + + + + + + + + + + + ",
"+ + + + + + + + + + + + + + + + + + + + + + + + + + + + + + + + + + + + + + + + + + + + + + + + + + + + + + + + + + + + + + + + ",
"+ + + + + + + + + + + + + + + + + + + + + + + + @ % ; : > , , , , , > : ; & $ @ + + + + + + + + + + + + + + + + + + + + + + + + ",
"+ + + + + + + + + + + + + + + + + + T + + + # : , , , , , , , , , , , , , , < , : * ;.+ + + + + + + + + + + + + + + + + + + + + ",
"+ + + + + + + + + + + + + + + + + + + + # : , , , , , , , , , , , , , , , , , , , , > ; # + + + + + + + + + + + + + + + + + + + ",
"+ + + + + + + + + + + + + + + + + + + % , , , , , , , , , , , , , , , , , , , , , , , , , % + + + + + + + + + + + + + + + + + + ",
"+ + + + + + + + + + + + + + + + + + & , , , , , , , , , , , , , , , , , , , , , , , , , , , ; + + + + + + + + + + + + + + + + + ",
"+ + + + + + + + + + + + + + + + + & , , , , , , , , , , , , , , , , , , , , , , , , , , , , , & + + + + + + + + + + + + + + + + ",
"+ + + + + + + + + + + + + + + + * , , , , , , , , , , , , , , , , , , , , , , , , , , , , , , , * + + + + + + + + + + + + + + + ",
"+ + + + + + + + + + + + + + + @ > , , , , , , , , , , , , , , , , , , , , , , , , , , , , , , , : + + + + + + + + + + + + + + + ",
"+ + + + + + + + + + + + + + + ; , , , , , , , , , , , , , , , , , , , , , , , , , , , , , , , , , # + + + + + + + + + + + + + + ",
"+ + + + + + + + + + + + + + # , , , , , , , , , , , , , , , n Z S Z N , , , , , , , , , , , , , , : + + + + + + + + + + u + + + ",
"+ ] + + + + + + + + + + + + : , , , , , , , , , , , , , n ^ ( ( ! ^ ( ^ n , , , , , , , , , , , , , @ + + + + + + + + + + + + + ",
"+ + + + + + + + + + + + + # , , , , , , , , , , , , , m ! V % % 9 % & m ! j , , , , , , , , , , , , * d + + + + + + + + + + + + ",
"+ + + d + + + + + + + + + & , , , , , , , , , , , , , ! = % % % % % % % 2 Z < 8 0 t g c M B S K R Q 2 + + + + + + + + + + + + + ",
"+ + + + + + + + + + + + @ > , , , , , , , , , , , , Z 0 % $ $ * * * * $ % S ) | | ' ( ^ ! Q R L L J 9 @ + + + + + + + + + + + + ",
"+ + + + + + + + + + + + # , , , , , , , , , , , , , m % $ * # # # # # * * % 4 = = & & % O % % % * # @ @ + + + + + + + + + + + + ",
"+ + + + + + + + + + + + & , , , , , , , , , , , , , m $ # # @ @ @ @ @ # # * $ % % % % % % % $ * * # @ @ + + + + + + + + + + + + ",
"+ + + + + + + + + + + @ : , , , , , , , , , , , , t = * # @ @ # * % & ; & & % % $ * * * * * # # # @ @ + + + + + + + + + + + + + ",
"+ + + + + + + + + + + @ > , , , , , , , , , , , , m * # # ; > , , , , , , , , , > : % # # # @ @ @ @ + + + + + + + + + + + + + + ",
"+ + + + + + + + + + @ # , , , , , , , , , , , , , c % ; , , , , , , , , , , , , , , , > % @ @ @ + + + + ] + + + + + + + + + + + ",
"+ + + + + + + + + + @ $ , , , , , , , , , , , , , > , , , , , , , , , , , , , , , , , , , : @ + + + + + + + + + + + u + + + + + ",
"+ + + + + + + + + + @ = , , , , , , , , , , , , , , , , , , , , , , , , , , , , , , , , , , > # + + + + + + + + + + + + + + + + ",
"+ + + + + + + + + + @ = , , , , , , , , , , , , , , , , , , , , , , , , , , , , , , , , , , , > @ + + + + + + + + + + + + + + + ",
"+ + + + + + + + + + @ % q , , , , , , , , , , , , , , , , , , , , , , , , , , , , , , , , , , , : + + + + + + + + + + + + + + + ",
"+ + + + + + + + + + @ & , , , , , , , , , , , , , , , , , , , , , , , , , , , , , , , , , , , , q s + + + + + + + + + + + + + + ",
"+ + + + + + + + + + @ & , , , , , , , , , , , , , , , , , , , , , , , , , , , , , , , , , , , , , > @ + + + + + + + + + + + + + ",
"+ + + + + + + + + @ @ - , , , , , , , , , , , , , , , , , M K E ~ I B , , , , , , , , , , , , , , , % + + + + + + + + + + + + + ",
"+ + + + + + + + + @ @ - , , , , , , , , , , , , , , , w _ :.O.) ( | *.} w , , , , , , , , , , , , , : @ + + + + + + + + + + + + ",
"+ + + + + + + + + @ @ [ , , , , , , , , , , , , , , , } ( = X .   X * ^ _ , , , , , , , , , , , , , , @ + + + + + + + + + + + + ",
"+ + + + + + + + + @ @ 7 , , , , , , , , , , , , , , I L X   . . . .     L D , , , , , , , , , , , , , * + + + + + + + + + + + + ",
"+ + + + + + + + + @ @ a r , , , , , , , , , , , , , F * . . . X X p . . 1 J , , , , , , , , , , , , , & @ + + + + + + + + + + + ",
"+ + + + + + + + + @ @ f r , , , , , , , , , , , , , B . . X X X X X X . X c , , , , , , , , , , , , , 8 @ + + + + + + + + + + + ",
"+ + + + + + + + + @ @ 5 k , , , , , , , , , , , , , j X X X X X X X X X . l , , , , , , , , , , , , , g @ + + + + + + + + + + + ",
"+ + + + + + + + + + @ # F , , , , , , , , , , , , , 6 X X X X X X X X X X t , , , , , , , , , , , , , k @ + + + + + + + + T + + ",
"+ + + + + + + + + + @ # R , , , , , , , , , , , , , ; X X X o + + o X X X ; , , , , , , , , , , , , , M @ @ + + + + + + + + + + ",
"+ + + + + + + + + + @ # b B , , , , , , , , , , , , > o X X + + + + X X X > , , , , , , , , , , , , , B @ @ + + + + + u + + + + ",
"+ + + + + + + + + + @ # * W , , , , , , , , , , , , , ; X X + + + + X X & , , , , , , , , , , , , , , Z # @ + + + + + + + + + + ",
"+ + + + + + + + + + @ # * L y , , , , , , , , , , , , , ; @ + + + + @ % , , , , , , , , , , , , , , v i # @ + + + + + + + + + + ",
"+ + + + + + + + + + @ @ # S G , , , , , , , , , , , , , , > : & & ; > , , , , , , , , , , , , , , , U * # @ + + + + + + + + + + ",
"+ + + + + + + + + + @ @ # * %.y , , , , , , , , , , , , , , , , , , , , , , , , , , , , , , , , , q U C @ @ + + + + + + + + + + ",
"+ + + + + + + + + + + @ # * V o., , , , , , , , , , , , , , , , , , , , , , , , , , , , , , , , , B R # @ + + + + + + + + + + + ",
"+ + + + + + + + + + + @ @ # $ X.E , , , , , , , , , , , , , , , , , , , , , , , , , , , , , , , , #.h # @ + + + + + + + + + + + ",
"+ + u + + + + + + + + + @ # * i 4.P , , , , , , , , , , , , , , , , , , , , , , , , , , , , , , ..! * # @ + + + + + + + + + + + ",
"+ + + + + + + + + + + + @ @ # * n 5.W , , , , , , , , , , , , , , , , , , , , , , , , , , , , / *.* # @ @ + + + + + + + + + + + ",
"+ + + + + + + + + + + + + @ # * $ N 9.+.z , , , , , , , , , , , , , , , , , , , , , , , , y o.6.0 * # @ + + + + + + + + + + + + ",
"+ + + + + + + + + + + + + + @ # * $ b 1.0.` q , , , , , , , , , , , , , , , , , , , , , K 2.1.i * # @ @ + + + + + + + + + + + + ",
"+ + + + + + + + + + + + + + @ @ # * $ = L 9.0./ B e , , , , , , , , , , , , , , , z H ,.q.{ = $ * # @ + + d + + + + + + + + + + ",
"+ + + + + + + + + + + + + + + @ @ # * $ % 1 ) 7.w.6...H e , , , , , , , , , x Y &.8.w.%.A % $ * # @ @ + + + + + + + + T + + + + ",
"+ + + + + + + + + + + + + + + + @ @ # # * % % = N :.q.w.e.8.<.-.@...@.=.<.q.e.q.9.( 2 % % * # # @ @ + + + + + + + + + + + + + + ",
"+ + + + + + + + + + + + + + + + + @ @ # # * * % % % 1 V Q ) O.$.:.1.:.%.O.( L n % % % $ * # # @ @ + + + + + + + + + + + + + + + ",
"+ + + + + + + + + + + + + + + + + + + @ @ # # * * $ % % % % % % % % % % % % % % $ * * # # @ @ + + + + + + + + + + + + + + + + + ",
"+ + + + + + + + + + + ] + + + + + + + + @ @ @ # # # * * * $ $ $ $ $ $ $ $ $ 3 * # # # @ @ @ + + + + + + + + + + + + + + + + + + ",
"+ + + + + + + + + + + + + + + + + + + + + + @ @ @ @ # # # # # # # * # # # # # # # @ @ @ + + + + + + + + + + + u + + + + + + + + ",
"+ + + + + + + + + + + + + + + + + + + + + + + + + @ @ @ @ @ @ @ @ @ @ @ @ @ @ @ @ + + + + + + + + + + + + + + + + + + + u + + + ",
"+ + + + + + + + + + + + + + + + + + + + + + + + + + + + + + @ @ @ @ @ @ @ + + + + + + + + + + + + + + + + + + + + + + + + + + + ",
"+ + + + + + + + + + + + + + + + + + + + + + + + + + + + + + + + + + + + + + + + + + + + + + + + + + + + + + + + + + + + + + + + ",
"+ + + + + + + + + + + + + + + + + + + + + + + + + + + + + + + + + + + + + + + + + + + + + + + + + + + + + + + + + + + + + T + + ",
"+ + + + + + + + + + + + + + + + + + + + + + + + + + + + + + + + + + + + + + + + + + + + + + + + + + + + + + + + + + + + + + + + ",
"+ + + + + + + + + + + + + + + + + + + + + + + + + + + + + + + + + + + + + + + + + + + + + + + + + + + + + + + + + + + + + + + + ",
"+ + + + + + + + + + + + + + + + + + + + + + + + + + + + + + + + + + + + + + + + + + + + + + + + + + + + + + + + + + + + + + + + ",
"+ + + + + + + + + + + + + + + + ] + + + + + + + + + + + + + + + + + + + + + + + + + + + + + + + + + + + + + + + + + + + + + + + "
};
