/* XPM */
static char *_91104428c2b4917c4fe32d48479da4cQte2oaGwu0Vw5jyq[] = {
/* columns rows colors chars-per-pixel */
"64 64 94 2 ",
"   c #120E1F",
".  c #1E1B19",
"X  c #130F21",
"o  c #140F22",
"O  c #151023",
"+  c #171327",
"@  c #181327",
"#  c #1B1725",
"$  c #1C1725",
"%  c #1B1826",
"&  c #1E1B25",
"*  c #181328",
"=  c #1C1928",
"-  c #1F1C29",
";  c #221F24",
":  c #201E2A",
">  c #252224",
",  c #282424",
"<  c #23212C",
"1  c #282528",
"2  c #28252D",
"3  c #3F3B26",
"4  c #262430",
"5  c #2D2B33",
"6  c #2F2D32",
"7  c #2D2B34",
"8  c #21283D",
"9  c #322F36",
"0  c #32313A",
"q  c #343339",
"w  c #4E4B3D",
"e  c #504C3D",
"r  c #262B44",
"t  c #363F53",
"y  c #374161",
"u  c #3A4466",
"i  c #434247",
"p  c #4C4940",
"a  c #4E4C42",
"s  c #47464C",
"d  c #49484E",
"f  c #515048",
"g  c #57554C",
"h  c #5A584C",
"j  c #5D5B4D",
"k  c #545252",
"l  c #545356",
"z  c #595855",
"x  c #5D5B55",
"c  c #5D5C57",
"v  c #59585B",
"b  c #5E5E59",
"n  c #5A595C",
"m  c #5F5E5F",
"M  c #61605B",
"N  c #656259",
"B  c #66645F",
"V  c #5D5D60",
"C  c #605F62",
"Z  c #606062",
"A  c #6B6A64",
"S  c #676769",
"D  c #69696B",
"F  c #6D6C6A",
"G  c #6E6E6D",
"H  c #777469",
"J  c #73726F",
"K  c #706F70",
"L  c #717173",
"P  c #797771",
"I  c #7D7B75",
"U  c #82827E",
"Y  c #84837F",
"T  c #5A6988",
"R  c #777E89",
"E  c #858483",
"W  c #858486",
"Q  c #888785",
"!  c #8B8984",
"~  c #8A898B",
"^  c #8C8C8B",
"/  c #8B8B8C",
"(  c #90908F",
")  c #929292",
"_  c #939395",
"`  c #949395",
"'  c #949495",
"]  c #8796AF",
"[  c #8B9BB4",
"{  c #C0CBDC",
"}  c #E0E0E1",
"|  c #E9E5E1",
" . c gray95",
".. c #F4F4F4",
/* pixels */
"* * * * * * * * * * * * * * * * * * * * * * * * * * * * * * * * * * * * * * * * * * * * * * * * * * * * * * * * * * * * * * * * ",
"* * * { * * * * * * * * * u * * * * * * * * * * * * * * * * * * * * * * * * * * * * * * r * * * * * * * * * * * * * * * * * * * ",
"* * * * * * * * * * * * * * * * * * * * * * * * * * * * * * * * * * * * * * * * * * * * * * * * * * * * * * * * * * * * * * * * ",
"* * * * * * * * * * * * * * * * * * * * * * * * * * * * * * * * * * * * * * * * * * * * * * * * * * * * * * * * * * * * * * * * ",
"* * * * * * * * * * * * * * * * * * * * * * * * * * * * * * * * * * * * * * * * * * * * * * * * * * * * * * * * * * * * * * * * ",
"* * * * * * * * * * * * * 3 . . . . t 3 3 3 3 3 3 3 3 3 3 3 3 3 3 3 3 3 3 3 8 3 3 3 R . . . . . . 3 + * * * * * * * * * * * * * ",
"* * * * * * * * * * * * @ 3 3 3 3 3 3 3 3 3 3 3 3 3 3 3 3 3 3 3 3 3 3 3 3 3 3 3 3 3 3 3 3 3 3 3 3 3 # * * * * * * * * * * * * * ",
"* * * * * * * * * * * * @ 3 3 3 3 3 3 3 3 3 3 3 3 3 3 3 3 3 3 3 3 3 3 3 3 3 3 3 3 3 3 3 3 3 3 3 3 3 = * * * * * * * * * * * * * ",
"* * * * * * * * * * * + @ 3 3 3 3 3 3 3 3 3 3 3 3 3 3 3 3 3 3 3 3 3 3 3 3 3 3 3 3 3 3 3 3 3 3 3 3 3 = + * * * * * * * * * * * * ",
"* * * * * * * * * * @ + + 3 3 3 3 3 3 3 3 3 3 3 3 3 3 3 3 3 3 3 3 3 3 3 3 3 3 3 3 3 3 3 3 3 3 3 3 3 = + @ * * * * * * * * * * * ",
"* * * * * * * * * * + + $ 3 3 3 3 3 3 3 3 3 3 3 3 3 3 3 3 3 3 3 3 3 3 3 3 3 3 3 3 3 3 3 3 3 3 3 3 3 = + + * * * * * * * * * * * ",
"* * * * * * * * * * + + # 3 3 3 3 3 3 3 3 3 3 3 3 3 3 3 3 3 3 3 3 3 3 3 3 3 3 3 3 3 3 3 3 3 3 3 3 3 = + + * * * * * * * * * * * ",
"* * * * * * * * * * + + # 3 3 3 3 3 3 3 3 3 3 3 3 3 3 3 3 3 3 3 3 3 3 3 3 3 3 3 3 3 3 3 3 3 3 3 3 3 = + + * * * * * * * * * * * ",
"* * * * * * * * * * + + ; 3 3 3 3 3 3 3 3 3 3 3 3 3 3 3 3 3 3 3 3 3 3 3 3 3 3 3 3 3 3 3 3 3 3 3 3 3 & + + * * * * * * * r * * * ",
"* [ * * * * * * * * + + ; 3 3 3 3 3 3 3 3 3 3 3 3 3 3 3 3 3 3 3 3 3 3 3 3 3 3 3 3 3 3 3 3 3 3 3 3 3 & + + * * * * * * * * * * * ",
"* * * * * * * * * * + + ; 3 3 3 3 3 3 3 3 3 3 3 3 3 3 3 3 3 3 3 3 3 3 3 3 3 3 3 3 3 3 3 3 3 3 3 3 3 - y + * * * * * * * * * * * ",
"* * * u * * * * * * + + # z b b b b b b b b b b b b b b b b b b b b b c 3 3 3 3 3 3 3 3 3 3 3 3 3 E # + + * * * * * * * * * * * ",
"* * * * * * * * * * + + # L W W W W W W W W W W W W W W W W W W W W W J 3 3 3 3 3 3 3 3 3 3 3 3 ^ C + + + * * * * * * * * * * * ",
"* * * * * * * * * * + + # # & % & > > > > > > > > > > > > > > > > > 3 3 3 3 3 3 3 3 3 3 3 3 3 ) v O + + + * * * * * * * * * * * ",
"* * * * * * * * * * @ + # ; , 3 3 3 3 3 3 3 3 3 3 3 3 3 3 3 3 3 3 3 3 3 3 3 3 3 3 3 3 3 3 3 ~ l X O + + + * * * * * * * * * * * ",
"* * * * * * * * * * * + + # ; ; , , , , , , , , , , , , , , , 3 3 3 3 3 3 3 3 3 3 3 3 3 3 Q S O O + + + * * * * * * * * * * * * ",
"* * * * * * * * * * * @ + + + # # # # # # # # # # # # # # # # , 3 3 3 3 3 3 3 3 3 3 3 3 F D X o + + + + * * * * * * * * * * * * ",
"* * * * * * * * * * * * @ + + + + + + + + + + + + + + + + + + 3 3 3 3 3 3 3 3 3 3 3 3 f ~ < o + + + + * [ * * * * * * * * * * * ",
"* * * * * * * * * * * * * * @ @ @ @ + + + + + + + + + + + + 3 3 3 3 3 3 3 3 3 3 3 3 3 ( q o O + + + @ * * * * * * * r * * * * * ",
"* * * * * * * * * * * * * * * * * * * * * * * * * * * * @ # 3 3 3 3 3 3 3 3 3 3 3 3 A n X O + + + @ * * * * * * * * * * * * * * ",
"* * * * * * * * * * * * * * * * * * * * * * * * * * * * + 3 3 3 3 3 3 3 3 3 3 3 3 3 ) & O + + + @ * * * * * * * * * * * * * * * ",
"* * * * * * * * * * * * * * * * * * * T * * * * * * * @ 3 3 3 3 3 3 3 3 3 3 3 3 3 E i o + + ] + * * * * * * * * * * * * * * * * ",
"* * * * * * * * * * * * * * * * * * * * * * * * * * * @ 3 3 3 3 3 3 3 3 3 3 3 3 a G o O + + + * * u * * * * * * * * * * * * * * ",
"* * * * * * * * * * * * * * * * * * * * * * * * * * @ 3 3 3 3 3 3 3 3 3 3 3 3 3 I d O + + + @ * * * * * * * * * * * * * * * * * ",
"* * * * * * * * * * * * * * * * * * * * * * * * * * + 3 3 3 3 3 3 3 3 3 3 3 3 3 / o + + + @ * * * * * * * * * * * * * * * * * * ",
"* * * * * * * * * * * * * * * * * * * * * * * * * + 3 3 3 3 3 3 3 3 3 3 3 3 3 Y 0 O + + + * * * * * * * * * * * * * * * * * * * ",
"* * * * * * * * * * * { * * * * r * * * * * * * @ @ 3 3 3 3 3 3 3 3 3 3 3 3 3 J # + + + @ * * * * * * * * * * * * * * * * * * * ",
"* * * * * * * * * * * * * * * * * * * * * * * * + 3 3 3 3 3 3 3 3 3 3 3 3 3 h Z O + + + * * * * * * * * * * * * * * * * * * * * ",
"* * * * * * * * * * * * * * * * * * * * * * * @ + 3 3 3 3 3 3 3 3 3 3 3 3 3 ! X + + + @ @ @ * * * * * * * * * * * * * * * * * * ",
"* * * * * * * * * * * * * * * * * * * * * * * + > 3 3 3 3 3 3 3 3 3 3 3 3 e K O + + + * * * * * * * * * * * * * * * * * * * * * ",
"* * * * * * * * * * * * * * * * * * * * * * @ + 3 3 3 3 3 3 3 3 3 3 3 3 3 P 5 + + + @ * * * * * * * * * * * * * * * * * * * * * ",
"* * * * * * * * * * * * * * * * * * * * * * + @ 3 3 3 3 3 3 3 3 3 3 3 3 3 B : + + + * * * * * * * * * * * * * * * * * * * T * * ",
"* * * * * * * * * * * * * * * * * * * * * * + & 3 3 3 3 3 3 3 3 3 3 3 3 3 F O + + + * * | * * * * * * * * * * * * * * * * * * * ",
"* * * * * * * * * * * * * * * * * * * * * @ + 3 3 3 3 3 3 3 3 3 3 3 3 3 w V + + + @ * * * * * * * * * * * * * * * * * r * * * * ",
"* * * * * * * * * * * * * * * * * * * * * + # 3 3 3 3 3 3 3 3 3 3 3 3 3 H # + + + * * * * * * * * * * * * * * * * * * * * * * * ",
"* * * * * * * * * * * * * * * * * * * * * + ; 3 3 3 3 3 3 3 3 3 3 3 3 3 U O + + + * * * * * r * * * * * * * * * * * * * * * * * ",
"* * * * * * * * * * * * * * * * * * * * @ + , 3 3 3 3 3 3 3 3 3 3 3 3 3 m + + + @ * * * * * * * * * * * * * * * * * * * * * * * ",
"* * * * * * * * * * * * * * * * r * * * + + 3 3 3 3 3 3 3 3 3 3 3 3 3 j 6 + + + * * * * * * * * * * * T * * * * * * * * * * * * ",
"* * * * * * * * * * * * * * * * * * T * + + 3 3 3 3 3 3 3 3 3 3 3 3 3 N 9 + + + * * * * * * * * * * * * * * * * * * * * * * * * ",
"* * * * * * * * * * * * * * * * * * * @ + # 3 3 3 3 3 3 3 3 3 3 3 3 3 x 7 + + @ * * * [ * * * * * * * * * * * * * * * * * * * * ",
"* * r * * * * * * * * * * * * * * * * + + 1 3 3 3 3 3 3 3 3 3 3 3 3 3 p = + + @ * * * * * * * * * * * * * * * * * * * * * * * * ",
"* * * * * * * * * * * * * * * * * * * + + 3 3 3 3 3 3 3 3 3 3 3 3 3 3 g + + + * * * * * * * * * * * * * * * * * * * * * * * * * ",
"* * * * * * * * * * * * * * * * * * * + + 3 3 3 3 3 3 3 3 3 3 3 3 3 3 N + + + * * * * * * * * * * * * * * * * * * * * * * * * * ",
"* * * * * * * * * * * * * * * * * * * + + 3 3 3 3 3 3 3 3 3 3 3 3 3 3 M + + + * * * * * * * * * * * * * * * * * * * * * * * * * ",
"* * * * * * * * * * * * * * * * * * @ + # 3 3 3 3 3 3 3 3 3 3 3 3 3 3 z + + + * * * * * * * * * * * * * * u * * * * * * * * * * ",
"* * * * * * * * * * * * * * * * * * @ + 2 3 3 3 3 3 3 3 3 3 3 3 3 3 3 k + + @ * * * * * * * * * * * * * * * * * * * * T * * * * ",
"* * * * * * * * * * * * * * * * * * + + s } ........................ .d + + @ * * * * * * * * * * * * * * * * * * * * * * * * * ",
"* * * * * * * * * * * * * * * * @ @ + + 0 ~ ` ` ` _ ) ` ` _ ' _ ` ` ) 4 + + * * * * * * * * * * * * * * * * * * * * * * * * * * ",
"* * * * * * * * * * * * * * * * * * + + + + o X X X           X X X O + + + * * * * * * * * * * * * * * * * * * * * * * * * * * ",
"* * * * * * * * * * * [ * * * * * * @ + + + O O o o X X X X X o O O + + + + r * * * * * * * * * * * * * * * * * * * * * * * * * ",
"* * * * * * * * * * * * * * * * * * * + + + + + + + + + + + + + + + + + + * * * * * * * * * * * * * * * * * * r * * * * * * * * ",
"* * * * * * * * * * * * * * * * * * * @ + + + + + + + + + + + + + + + + @ * * * * * * * * * * * * * * * * * * * * * * * r * * * ",
"* * * * * * * * * * * * * * * * * * * * * @ + + + + + + + + + + + + @ * * * * * * * * * * * * * * * * * * * * * * * * * * * * * ",
"* * * * * * * * * * * * * * * * * * * * * * * * * * * * * * * * * * * * * * * * * * * * * * * * * * * * * * * * * * * * * * * * ",
"* * * * * * * * * * * * * * * * * * * * * * * * * * * * * * * * * * * * * * * * * * * * * * * * * * * * * * * * * * * * * T * * ",
"* * * * * * * * * * * * * * * * * * * * * * * * * * * * * * * * * * * * * * * * * * * * * * * * * * * * * * * * * * * * * * * * ",
"* * * * * * * * * * * * * * * * * * * * * * * * * * * * * * * * * * * * * * * * * * * * * * * * * * * * * * * * * * * * * * * * ",
"* * * * * * * * * * * * * * * * * * * * * * * * * * * * * * * * * * * * * * * * * * * * * * * * * * * * * * * * * * * * * * * * ",
"* * * * * * * * * * * * * * * * [ * * * * * * * * * * * * * * * * * * * * * * * * * * * * * * * * * * * * * * * * * * * * * * * "
};
