/* XPM */
static char *_99dc2f6943a4978d3f1000c732ef94151H6Ja7oJ3TMPYwI[] = {
/* columns rows colors chars-per-pixel */
"64 64 107 2 ",
"   c #120E1F",
".  c #1E1B1E",
"X  c #25221D",
"o  c #130F21",
"O  c #161125",
"+  c #181326",
"@  c #1D1A26",
"#  c #181328",
"$  c #1E1B28",
"%  c #201D20",
"&  c #221F2B",
"*  c #1D2136",
"=  c #252225",
"-  c #24222E",
";  c #383525",
":  c #3F3B26",
">  c #38342A",
",  c #282531",
"<  c #2C2A33",
"1  c #20253B",
"2  c #3B3830",
"3  c #35333B",
"4  c #3A393F",
"5  c #423F30",
"6  c #423F3D",
"7  c #4C4838",
"8  c #262B44",
"9  c #3C3B41",
"0  c #303855",
"q  c #403F44",
"w  c #374061",
"e  c #3A4466",
"r  c #424146",
"t  c #4D4C45",
"y  c #4A494E",
"u  c #545144",
"i  c #5B5846",
"p  c #57554B",
"a  c #4F4E51",
"s  c #504F53",
"d  c #565554",
"f  c #585755",
"g  c #5C5B52",
"h  c #555458",
"j  c #58575A",
"k  c #5B5A5D",
"l  c #605C4B",
"z  c #646257",
"x  c #616058",
"c  c #69675B",
"v  c #5F5F61",
"b  c #626263",
"n  c #6A6964",
"m  c #6C6C6C",
"M  c #706E64",
"N  c #70706E",
"B  c #606A7F",
"V  c #747373",
"C  c #7E7C74",
"Z  c #767678",
"A  c #7B7B7A",
"S  c #807F79",
"D  c #848277",
"F  c #82817E",
"G  c #5A6988",
"H  c #7E8899",
"J  c #838383",
"K  c #888784",
"L  c #898887",
"P  c #8D8D8B",
"I  c #908E88",
"U  c #97958D",
"Y  c #949392",
"T  c #989791",
"R  c #989891",
"E  c #979798",
"W  c #9E9D9B",
"Q  c #A09F97",
"!  c #A1A09B",
"~  c #8A9AB3",
"^  c #A4A4A4",
"/  c #A8A7A6",
"(  c #ABAAA5",
")  c #ADADAC",
"_  c #B0AFAD",
"`  c #B4B3AC",
"'  c #B3B3B3",
"]  c #BCBBB6",
"[  c #B9B9BA",
"{  c #BBC6D7",
"}  c #BFCADB",
"|  c #C4C4C4",
" . c #C8C7C4",
".. c #CCCCCD",
"X. c #D2D1CE",
"o. c #C0CBDC",
"O. c #D5D4D0",
"+. c #D4D3D4",
"@. c #D7D7D7",
"#. c #D8D7D5",
"$. c #DDDDDD",
"%. c #E0E0DD",
"&. c #E7E7E6",
"*. c #ECECEC",
"=. c #EEEEED",
"-. c #F1F1F0",
";. c #F4F3F2",
/* pixels */
"# # # # # # # # # # # # # # # # # # # # # # # # # # # # # # # # # # # # # # # # # # # # # # # # # # # # # # # # # # # # # # # # ",
"# # # o.# # # # # # # # # e # # # # # # # # # # # # # # # # # # # # # # # # # # # # # # 8 # # # # # # # # # # # # # # # # # # # ",
"# # # # # # # # # # # # # # # # # # # # # # # # # # # # # # # # # # # # # # # # # # # # # # # # # # # # # # # # # # # # # # # # ",
"# # # # # # # # # # # # # # # # # # # # # # # # # # # # # # # # # # # # # # # # # # # # # # # # # # # # # # # # # # # # # # # # ",
"# # # # # # # # # # # # # # # # # # # # # # # # # o : : : : : : : : : : : : o # # # # # # # # # # # # # # # # # # # # # # # # # ",
"# # # # # # # # # # # # # # # # # # G # # # O : : : : : : : : : : : : : : : : : : o { # # # # # # # # # # # # # # # # # # # # # ",
"# # # # # # # # # # # # # # # # # # # # % : : : : : : : : : : : : : : : : : : : : : : : # # # # # # # # # # # # # # # # # # # # ",
"# # # # # # # # # # # # # # # # # # # : : : : : : : : : : : : : : : : : : : : : : : : : : # # # # # # # # # # # # # # # # # # # ",
"# # # # # # # # # # # # # # # # # O : : : : : : : : : : : : : : : : : : : : : : : : : : : : O # # # # # # # # # # # # # # # # # ",
"# # # # # # # # # # # # # # # # O : : : : : : : : : : : : : : : : : : : : : : : : : : : : : : O # # # # # # # # # # # # # # # # ",
"# # # # # # # # # # # # # # # O : : : : : : : : : : : : : : : : : : : : : : : : : : : : : : : : # # # # # # # # # # # # # # # # ",
"# # # # # # # # # # # # # # # : : : : : : : : : : : : : : : : : : : : : : : : : : : : : : : : : : # # # # # # # # # # # # # # # ",
"# # # # # # # # # # # # # # + : : : : : : : : : : : : : : : : : : : : : : : : : : : : : : : : : : # # # # # # # # # # # # # # # ",
"# # # # # # # # # # # # # # : : : : : : : : : : : : : : : f m Z A N f : : : : : : : : : : : : : : : # # # # # # # # # # 8 # # # ",
"# ~ # # # # # # # # # # # # : : : : : : : : : : : : : : J Y A b k V Y F ; : : : : : : : : : : : : : # # # # # # # # # # # # # # ",
"# # # # # # # # # # # # # = : : : : : : : : : : : : : A m O     *   O m A : : : : : : : : : : : : : # e # # # # # # # # # # # # ",
"# # # e # # # # # # # # # : : : : : : : : : : : : : d j   o o o         v t : : : : : : : : : : : : @ # # # # # # # # # # # # # ",
"# # # # # # # # # # # # # : : : : : : : : : : : : : d $ o o O O O O o o @ y : : : : : : : : : : : : : # # # # # # # # # # # # # ",
"# # # # # # # # # # # # # : : : : : : : : : : : : : 6 o O # # # # O # O O : : : : : : : : : : : : : : # # # # # # # # # # # # # ",
"# # # # # # # # # # # # # : : : : : : : : : : : : : : O # # # # # # # # O X : : : : : : : : : : : : 2 # # # # # # # # # # # # # ",
"# # # # # # # # # # # # # 4 : : : : : : : : : : : : : O # # # # # # # # O : : : : : : : : : : : : t - # # # # # # # # # # # # # ",
"# # # # # # # # # # # # # @ n : : : : : : : : : : : : X # # # # # # # + : : : : : : : : : : : : : A # # # # # # # # # # # # # # ",
"# # # # # # # # # # # # # O Z t : : : : : : : : : : : : : : = + @ : : : : : : : : : : : : : : : n a # # ~ # # # # # # # # # # # ",
"# # # # # # # # # # # # # O 3 K : : : : : : : : : : : : : : : : : : : : : : : : : : : : : : : 5 L & # # # # # # # # 8 # # # # # ",
"# # # # # # # # # # # # # # O V T : : : : : : : : : : : : : : : : : : : : : : : : : : : : : g W j O # # # # # # # # # # # # # # ",
"# # # # # # # # # # # # # # O @ V ^ p : : : : : : : : : : : : : : : : : : : : : : : : : : S ) h o O # # # # # # # # # # # # # # ",
"# # # # # # # # # # # # # # # O O m ^ u : : : : : : : : : : : : : : : : : : : : : : : : x P H o O # # # # # # # # # # # # # # # ",
"# # # # # # # # # # # # # # # # O . : : : : : : : : : : : : : : : : : : : : : : : : : : : : : + O w # # # # # # # # # # # # # # ",
"# # # # # # # # # # # # # # # # : : : : : : : : : : : : : : : : : : : : : : : : : : : : : : : : : # # # # # # # # # # # # # # # ",
"# # # # # # # # # # # # # # + : : : : : : : : : : : : : : : : : : : : : : : : : : : : : : : : : : : # # # # # # # # # # # # # # ",
"# # # # # # # # # # # # # # : : : : : : : : : : : : : : : c T / / W M : : : : : : : : : : : : : : : @ # # # # # # # # # # # # # ",
"# # # # # # # # # # # } # : : : : : : : : : : : : : : p ) [ ' ) ^ ) ' _ g : : : : : : : : : : : : : : # # # # # # # # # # # # # ",
"# # # # # # # # # # # # # : : : : : : : : : : : : : : ' J q         4 A ' p : : : : : : : : : : : : : # # # # # # # # # # # # # ",
"# # # # # # # # # # # # + : : : : : : : : : : : : : P b           0 o   f T : : : : : : : : : : : : : : # # # # # # # # # # # # ",
"# # # # # # # # # # # # : : : : : : : : : : : : : : V + o o o O O O o o O F : : : : : : : : : : : : : : # # # # # # # # # # # # ",
"# # # # # # # # # # # # : : : : : : : : : : : : : : k o O O O # # # # O o r : : : : : : : : : : : : : : # # # # # # # # # # # # ",
"# # # # # # # # # # # # : : : : : : : : : : : : : : > O # # # # # # # O O o u : : : : : : : : : : : : : # # # # # # # # # G # # ",
"# # # # # # # # # # # # : : : : : : : : : : : : : : : # # # # # # # # # # O : : : : : : : : : : : : : : = # # # # # # # # # # # ",
"# # # # # # # # # # # # u : : : : : : : : : : : : : : # # # # # # # # # # : : : : : : : : : : : : : : : , # # # # # # 8 # # # # ",
"# # # # # # # # # # # # M : : : : : : : : : : : : : : : # # # # # # # # # : : : : : : : : : : : : : : u + # # # # # # # # # # # ",
"# # # # # # # # # # # # K : : : : : : : : : : : : : : : : + # # # # # = : : : : : : : : : : : : : : : C # # # # # # # # # # # # ",
"# # # # # # # # # # # # s c : : : : : : : : : : : : : : : : : : : : : : : : : : : : : : : : : : : : : J # # # # # # # # # # # # ",
"# # # # # # # # # # # # & T : : : : : : : : : : : : : : : : : : : : : : : : : : : : : : : : : : : : I B # # # # # # # # # # # # ",
"# # # # # # # # # # # # + Y z : : : : : : : : : : : : : : : : : : : : : : : : : : : : : : : : : : u E @ # # # # # # # # # # # # ",
"# # # # # # # # # # # # # k ] : : : : : : : : : : : : : : : : : : : : : : : : : : : : : : : : : : ! A O # # # # # # # # # # # # ",
"# # 8 # # # # # # # # # # O K ] : : : : : : : : : : : : : : : : : : : : : : : : : : : : : : : : R ' o O # # # # # # # # # # # # ",
"# # # # # # # # # # # # # O $ ' ] p : : : : : : : : : : : : : : : : : : : : : : : : : : : : : T | < O # # # # # # # # # # # # # ",
"# # # # # # # # # # # # # # O - ' @.c : : : : : : : : : : : : : : : : : : : : : : : : : : 7 ( @.y O # # # # # # # # # # # # # # ",
"# # # # # # # # # # # # # # # O O Y %.( : : : : : : : : : : : : : : : : : : : : : : : : D X...9 o O # # # # # # # # # # # # # # ",
"# # # # # # # # # # # # # # # O o O k @.&.Q c : : : : : : : : : : : : : : : : : : u C X.*.E - o O # # # # e # # # # # # # # # # ",
"# # # # # # # # # # # # # # # # O o o @ Y +.-.#.' D i : : : : : : : : : : : l U  .%.*.' j o o O # # # # # # # # # # # G # # # # ",
"# # # # # # # # # # # # # # # # # O o o o & y ) &.*.-.-.O. .] ` ( ( ` ] O.;.-.*.$.P < O o o O # # # # # # # # # # # # # # # # # ",
"# # # # # # # # # # # # # # # # # # O O o o o o @ f A Y ^ _ [ | ....| [ ^ Y Z r     o o O # # # # # # # # # # # # # # # # # # # ",
"# # # # # # # # # # # # # # # # # # # # # O O o o o                       o o o o o O O # # # # # # # # # # # # # # # # # # # # ",
"# # # # # # # # # # # ~ # # # # # # # # # # # # O O o o o o o o o o o o o o 1 O o o # # # # # # # # # # # # # # # # # # # # # # ",
"# # # # # # # # # # # # # # # # # # # # # # # # # # # # # O O O O O O O # # # # # # # # # # # # # # # # # # # 8 # # # # # # # # ",
"# # # # # # # # # # # # # # # # # # # # # # # # # # # # # # # # # # # # # # # # # # # # # # # # # # # # # # # # # # # # 8 # # # ",
"# # # # # # # # # # # # # # # # # # # # # # # # # # # # # # # # # # # # # # # # # # # # # # # # # # # # # # # # # # # # # # # # ",
"# # # # # # # # # # # # # # # # # # # # # # # # # # # # # # # # # # # # # # # # # # # # # # # # # # # # # # # # # # # # # # # # ",
"# # # # # # # # # # # # # # # # # # # # # # # # # # # # # # # # # # # # # # # # # # # # # # # # # # # # # # # # # # # # # G # # ",
"# # # # # # # # # # # # # # # # # # # # # # # # # # # # # # # # # # # # # # # # # # # # # # # # # # # # # # # # # # # # # # # # ",
"# # # # # # # # # # # # # # # # # # # # # # # # # # # # # # # # # # # # # # # # # # # # # # # # # # # # # # # # # # # # # # # # ",
"# # # # # # # # # # # # # # # # # # # # # # # # # # # # # # # # # # # # # # # # # # # # # # # # # # # # # # # # # # # # # # # # ",
"# # # # # # # # # # # # # # # # ~ # # # # # # # # # # # # # # # # # # # # # # # # # # # # # # # # # # # # # # # # # # # # # # # "
};
