/* XPM */
static char *bdc4423f2ce442209d936715689d4def4O1AFh8v3VN2f39h[] = {
/* columns rows colors chars-per-pixel */
"64 64 111 2 ",
"   c #120E1F",
".  c #15111F",
"X  c #18151F",
"o  c #130F21",
"O  c #161125",
"+  c #181427",
"@  c #1C1926",
"#  c #181328",
"$  c #1E1B2A",
"%  c #201E2A",
"&  c #1F2439",
"*  c #282426",
"=  c #24222D",
"-  c #3F3B26",
";  c #3A372E",
":  c #3D3A2C",
">  c #272530",
",  c #292731",
"<  c #2D2B34",
"1  c #302F35",
"2  c #393734",
"3  c #343239",
"4  c #39383F",
"5  c #433F2B",
"6  c #413F3F",
"7  c #44402E",
"8  c #4E4C3D",
"9  c #514E3E",
"0  c #56523F",
"q  c #262B44",
"w  c #3D3C42",
"e  c #403F44",
"r  c #3A4465",
"t  c #464441",
"y  c #4C4B45",
"u  c #464649",
"i  c #4B4A4E",
"p  c #514E42",
"a  c #535143",
"s  c #58564A",
"d  c #5C584A",
"f  c #4E4D50",
"g  c #504F53",
"h  c #535253",
"j  c #5A5957",
"k  c #5A5A5C",
"l  c #615F5B",
"z  c #626055",
"x  c #64625B",
"c  c #69675B",
"v  c #5E5E60",
"b  c #605F62",
"n  c #53617E",
"m  c #626265",
"M  c #6D6C65",
"N  c #686769",
"B  c #6C6C6D",
"V  c #737166",
"C  c #75746D",
"Z  c #7E7B6F",
"A  c #6E6E70",
"S  c #737273",
"D  c #787775",
"F  c #7C7B73",
"G  c #787778",
"H  c #7B7A7B",
"J  c #838177",
"K  c #84837E",
"L  c #89877F",
"P  c #5A6988",
"I  c #697486",
"U  c #7E7E80",
"Y  c #848484",
"T  c #8C8A84",
"R  c #8B8B8B",
"E  c #93938E",
"W  c #908F90",
"Q  c #939394",
"!  c #9C9B95",
"~  c #9B9B9B",
"^  c #A5A49D",
"/  c #8695AE",
"(  c #9F9FA0",
")  c #8B9BB4",
"_  c #A4A4A2",
"`  c #ACABA6",
"'  c #AAAAAA",
"]  c #B1AFA8",
"[  c #B3B2AD",
"{  c #B4B4B3",
"}  c #BAB9B6",
"|  c #BBBBBB",
" . c #C0BFB9",
".. c #C4C3BF",
"X. c #BBC5D6",
"o. c #C3C3C2",
"O. c #C7C7C8",
"+. c #CCCCCB",
"@. c #D2D1CE",
"#. c #C0CBDC",
"$. c #D3D3D2",
"%. c #D9D9D6",
"&. c #DCDBD9",
"*. c #E0DFDC",
"=. c #E0E0DF",
"-. c #E2E2E2",
";. c #E6E6E5",
":. c #E8E8E7",
">. c #EFEFEE",
",. c #F0F0EF",
"<. c gray96",
/* pixels */
"# # # # # # # # # # # # # # # # # # # # # # # # # # # # # # # # # # # # # # # # # # # # # # # # # # # # # # # # # # # # # # # # ",
"# # # #.# # # # # # # # # r # # # # # # # # # # # # # # # # # # # # # # # # # # # # # # q # # # # # # # # # # # # # # # # # # # ",
"# # # # # # # # # # # # # # # # # # # # # # # # # # # # # # # # # # # # # # # # # # # # # # # # # # # # # # # # # # # # # # # # ",
"# # # # # # # # # # # # # # # # # # # # # # # # # # # # # # # # # # # # # # # # # # # # # # # # # # # # # # # # # # # # # # # # ",
"# # # # # # # # # # # # # # # # # # # # # # # # # # + + # # # # # + + # # # # # # # # # # # # # # # # # # # # # # # # # # # # # ",
"# # # # # # # # # # # # # # # # # # P # # # # #   - - - - - - - - - - -   o r # # # #.# # # # # # # # # # # # # # # # # # # # # ",
"# # # # # # # # # # # # # # # # # # # # # o - - - - - - - - - - - - - - - - - - # + # # # # # # # # # # # # # # # # # # # # # # ",
"# # # # # # # # # # # # # # + + # # +   - - - - - - - - - - - - - - - - - - - - - - O # # # # # # # # # # # # # # # # # # # # # ",
"# # # # # # # # # # # # # # # # # # - - - - - - - - - - - - - - - - - - - - - - - - - - # # # # # # # # # # # # # # # # # # # # ",
"# # # # # # # # # # # # # # # #   - - - - - - - - - - - - - - - - - - - - - - - - - - - - O # # # # # # # # # # # # # # # # # # ",
"# # # # # # # # # # # # # # # O - - - - - - - - - - - - - - - - - - - - - - - - - - - - - - . # # # # # # # # # # # # # # # # # ",
"# # # # # # # # # # # # # # # - - - - - - - - - - - - - - - - - - - - - - - - - - - - - - - - O # # # # # # # # # # # # # # # # ",
"# # # # # # # # # # # # # # - - - - - - - - - - - - - - - - - - - - - - - - - - - - - - - - - - # # # # # # # # # # # # # # # # ",
"# # # # # # # # # # # # + O - - - - - - - - - - - - - - - - - - - - - - - - - - - - - - - - - - - # # # # # # # # # # # q # # # ",
"# ) # # # # # # # # # # # - - - - - - - - - - - - - - - - - t h h - - - - - - - - - - - - - - - - # # # # # # # # # # # # # # # ",
"# # # # # # # # # # # # # - - - - - - - - - - - - - - - M Q Q Q Q Q G - - - - - - - - - - - - - - - # r # # # # # # # # # # # # ",
"# # # r # # # # # # # # . - - - - - - - - - - - - - - H Y k 1 + O u G Y - - - - - - - - - - - - - - # + # # # # # # # # # # # # ",
"# # # # # # # # # # + # - - - - - - - - - - - - - - x N @     o     O b D - - - - - - - - - - - - - X # # # # # # # # # # # # # ",
"# # # # # # # # # # # # - - - - - - - - - - - - - - k @ o o o o o o o   N y - - - - - - - - - - - - - # + # # # # # # # # # # # ",
"# # # # # # # # # # # # - - - - - - - - - - - - - - f o o O # # O O o o = j - - - - - - - - - - - - - # # # # # # # # # # # # # ",
"# # # # # # # # # + # # - - - - - - - - - - - - - - 2 o # # # # # # O O O - - - - - - - - - - - - - - O # + # # # # # # # # # # ",
"# # # # + + # # # + # # - - - - - - - - - - - - - - + O # # # # # # # O O - - - - - - - - - - - - - - - # # # # # # # # # # # # ",
"# # # # + + # # # # # # - - - - - - - - - - - - - - X O # # # # + # # # O - - - - - - - - - - - - - - - / # # # # # # # # # # # ",
"# # # # # # + # # # # # y - - - - - - - - - - - - - - # # # # # # + # # O - - - - - - - - - - - - - - - # # # # # # q # # # # # ",
"# # # # # # # # + # # # l - - - - - - - - - - - - - - # # + # # # # # # I - - - - - - - - - - - - - - - # # + # # # # # # # # # ",
"# # # # # # # # # # # # k - - - - - - - - - - - - - - - # + # # # # # + - - - - - - - - - - - - - - - - - # + # # # # # # # # # ",
"# # # # # # # # # # # # = z - - - - - - - - - - - - - - - @ @ @ @ @ - - - - - - - - - - - - - - - - - - - # # # # # # # # # # # ",
"# # # # # # # # # + # # @ C - - - - - - - - - - - - - - - - - - - - - - - - - - - - - - - - - - - - - - - # # # # # # # # # # # ",
"# # # # # # # # # # # # # B p - - - - - - - - - - - - - - - - - - - - - - - - - - - - - - - - - - - - - - # # # # # # # # # # # ",
"# # # # # # # # + + # # # 4 E - - - - - - - - - - - - - - - - - - - - - - - - - - - - - - - - - - - - - - # # # # # # # # # # # ",
"# # # # # # # # # # # # # O H K - - - - - - - - - - - - - - - - - - - - - - - - - - - - - - - - - - - - : # # # # # # # # # # # ",
"# # # # # # # # # # + X.# O % ~ C - - - - - - - - - - - - - - - - - - - - - - - - - - - - - - - - - - - ; # # # # # # # # # # # ",
"# # # # # # # # # # # # # # O w ' K - - - - - - - - - - - - - - - - - - - - - - - - - - - - - - - - - - 2 # # # # # # # # # # # ",
"# # # # # # # # # # # # # # # o e ' ' s - - - - - - - - - - - - - - - - - _ V - - - - - - - - - - - - - ; # # # # # # # # # # # ",
"# # # # # # # # # # # # # # # O o O Q | E x - - - - - - - - - - - - 8 T | ~ p - - - - - - - - - - - - - $ # # # # # # # # # # # ",
"# # # # # # # # # # # # # # # # O o O i _ o.} L d - - - - - - 7 V _ o.{ m @ - - - - - - - - - - - - - d # # # # # # # # # # # # ",
"# # # # # # # # # # # # # # # # # O o     i ~ { O.O...} [ | o.+.| ' S       - - - - - - - - - - - - - C # # # # # # # # # P # # ",
"# # # # # # # # # # # # # # # # # # O O o o O , w g v A H N k i 3 @ o o o - - - - - - - - - - - - - - B # # # # # # # # # # # # ",
"# # # # # # # # # # # # # + # # # # # # O O o o o o o o o o o o o o o o o - - - - - - - - - - - - - z 3 # # # # # # # q # # # # ",
"# # # # # # # # # # # # # @ @ @ @ * * * * * - - - - O o o o o O O O # # + - - - - - - - - - - - - - K $ # # # # # # # # # # # # ",
"# # # # # # # # # # # # # - - - - - - - - - - - - - - o # # # # # # # # - - - - - - - - - - - - - 7 S @ # # # # # # # # # # # # ",
"# # # # # # # # # # # # # 6 - - - - - - - - - - - - - - # # # # # # + - - - - - - - - - - - - - - z S # # # # + # # # # # # # # ",
"# # # # # # # # # # # # + B p - - - - - - - - - - - - - - * # # # - - - - - - - - - - - - - - - - [ = n # # # # # # # # # # # # ",
"# # # # # # # # # # # # # k V - - - - - - - - - - - - - - - - - - - - - - - - - - - - - - - - - T H o # # # # # # # # # # # # # ",
"# # # # # # # # + # # + # # { - - - - - - - - - - - - - - - - - - - - - - - - - - - - - - - - a ` > # # # + # # # # # # # # # # ",
"# # q # # # # # + # # # # # A ! - - - - - - - - - - - - - - - - - - - - - - - - - - - - - - - } H O # # # # # # # # # # # # # # ",
"# # # # # # # # + + # # # # = { c - - - - - - - - - - - - - - - - - - - - - - - - - - - - - ` W o # # # + # # # # # # # # # # # ",
"# # # # # # # # # # # # # # O m @.M - - - - - - - - - - - - - - - - - - - - - - - - - - - ` | , O # # # # # # # # # # # # # # # ",
"# # # # # # # # # # # + # # # o B &.V - - - - - - - - - - - - - - - - - - - - - - - - p { o.< o O # # + # + # # # # # # # # # # ",
"# # # # # # # # # # # # # # # O o U =.{ d - - - - - - - - - - - - - - - - - - - - - J %.| 3 O O # # # + # r # # # # # # # # # # ",
"# # # # # # # # # # # # + # # # O o h $.:.^ x 5 - - - - - - - - - - - - - - - 9 C +.;.R = o O # # # # + # # # # # # # P # # # # ",
"# # # # # # # # # # # # # # # # O O o   Y $.>.%.[ Z 0 - - - - - - - - - - F } &.>.{ k   o O # # # + # # # # # # # # # # # # # # ",
"# # # # # # # # # # # # # # # # # O O o o % h { ;.>.<.,.@...} [ ` ]  .*.<.>.-.( 3 O o o O # # # + # # # # # # # # # # # # # # # ",
"# # # # # # # # # # # # # # # # # # O O o o o o % k U Q ' { | o.+.O.| ( R k   o   o O O # # # + # # # # # # # # # # # # # # # # ",
"# # # # # # # # # # # ) # # # # # # # # # O O o o o o                   o o & o O O # # # # + # # # # # # # # # # # # # # # # # ",
"# # # # # # # # # # # # # # # # # # # # # # # # O O o o o o o o o o o o o O O # O # # # # + # # # # # # # # # q # # # # # # # # ",
"# # # # # # # # # # # # # # # # # # # # # # # # # # # # # O O O O O O # # # # # # # # + # # # # # # # # # # # # # # # # q # # # ",
"# # # # # # # # # # # # # # # # # # # # + # # # # # # # # # # # # # # # # # # # # + # # # # # # # # # # # # # # # # # # # # # # ",
"# # # # # # # # # # # # # # # # # # # # # # # + # # # # # # # # # # # # # # + + # # # # # # # # # # # # # # # # # # # # # # # # ",
"# # # # # # # # # # # # # # # # # # + # # # # # # # # + # # + + + + # # # # # # # + # # # # # # # # # # # # # # # # # # # P # # ",
"# # # # # # # # # # # # # # # # # # # # # # # # # # # # # # # # # # # # # # # # # # # # # # # # # # # # # # # # # # # # # # # # ",
"# # # # # # # # # # # # # # # # # # # # # # # # # # # # # # # # # # # # # # # # # # # # # # # # # # # # # # # # # # # # # # # # ",
"# # # # # # # # # # # # # # # # # # # # # # # # # # # # # # # # # # # # # # # # # # # # # # # # # # # # # # # # # # # # # # # # ",
"# # # # # # # # # # # # # # # # ) # # # # # # # # + # # # # # # # + # # # # # # # # # # # # # # # # # # # # # # # # # # # # # # "
};
