/* XPM */
static char *_c38cf73b89e466b9095d668ba4aa6d2_1[] = {
/* columns rows colors chars-per-pixel */
"64 64 23 1 ",
"  c black",
". c #181328",
"X c #262B44",
"o c #323353",
"O c #7A3045",
"+ c #3A4466",
"@ c #484A77",
"# c #694F62",
"$ c #8E1F2D",
"% c #AE2334",
"& c #9E4539",
"* c #CD683D",
"= c #E6904E",
"- c #5A6988",
"; c #7F708A",
": c #4D65B4",
"> c #4D9BE6",
", c #8B9BB4",
"< c #9BABB2",
"1 c #C0CBDC",
"2 c #C7DCD0",
"3 c #E9E5E1",
"4 c white",
/* pixels */
"................................................................",
"...1.........+..............................X...................",
"................................................................",
"................................................................",
"................................................................",
"..................-...................+...1.....................",
"................................................................",
"................................................................",
"................................................................",
"................................................................",
"................................................................",
".............................................,..................",
".................................-..............................",
"........................,...........X.......................X...",
".,..............................................................",
"................................X..................+............",
"...+............................................................",
".....................      .....................................",
"..................... <2#<< ....................................",
"...................... <2##& ...................................",
"...................... <2OO## ..................................",
"....................... <2##&& .................................",
"....................... <#2@@&& ....................,...........",
"........................ <222#22 .........................X.....",
"........................ <22#@@22 ..,...........................",
"......................... <##222&& .............................",
"...................-..... <#<<OOOOO ..........,.................",
".........................              ..........+..............",
"..................... ...          $*==  .......................",
".................... %    ##OO<<<<<$2@@22  .....................",
"..................... 22&&&;#&&&2222$@@oo22 ....................",
"...........1....X... 222222*;**22##2::o:::22 ...................",
".................... =44444;;444;444::oo>>44 ...................",
"................... **==44;;44;;;4444o>oo=* ....................",
"...................       #22#22###24>o=*  .....................",
".........................          22=   .......................",
".........................              ......................-..",
"......................... &&&&222&O ........3...................",
"......................... &**##444 ........................X....",
"........................ &*##4444 ..............................",
"........................ ##44444 .............X.................",
"....................... &*##444 ................................",
"................X...... &*4444 ....................-............",
"..................-... 2444%% ..................................",
"...................... &*$%% ..............,....................",
"..X.................. &*$$& ....................................",
".....................      .....................................",
"..................................-.............................",
"................................................................",
".....................................................+..........",
"...........................................................-....",
".............................-..................................",
"................................................................",
"................................................................",
"...........,..........................X.........................",
".......................................................X........",
"............................................................X...",
"................................................................",
"................................................................",
".............................................................-..",
"................................................................",
"................................................................",
"................................................................",
"................,..............................................."
};
