/* XPM */
static char *_a4d4109e4534cafde15459c67319f57FLXecxXgAQ7Domp1[] = {
/* columns rows colors chars-per-pixel */
"64 64 23 1 ",
"  c black",
". c #181328",
"X c #262B44",
"o c #323353",
"O c #7A3045",
"+ c #3A4466",
"@ c #484A77",
"# c #694F62",
"$ c #8E1F2D",
"% c #AE2334",
"& c #9E4539",
"* c #CD683D",
"= c #E6904E",
"- c #5A6988",
"; c #7F708A",
": c #4D65B4",
"> c #4D9BE6",
", c #8B9BB4",
"< c #9BABB2",
"1 c #C0CBDC",
"2 c #C7DCD0",
"3 c #E9E5E1",
"4 c white",
/* pixels */
"................................................................",
"...1.........+..............................X...................",
"................................................................",
"................................................................",
"................................................................",
"..................-...................+...1.....................",
"................................................................",
"................................................................",
"................................................................",
"................................................................",
"................................................................",
".............................................,..................",
".................................-..............................",
"........................,...........X.......................X...",
".,..............................................................",
"................................X..................+............",
"...+............................................................",
".....................................      .....................",
".................................... &$$*& .....................",
"................................... %%$*& ......................",
".................................. %%4442 ......................",
"................................. 4444*& .......................",
"................................ 444##*& ...........,...........",
"............................... 44444## ..................X.....",
".............................. 4444##*& ........................",
"............................. 444##**& .........................",
"...................-........ O&222&&&& .......,.................",
".........................              ..........+..............",
".......................   =22          .........................",
".....................  *=o>42###22#22#       ...................",
".................... *=oo>o4444;;;44;;44==** ...................",
"...........1....X.. 44>>oo::444;444;;44444= ....................",
"................... 22:::o::2##22**;*222222 ....................",
".................... 22oo@@$2222&&&#;&&&22 .....................",
".....................  22@@2$<<<<<OO##    % ....................",
".......................  ==*$          ... .....................",
".........................              ......................-..",
"............................ OOOOO<<#< .....3...................",
"............................. &&222##< ....................X....",
".............................. 22@@#22< ........................",
"............................... 22#222< ......X.................",
"................................ &&@@2#< .......................",
"................X................ &&##2< ..........-............",
"..................-..........-.... ##OO2< ......................",
"................................... &##2< .,....................",
"..X................................. <<#2< .....................",
".....................................      .....................",
"..................................-.............................",
"................................................................",
".....................................................+..........",
"...........................................................-....",
".............................-..................................",
"................................................................",
"................................................................",
"...........,..........................X.........................",
".......................................................X........",
"............................................................X...",
"................................................................",
"................................................................",
".............................................................-..",
"................................................................",
"................................................................",
"................................................................",
"................,..............................................."
};
