/* XPM */
static char *_1933bf0c2984406d91a555ee450bb82jAGPtQYqhWsCKc7j[] = {
/* columns rows colors chars-per-pixel */
"64 64 23 1 ",
"  c black",
". c #181328",
"X c #262B44",
"o c #323353",
"O c #7A3045",
"+ c #3A4466",
"@ c #484A77",
"# c #694F62",
"$ c #8E1F2D",
"% c #AE2334",
"& c #9E4539",
"* c #CD683D",
"= c #E6904E",
"- c #5A6988",
"; c #7F708A",
": c #4D65B4",
"> c #4D9BE6",
", c #8B9BB4",
"< c #9BABB2",
"1 c #C0CBDC",
"2 c #C7DCD0",
"3 c #E9E5E1",
"4 c white",
/* pixels */
"................................................................",
"...1.........+..............................X...................",
"................................................................",
"................................................................",
"................................................................",
"..................-...................+...1.....................",
"................................................................",
"................................................................",
"................................................................",
"................................................................",
"................................................................",
".............................................,..................",
".................................-..............................",
"........................,...........X.......................X...",
".,..............................................................",
"................................X..................+............",
"...+............................................................",
"................................................................",
".............................  .................................",
"............................. *  . .............................",
".................  .......... *=2 % .........  .................",
"................. &  ........ =422 ........  < .................",
"................. *&2  ...... =422 ......  <<2 .....,...........",
"................. $*4&&  .... 442& ....  <<22# ...........X.....",
"................. $$4**#&     442&     <<#2O#< .................",
"................. &%44##*&&  #;42&#  <<222#O#< .................",
".................. %%4#4#*&  2;;*;#  ##22@##& ,.................",
"................... %444#*&  24;;#O  <##2@&# ....+..............",
".................... 4444#&  #44*&O  <2@#&& ....................",
"..................... 444#2  2;4*&<  O2@2& .....................",
"...................... 4442  2;42&<  O222 ......................",
"...........1....X...... 442  #;;22<  O&2 .......................",
"........................ 4&  #44#2<  O& ........................",
"......................... O  #44#2<  O .........................",
"..........................  224422$$  ..........................",
"........................... 244::$2* ...........................",
"........................... =>o::@@= ........................-..",
"...........................  o>oo@@= .......3...................",
"............................ =oo:o2 .......................X....",
"............................ *o>:o2 ............................",
"............................. =>:2 ...........X.................",
"............................. *422 .............................",
"................X............. 42 .................-............",
"..................-..........-.  ...............................",
"...........................................,....................",
"..X.............................................................",
"................................................................",
"..................................-.............................",
"................................................................",
".....................................................+..........",
"...........................................................-....",
".............................-..................................",
"................................................................",
"................................................................",
"...........,..........................X.........................",
".......................................................X........",
"............................................................X...",
"................................................................",
"................................................................",
".............................................................-..",
"................................................................",
"................................................................",
"................................................................",
"................,..............................................."
};
