/* XPM */
static char *_c1eab39a5cd4d20a295694ba100d227[] = {
/* columns rows colors chars-per-pixel */
"64 64 22 1 ",
"  c black",
". c #181328",
"X c #262B44",
"o c #323353",
"O c #7A3045",
"+ c #3A4466",
"@ c #484A77",
"# c #694F62",
"$ c #8E1F2D",
"% c #AE2334",
"& c #9E4539",
"* c #CD683D",
"= c #E6904E",
"- c #5A6988",
"; c #7F708A",
": c #4D65B4",
"> c #4D9BE6",
", c #8B9BB4",
"< c #9BABB2",
"1 c #C0CBDC",
"2 c #C7DCD0",
"3 c white",
/* pixels */
"................................................................",
"...1.........+..............................X...................",
"................................................................",
"................................................................",
"................................................................",
"..................-...................+...1.....................",
"................................................................",
"................................................................",
"................................................................",
"................................................................",
"................................................................",
".............................................,..................",
".................................-..............................",
"........................,...........X.......................X...",
".,..............................................................",
"................................X..................+............",
"...+............................................................",
"................................................................",
"................................................................",
"...............................  ...............................",
".............................. 23 ..............................",
"............................. 223* .............................",
"............................. 2:>= .................,...........",
"............................ 2o:>o* ......................X.....",
"............................ 2o:oo= ,...........................",
"........................... =@@oo>o  ...........................",
"...................-....... =@@::o>= .........,.................",
"........................... *2$::332 ............+..............",
"..........................  $$223322  X.........................",
"......................... O  <2#33#  O .........................",
"........................ &O  <2#33#  &3 ........................",
"...........1....X...... 2&O  <22;;#  233 .......................",
"...................... 222O  <&23;2  2333 ......................",
"..................... &2@2O  <&*3;2  2#333 .....................",
".................... &&#@2<  O&*33#  &#3333 ....................",
"................... #&@2##<  O#;;32  &*#333% ...................",
".................. &##@22##  #;*;;2  &*#3#3%% ...............-..",
"................. <#O#222<<  #&23;#  &&*##33%& .................",
"................. <#O2#<<     &233     &#**3$$ ............X....",
"................. #22<<  .... &233 ....  &&3*$ .................",
"................. 2<<  ...... 223= ......  2&* .................",
"................. <  ........ 223= ........  & .................",
"................X  ......... % 2=* ..........  ....-............",
"..................-.......... .  * .............................",
".................................  ........,....................",
"..X.............................................................",
"................................................................",
"..................................-.............................",
"................................................................",
".....................................................+..........",
"...........................................................-....",
".............................-..................................",
"................................................................",
"................................................................",
"...........,..........................X.........................",
".......................................................X........",
"............................................................X...",
"................................................................",
"................................................................",
".............................................................-..",
"................................................................",
"................................................................",
"................................................................",
"................,..............................................."
};
