/* XPM */
static char *d4ff2530fc4e43facf8e3a1eddac6424ycik9whR0FHdHb1a[] = {
/* columns rows colors chars-per-pixel */
"64 64 209 2 ",
"   c #020203",
".  c #000807",
"X  c #140D0D",
"o  c #17100F",
"O  c #18100F",
"+  c #1A0A13",
"@  c #1C1412",
"#  c #1F1E10",
"$  c #1C1D1B",
"%  c #211A15",
"&  c #241619",
"*  c #261B1A",
"=  c #291C1C",
"-  c #3C1313",
";  c #3F1817",
":  c #242114",
">  c #27221B",
",  c #2D211F",
"<  c #181328",
"1  c #291327",
"2  c #221428",
"3  c #2B1428",
"4  c #331528",
"5  c #3D1629",
"6  c #3E1929",
"7  c #2F2320",
"8  c #332523",
"9  c #3A2321",
"0  c #372826",
"q  c #3D2D2B",
"w  c #3C3828",
"e  c #3F3230",
"r  c #420008",
"t  c #4E1817",
"y  c #571919",
"u  c #6C1019",
"i  c #55201F",
"p  c #590E25",
"a  c #461527",
"s  c #4A1728",
"d  c #41192A",
"f  c #4B1A2A",
"g  c #581526",
"h  c #541A29",
"j  c #5C1A2A",
"k  c #6A0E27",
"l  c #780B26",
"z  c #671828",
"x  c #761727",
"c  c #791D2B",
"v  c #422D2C",
"b  c #582224",
"n  c #56212F",
"m  c #41312E",
"M  c #463532",
"N  c #4A3936",
"B  c #4F3D39",
"V  c #543535",
"C  c #533E3B",
"Z  c #6A232A",
"A  c #7C2626",
"S  c #7B252C",
"D  c #6A2833",
"F  c #6A3135",
"G  c #514637",
"H  c #54413D",
"J  c #59413E",
"K  c #545335",
"L  c #6E432D",
"P  c #262B44",
"I  c #432B43",
"U  c #3A4466",
"Y  c #5C4441",
"T  c #5F5140",
"R  c #920A2A",
"E  c #881C28",
"W  c #89262B",
"Q  c #932423",
"!  c #942627",
"~  c #9C242D",
"^  c #9C2A2A",
"/  c #8A3229",
"(  c #9D3322",
")  c #963A28",
"_  c #8A2831",
"`  c #9A2D31",
"'  c #883237",
"]  c #973639",
"[  c #A2252B",
"{  c #A32D2D",
"}  c #AA2D2D",
"|  c #B62A2E",
" . c #A63726",
".. c #A43B23",
"X. c #AA3B24",
"o. c #BA372A",
"O. c #A62F32",
"+. c #A53535",
"@. c #AA3C3D",
"#. c #B73838",
"$. c #B23E3F",
"%. c #C8372F",
"&. c #D03B2F",
"*. c #C73838",
"=. c #9B4A24",
"-. c #A94726",
";. c #AB4A23",
":. c #B64A25",
">. c #B35623",
",. c #B8582A",
"<. c #AD5437",
"1. c #BA6226",
"2. c #B97726",
"3. c #BD6134",
"4. c #C8432C",
"5. c #C64C2A",
"6. c #C2542A",
"7. c #C35928",
"8. c #C66929",
"9. c #D46E2A",
"0. c #C27528",
"q. c #D5712C",
"w. c #C66E33",
"e. c #C46C3B",
"r. c #D16931",
"t. c #C87035",
"y. c #D87A36",
"u. c #E3772F",
"i. c #E97D31",
"p. c #AA3E42",
"a. c #B84244",
"s. c #B25D44",
"d. c #817D50",
"f. c #B57852",
"g. c #A06676",
"h. c #C44546",
"j. c #DB4E4E",
"k. c #E15353",
"l. c #CB6E40",
"z. c #D47D45",
"x. c #C6922A",
"c. c #CB9329",
"v. c #CF8F36",
"b. c #EA8233",
"n. c #F58E34",
"m. c #F59235",
"M. c #F69537",
"N. c #CAA33F",
"B. c #FAA937",
"V. c #E8BF33",
"C. c #FAB835",
"Z. c #DBC22F",
"A. c #E4C92F",
"S. c #FBD72F",
"D. c #E5C834",
"F. c #FBCC34",
"G. c #EDDB32",
"H. c #FCD035",
"J. c #F7DA3A",
"K. c #FBE936",
"L. c #FBE239",
"P. c #918C59",
"I. c #969560",
"U. c #ADAB6D",
"Y. c #B2AF6F",
"T. c #DA824A",
"R. c #C8895B",
"E. c #E78B48",
"W. c #F09A4D",
"Q. c #EB9755",
"!. c #ECA548",
"~. c #F7AC4E",
"^. c #FAB847",
"/. c #F6A757",
"(. c #F5A55D",
"). c #C0A76C",
"_. c #C6B975",
"`. c #F2AC62",
"'. c #F7BD6E",
"]. c #F9CC42",
"[. c #FCD744",
"{. c #FBD64D",
"}. c #FCC356",
"|. c #FBE746",
" X c #FBEB44",
".X c #FBF344",
"XX c #FCF35C",
"oX c #D5C37A",
"OX c #F6C971",
"+X c #F7CB7A",
"@X c #FEE96D",
"#X c #FDF270",
"$X c #FEF572",
"%X c #5A6988",
"&X c #8B9BB4",
"*X c #D7D084",
"=X c #E5D485",
"-X c #F4D685",
";X c #FDF983",
":X c #FEF98B",
">X c #F7EC94",
",X c #F7F296",
"<X c #FEFA91",
"1X c #F7F399",
"2X c #F8F49C",
"3X c #FFFB9C",
"4X c #FFFDA3",
"5X c #C0CBDC",
"6X c #E9E5E1",
/* pixels */
"< < < < < < < < < < < < < < < < < < < < < < < < < < < < < < < < < < < < < < < < < < < < < < < < < < < < < < < < < < < < < < < < ",
"< < < 5X< < < < < < < < < U < < < < < < < < < < < < < < < < < < < < < < < < < < < < < < P < < < < < < < < < < < < < < < < < < < ",
"< < < < < < < < < < < < < < < < < < < < < < < < < < < < < < < < < < < < < < < < < < < < < < < < < < < < < < < < < < < < < < < < ",
"< < < < < < < < < < < < < < < < < < < < < < < < < < < < < < < < < < < < < < < < < < < < < < < < < < < < < < < < < < < < < < < < ",
"< < < < < < < < < < < < < < < < < < < < < < < < < < < < < < < < < < < < < < < < < < < < < < < < < < < < < < < < < < < < < < < < ",
"< < < < < < < < < < < < < < < < < < %X< < < < < < < < < < < < < < < < < < < U < < < 5X< < < < < < < < < < < < < < < < < < < < < ",
"< < < < < < < < < < < < < < < < < < < < < < < < < < < < < < < < 2 2 < < < < < < < < < < < < < < < < < < < < < < < < < < < < < < ",
"< < < < < < < < < < < < < < < < < < < < < < < < < < < < < < < 3 c W s < < < < < < < < < < < < < < < < < < < < < < < < < < < < < ",
"< < < < < < < < < < < < < < < < < < < < < < < < < < < < < < < 5 [ | z < < < < < < < < < < < < < < < < < < < < < < < < < < < < < ",
"< < < < < < < < < < < < < < < < < < < < < < < < < < < < < < < 4 Q [ j < < < < < < < < < < < < < < < < < < < < < < < < < < < < < ",
"< < < < < < < < < < < < < < < < < < < < < < < < < < < < < < < 1 l E a < < < < < < < < < < < < < < < < < < < < < < < < < < < < < ",
"< < < < < < < < < < < < < < < < < < < < < < < < < < < < < < < 6 / / b < < < < < < < < < < &X< < < < < < < < < < < < < < < < < < ",
"< < < < < < < < < < < < < < < < < < < < < < < < < < < < < < z ) x.N.<.l 4 < < < < < < < < < < < < < < < < < < < < < < < < < < < ",
"< < < < < < < < < < < < < < < < < < < < < < < < &X< < < < < l 5.V.G.y.R I < < < < < < < < < < < < < < < < < < < < < < < P < < < ",
"< &X< < < < < < < < < < < < < < < < < < < < < < < < < < < < k ;.A.G.0.R 4 < < < < < < < < < < < < < < < < < < < < < < < < < < < ",
"< < < < < < < < < < < < < < < < < < < < < < < < < < < < < < p =.Z.G.2.l 1 < < < < < < < < < < < < < < U < < < < < < < < < < < < ",
"< < < U < < < < < < < < < < < < < < < < < < < < < < < < 2 4 k -.Z.G.2.l s 2 < < < < < < < < < < < < < < < < < < < < < < < < < < ",
"< < < < < < < < < < < < < < < < < < < < < < < < < < < < s ! } 1.Z.G.x.X.{ z < < < < < < < < < < < < < < < < < < < < < < < < < < ",
"< < < < < < < < < < < < < < < < < < < < < < < < < < < < j | 4.0.A.G.c.5.%.E < < < < < < < < < < < < < < < < < < < < < < < < < < ",
"< < < < < < < < < < < < < < < < < < < < < < < < < < < < j | 4.0.A.G.c.5.%.E < < < < < < < < < < < < < < < < < < < < < < < < < < ",
"< < < < < < < < < < < < < < < < < < < < < < < < < < < < h [ o.2.A.G.c.:.| c < < < < < < < < < < < < < < < < < < < < < < < < < < ",
"< < < < < < < < < < < < < < < < < < < < < < < < < < < < a E X.2.A.G.c.;.^ z < < < < < < < < < < < < < < < < < < < < < < < < < < ",
"< < < < < < < < < < < < < < < < < < < < < < < < < < < < 5 E ..2.A.G.c.;.Q g < < < < < < < < < < < < < < &X< < < < < < < < < < < ",
"< < < < < < < < < < < < < < < < < < < < < < < < < < 2 j A ( ,.v.D.J.N.3.-.W z 4 < < < < < < < < < < < < < < < < < < P < < < < < ",
"< < < < < < < < < < < < < < < < < < < < < < < < < < 4 ! %.,.l.Q.{.|./.T.3.4.} h < < < < < < < < < < < < < < < < < < < < < < < < ",
"< < < < < < < < < < < < < < < < < < < < < < < < < < 4 [ &.7.y.W.[.L.~.E.8.4.| j < < < < < < < < < < < < < < < < < < < < < < < < ",
"< < < < < < < < < < < < < < < < < < < %X< < < < < < 4 ~ %.7.q.m.H.J.B.u.8.4.| j < < < < < < &X< < < < < < < < < < < < < < < < < ",
"< < < < < < < < < < < < < < < < < < < < < < < < < < 3 c X.>.q.m.H.J.B.u.1.:.! s < < < < < < < < < U < < < < < < < < < < < < < < ",
"< < < < < < < < < < < < < < < < < < < < < < < < < < < z ( >.9.n.H.L.B.u.1...W 5 < < < < < < < < < < < < < < < < < < < < < < < < ",
"< < < < < < < < < < < < < < < < < < < < < < < < < 2 d c ..,.y.M.J.|.B.b.8.-.W h 3 < < < < < < < < < < < < < < < < < < < < < < < ",
"< < < < < < < < < < < < < < < < < < < < < < < < < j ^ X.,.T.!.].@X#X{.^.E.e.-.{ c 3 < < < < < < < < < < < < < < < < < < < < < < ",
"< < < < < < < < < < < 5X< < < < P < < < < < < < < c %.5.w.Q.}.|.;X<XXX{.(.z.7.&.~ 4 < < < < < < < < < < < < < < < < < < < < < < ",
"< < < < < < < < < < < < < < < < < < < < < < < < < c %.5.t.Q.}. X;X<XXX{.(.z.7.&.~ 4 < < < < < < < < < < < < < < < < < < < < < < ",
"< < < < < < < < < < < < < < < < < < < < < < < < < z | :.w.E.^. X;X<XXX[.W.y.,.o.E 3 < < < < < < < < < < < < < < < < < < < < < < ",
"< < < < < < < < < < < < < < < < < < < < < < < < < g Q ;.8.b.C. X;X<XXXH.m.q.>. .x 3 < < < < < < < < < < < < < < < < < < < < < < ",
"< < < < < < < < < < < < < < < < < < < < < < < < < g Q ;.8.b.C. X;X<XXXF.m.9.>.( x 2 < < < < < < < < < < < < < < < < < < < < < < ",
"< < < < < < < < < < < < < < < < < < < < < < < < < g Q ;.8.i.C. X;X<XXXF.n.9.>.( x 2 < < < < < < < < < < < < < < < < < < < %X< < ",
"< < < < < < < < < < < < < < < < < < < < < < < < < j Q ;.8.b.C. X;X<XXXH.M.q.>.( x 4 < < 6X< < < < < < < < < < < < < < < < < < < ",
"< < < < < < < < < < < < < < < < < < < < < < < 4 Z / -.e.E.C.S. X;X<XXXS.F.!.z.,.) S s < < < < < < < < < < < < < < < < P < < < < ",
"< < < < < < < < < < < < < < < < < < < < < < < 5 W -.1.T./.[.K.XX:X<X#X.XK.}.Q.w.;.^ j < < < < < < < < < < < < < < < < < < < < < ",
"< < < < < < < < < < < < < < < < < < < < < < < 5 E X.1.u.~.J.XX:X3X3X<X$X X^.E.8.;.! j < < < P < < < < < < < < < < < < < < < < < ",
"< < < < < < < < < < < < < < < < < < < < < < < 4 x X.9.Q.OX@X;X3X4X4X4X:X#XOX`.y.:.Q g < < < < < < < < < < < < < < < < < < < < < ",
"< < < < < < < < < < < < < < < < P < < < < < < f W 6.E.OX>X,X,X2X2X2X2X1X,X>X-X/.r.( z 3 < < < < < < < %X< < < < < < < < < < < < ",
"< < < < < < < < < < < < < < < < < < %X< < < j / 6.Q.+XoXY.U.U.U.U.U.U.U.U.U._.+X`.r...Z 4 < < < < < < < < < < < < < < < < < < < ",
"< < < < < < < < < < < < < < < < < < < < < < x <.E.'.=XU.w @ > : : # # # : * P.*X+X(.l.g.6 < < < < < < < < < < < < < < < < < < < ",
"< < P < < < < < < < < < < < < < < < < < < < l s.oX=XI.K 8 & = = +       + v T d.oX-XR.E d < < < < < < < < < < < < < < < < < < < ",
"< < < < < < < < < < < < < < < < < < < < < < x <.).U.K   = , 8 0 * X % 7 q C V M I._.f.W d < < < < < < < < < < < < < < < < < < < ",
"< < < < < < < < < < < < < < < < < < < < < < S +.L w % X O o = 0 , * 0 M B C H Y G L ) _ d < < < < < < < < < < < < < < < < < < < ",
"< < < < < < < < < < < < < < < < < < < < < < S ^ u   X @ O X 7 M M M N B C C H Y q r ! _ d < < < < < < < < < < < < < < < < < < < ",
"< < < < < < < < < < < < < < < < < < < < < 2 S O.u . O @ @ % 0 B H B N M M M C Y m t ^ ` d < < < < < < < < U < < < < < < < < < < ",
"< < < < < < < < < < < < < < < < < < < < < 2 _ #.A . @ @ % , m B H N 8 * * = v J e y } O.f < < < < < < < < < < < < < < %X< < < < ",
"< < < < < < < < < < < < < < < < < < < < < 2 ] h.W . * , , 8 m B H N * X * * v J e y #.$.h < < < < < < < < < < < < < < < < < < < ",
"< < < < < < < < < < < < < < < < < < < < < 2 ] h.] i 9 8 0 0 m N C N 0 8 q q M C V S a.p.f < < < < < < < < < < < < < < < < < < < ",
"< < < < < < < < < < < < < < < < < < < < < < n ' a.@.b $ 0 0 0 m C Y C C J J N v ] a.] D 4 < < < < < < < < < < < < < < < < < < < ",
"< < < < < < < < < < < &X< < < < < < < < < < < d ] a.] Z = $ $ > q N N N N N F ' @.p.D < < < < < < < < < < < < < < < < < < < < < ",
"< < < < < < < < < < < < < < < < < < < < < < < 2 d ' h.+.t - - - - ; ; ; ; - / a.p.n 3 < < < < < < < < < < < < P < < < < < < < < ",
"< < < < < < < < < < < < < < < < < < < < < < < < < n ] @.$.$.@.^ ^ ^ ^ ^ ^ ^ ` ] D < < < < < < < < < < < < < < < < < < < P < < < ",
"< < < < < < < < < < < < < < < < < < < < < < < < < < 6 p.k.k.j.*.*.*.*.*.*.*.O.j < < < < < < < < < < < < < < < < < < < < < < < < ",
"< < < < < < < < < < < < < < < < < < < < < < < < < < < < < < < < < < < < < < < < < < < < < < < < < < < < < < < < < < < < < < < < ",
"< < < < < < < < < < < < < < < < < < < < < < < < < < < < < < < < < < < < < < < < < < < < < < < < < < < < < < < < < < < < < %X< < ",
"< < < < < < < < < < < < < < < < < < < < < < < < < < < < < < < < < < < < < < < < < < < < < < < < < < < < < < < < < < < < < < < < ",
"< < < < < < < < < < < < < < < < < < < < < < < < < < < < < < < < < < < < < < < < < < < < < < < < < < < < < < < < < < < < < < < < ",
"< < < < < < < < < < < < < < < < < < < < < < < < < < < < < < < < < < < < < < < < < < < < < < < < < < < < < < < < < < < < < < < < ",
"< < < < < < < < < < < < < < < < &X< < < < < < < < < < < < < < < < < < < < < < < < < < < < < < < < < < < < < < < < < < < < < < < "
};
