/* XPM */
static char *_d454753142844b5b0d0b88f87bcc61aAdj63E47JkeYrJMN[] = {
/* columns rows colors chars-per-pixel */
"64 64 207 2 ",
"   c #020203",
".  c #000807",
"X  c #140D0D",
"o  c #17100F",
"O  c #18100F",
"+  c #1A0A13",
"@  c #1C1412",
"#  c #1F1E10",
"$  c #1C1D1B",
"%  c #211A15",
"&  c #241619",
"*  c #261B1A",
"=  c #291C1C",
"-  c #3C1313",
";  c #3F1817",
":  c #252117",
">  c #2D211F",
",  c #181328",
"<  c #291327",
"1  c #221428",
"2  c #2B1428",
"3  c #331528",
"4  c #3D1629",
"5  c #3E1929",
"6  c #2F2320",
"7  c #332523",
"8  c #3A2321",
"9  c #372826",
"0  c #3D2D2B",
"q  c #3C3828",
"w  c #3F3230",
"e  c #4E1817",
"r  c #501113",
"t  c #6C1019",
"y  c #55201F",
"u  c #590E25",
"i  c #461527",
"p  c #4A1728",
"a  c #41192A",
"s  c #4B1A2A",
"d  c #581526",
"f  c #541A29",
"g  c #5C1A2A",
"h  c #6A0E27",
"j  c #780B26",
"k  c #671828",
"l  c #761727",
"z  c #791D2B",
"x  c #422D2C",
"c  c #562120",
"v  c #56212F",
"b  c #41312E",
"n  c #463532",
"m  c #4A3936",
"M  c #4F3D39",
"N  c #543535",
"B  c #533E3B",
"V  c #6A232A",
"C  c #7C2626",
"Z  c #7B252C",
"A  c #6A2833",
"S  c #6A3135",
"D  c #514637",
"F  c #54413D",
"G  c #59413E",
"H  c #545335",
"J  c #6E432D",
"K  c #262B44",
"L  c #3A4466",
"P  c #5C4441",
"I  c #5F5140",
"U  c #920A2A",
"Y  c #881C27",
"T  c #8D232C",
"R  c #89282A",
"E  c #932423",
"W  c #942627",
"Q  c #9C242D",
"!  c #9C2A2A",
"~  c #8A3229",
"^  c #9D3322",
"/  c #963A28",
"(  c #8A2831",
")  c #9A2D31",
"_  c #883237",
"`  c #973639",
"'  c #A2252B",
"]  c #A32D2D",
"[  c #AA2D2D",
"{  c #B62A2E",
"}  c #A63726",
"|  c #A43B23",
" . c #AA3B24",
".. c #BA372A",
"X. c #A62F32",
"o. c #A53535",
"O. c #AA3C3D",
"+. c #B73838",
"@. c #B23E3F",
"#. c #C8372F",
"$. c #D03B2F",
"%. c #C73636",
"&. c #C73838",
"*. c #9B4A24",
"=. c #A94726",
"-. c #AB4A23",
";. c #B64A25",
":. c #B35623",
">. c #B9592A",
",. c #AD5437",
"<. c #BA6226",
"1. c #B97726",
"2. c #BD6135",
"3. c #C8432C",
"4. c #C64C2A",
"5. c #C2542A",
"6. c #C35928",
"7. c #C66929",
"8. c #D46E2A",
"9. c #C27528",
"0. c #D5712C",
"q. c #C66E33",
"w. c #C46C3B",
"e. c #D16931",
"r. c #C87035",
"t. c #D87A36",
"y. c #E3772F",
"u. c #E97D31",
"i. c #A93D41",
"p. c #B84244",
"a. c #B25D44",
"s. c #817D50",
"d. c #B57852",
"f. c #C44648",
"g. c #DB4E4E",
"h. c #E15353",
"j. c #CB6E40",
"k. c #D47D45",
"l. c #C6922A",
"z. c #CB9329",
"x. c #CF8F36",
"c. c #EA8233",
"v. c #F58E34",
"b. c #F59235",
"n. c #F69537",
"m. c #C9A02C",
"M. c #FAA937",
"N. c #E8BF33",
"B. c #FAB835",
"V. c #DBC22F",
"C. c #E4C92F",
"Z. c #FBD72F",
"A. c #E5C834",
"S. c #FBCC34",
"D. c #EDDB32",
"F. c #FCD035",
"G. c #F7DA3A",
"H. c #FBE936",
"J. c #FBE239",
"K. c #918C59",
"L. c #969560",
"P. c #ADAB6D",
"I. c #B2AF6F",
"U. c #DA824A",
"Y. c #C8895B",
"T. c #E78B48",
"R. c #F09A4D",
"E. c #EB9755",
"W. c #ECA548",
"Q. c #F7AC4E",
"!. c #FAB847",
"~. c #F6A757",
"^. c #F5A55D",
"/. c #C0A76C",
"(. c #C6B975",
"). c #F2AC62",
"_. c #F7BD6E",
"`. c #F9CC42",
"'. c #FCD744",
"]. c #FBD64D",
"[. c #FCC356",
"{. c #FBE746",
"}. c #FBEB44",
"|. c #FBF344",
" X c #FCF35C",
".X c #D5C37A",
"XX c #F6C971",
"oX c #F7CB7A",
"OX c #FEE96D",
"+X c #FDF270",
"@X c #FEF572",
"#X c #5A6988",
"$X c #C27A8A",
"%X c #8B9BB4",
"&X c #D7D084",
"*X c #E5D485",
"=X c #F4D685",
"-X c #FDF983",
";X c #FEF98B",
":X c #F7EC94",
">X c #FEFA91",
",X c #F7F399",
"<X c #F8F49C",
"1X c #FFFB9C",
"2X c #FFFDA3",
"3X c #BAB5C3",
"4X c #C0CBDC",
/* pixels */
", , , , , , , , , , , , , , , , , , , , , , , , , , , , , , , , , , , , , , , , , , , , , , , , , , , , , , , , , , , , , , , , ",
", , , 4X, , , , , , , , , L , , , , , , , , , , , , , , , , , , , , , , , , , , , , , , K , , , , , , , , , , , , , , , , , , , ",
", , , , , , , , , , , , , , , , , , , , , , , , , , , , , , , , , , , , , , , , , , , , , , , , , , , , , , , , , , , , , , , , ",
", , , , , , , , , , , , , , , , , , , , , , , , , , , , , , , , , , , , , , , , , , , , , , , , , , , , , , , , , , , , , , , , ",
", , , , , , , , , , , , , , , , , , , , , , , , , , , , , , , , , , , , , , , , , , , , , , , , , , , , , , , , , , , , , , , , ",
", , , , , , , , , , , , , , , , , , #X, , , , , , , , , , , , , , , , , , , L , , , 4X, , , , , , , , , , , , , , , , , , , , , ",
", , , , , , , , , , , , , , , , , , , , , , , , , , , , , , , , , , , , , , , , , , , , , , , , , , , , , , , , , , , , , , , , ",
", , , , , , , , , , , , , , , , , , , , , , , , , , , , , , , , , , , , , , , , , , , , , , , , , , , , , , , , , , , , , , , , ",
", , , , , , , , , , , , , , , , , , , , , , , , , , , , , , , , , , , , , , , , , , , , , , , , , , , , , , , , , , , , , , , , ",
", , , , , , , , , , , , , , , , , , , , , , , , , , , , , , , , , , , , , , , , , , , , , , , , , , , , , , , , , , , , , , , , ",
", , , , , , , , , , , , , , , , , , , , , , , , , , , , , , , , , , , , , , , , , , , , , , , , , , , , , , , , , , , , , , , , ",
", , , , , , , , , , , , , , , , , , , , , , , , , , , , , , , , , , , , , , , , , , , , , %X, , , , , , , , , , , , , , , , , , ",
", , , , , , , , , , , , , , , , , , , , , , , , , , , , , , , , , #X, , , , , , , , , , , , , , , , , , , , , , , , , , , , , , ",
", , , , , , , , , , , , , , , , , , , , , , , , %X, , , , , , , , , , , K , , , , , , , , , , , , , , , , , , , , , , , K , , , ",
", %X, , , , , , , , , , , , , , , , , , , , , , , , , , , , , , , , , , , , , , , , , , , , , , , , , , , , , , , , , , , , , , ",
", , , , , , , , , , , , , , , , , , , , , , , , , , , , , , , , K , , , , , , , , , , , , , , , , , , L , , , , , , , , , , , , ",
", , , L , , , , , , , , , , , , , , , , , , , , , , , , , , , , , , , , , , , , , , , , , , , , , , , , , , , , , , , , , , , , ",
", , , , , , , , , , , , , , , , , , , , , , , , , , , , , , , , , , , , , , , , , , , , , , , , , , , , , , , , , , , , , , , , ",
", , , , , , , , , , , , , , , , , , , , , , , , , , , , , , , , , , , , , , , , , , , , , , , , , , , , , , , , , , , , , , , , ",
", , , , , , , , , , , , , , , , , , , , , , , , , , , , , , , , , , , , , , , , , , , , , , , , , , , , , , , , , , , , , , , , ",
", , , , , , , , , , , , , , , , , , , , , , , , , , , , , , , , , , , , , , , , , , , , , , , , , , , , , , , , , , , , , , , , ",
", , , , , , , , , , , , , , , , , , , , , , , , , , , , , , , , , , , , , , , , , , , 3 5 a a a a a s f s 3 , , , , , , , , , , ",
", , , , , , , , , , , , , , , , , , , , , , , , , , , , , , , , , , , , , , , , , , < V T Y T ( ( ) X.@.$XA , , , , , , , , , , ",
", , , , , , , , , , , , , , , , , , , , , , , , , , , , , , , , , , , , , , p g g d k | j.Y.d.` W ! [ +.p.` A 2 , , K , , , , , ",
", , , , , , , , , , , , , , , , , , , , , , , , , , , , , , < 3 3 2 < 1 %X3 Z ! W E ^ e.^.=X(.J r e e y Z p.i.v , , , , , , , , ",
", , , , , , , , , , , , , , , , , , , , , , , , , , , , , < z Q Q Y l l l l / -.=.;.e.).oX.XL.D 0 b w 0 N ` O.i.A , , , , , , , ",
", , , , , , , , , , , , , , , , , , , #X, , , 3 f g g p 4 f ] $.$...} ^ ^ ^ >.q.7.t.~.oX&Xs.n P P P G G B x _ p.` g , , , , , , ",
", , , , , , , , , , , , , , , , , , , , , , , k [ { { W Y R =.6.6.>.:.:.:.:.k.E.T.).=X(.K.I M G G B x x n M S R ) X., , , , , , ",
", , , , , , , , , , , , , , , , 1 k Y Y z k d R 3.3.3.=.| =.w.k.k.t.0.0.8.0.W.[.!.XX:XP.= x B B B n = * 0 G m - ! &., , , , , , ",
", , , , , , , , , , , , 3 4 3 < p ] #.#.{ ! E =.>.7.7.<.<.7.T.^.^.R.b.b.v.n.S.H.}.+X,XP.: + 0 M B n = * 0 G m ; ! &., , , , , , ",
", , , , , , , , , , , , j U U j j  .4.4.;.-.-.2.U.T.y.y.y.c.!.].].'.F.F.F.F.Z.|.@X;X,XP.#   6 n M n * X 7 B m ; ! &., , , , , , ",
", , , , , , , s k g i 3X,.t.9.1.1.l.z.z.z.z.z.x.~.Q.M.M.M.M.]. X X X X X X X X+X>X2X<XP.#   % 7 m m 7 = 9 B m ; ! &., , , , , , ",
", , , , , , 1 T { ' Y / m.D.D.D.D.D.D.D.D.D.D.G.{.J.G.J.J.{.+X>X>X>X>X>X>X>X>X>X1X2X<XP.#   X = n M m m M P m ; ! &., , , , , , ",
", , , , , , 1 z ' T j ~ l.N.C.V.V.V.C.C.C.C.C.A.].'.F.F.F.G.OX-X-X-X-X-X-X-X-X;X1X2X<XP.: + * > n F F F B B 0 - ! %., , , , , , ",
", , , , , , , 2 4 3 < 5 / 4.-.*.=.<.9.9.1.1.1.x.E.R.b.v.v.n.`.{.}.}.}.}.}.}.}. X;X1X<XP.: = 7 9 n M M M M b : - ! &., , , , , , ",
", , , , , , , , , , , , k j h u h [ 3.3...| | >.j.t.0.0.8.t.W.[.[.!.B.B.B.B.Z.H. X-X,XP.: = 7 = 6 9 b b b 9 $ - O.g., , , , , , ",
", , , , , , , , , , , , , , , , 3 T { { ' Y Y ^ >.6.6.:.:.>.U.E.E.T.c.u.u.c.B.'.G.OX,XP.@ & > o X % > 7 9 9 $ - @.h., , , #X, , ",
", , , , , , , , , , , , , , , , 1 p g g f i 4 C #.$.#. .^ | >.q.r.q.7.7.7.7.T.~.Q.XX:XI.q 7 = O O @ % > 7 9 = e @.h., , , , , , ",
", , , , , , , , , , , , , , , , , , , , , , , g T ' Q z h z  .4.4.;.-.-.-.-.w.U.y.E.XX.XP.H   X @ @ @ > 7 $ V o.O.i., K , , , , ",
", , , , , , , , , , , , , , , , , , , , , , , 1 3 3 3 < , a ! #.#.{ E E E E =.<.<.8.T.oX*XL.H % X O @ * 8 c ` f.` 5 , , , , , , ",
", , , , , , , , , , , , , , , , , , , , , , , , , , , , , 1 g z z k d d d g ~ =. . .>.E._.*XP.q       . y O.p._ v , , , , , , , ",
", , , , , , , , , , , , , , , , , , , , , , , , , , , , , , , , , , , , , , V R Y l R 5.T..X/.J t l C R ` p.` a , , , , , , , , ",
", , , , , , , , , , , , , , , , K , , , , , , , , , , , , , , , , , , , , , 3 4 4 3 s ~ ,.a.,.o.! X.+.f.f._ a 1 , , , , , , , , ",
", , , , , , , , , , , , , , , , , , #X, , , , , , , , , , #X, , , , , , , , , , , , , g l j l Z Z Z ( ` ` v , , , , , , , , , , ",
", , , , , , , , , , , , , , , , , , , , , , , , , , , , , , , , , , , , , , , , , , , %X1 , , 1 , 1 1 1 1 , , , , , , , , , , , ",
", , K , , , , , , , , , , , , , , , , , , , , , , , , , , , , , , , , , , , , , , , , , , , , , , , , , , , , , , , , , , , , , ",
", , , , , , , , , , , , , , , , , , , , , , , , , , , , , , , , , , , , , , , , , , , , , , , , , , , , , , , , , , , , , , , , ",
", , , , , , , , , , , , , , , , , , , , , , , , , , , , , , , , , , #X, , , , , , , , , , , , , , , , , , , , , , , , , , , , , ",
", , , , , , , , , , , , , , , , , , , , , , , , , , , , , , , , , , , , , , , , , , , , , , , , , , , , , , , , , , , , , , , , ",
", , , , , , , , , , , , , , , , , , , , , , , , , , , , , , , , , , , , , , , , , , , , , , , , , , , , , L , , , , , , , , , , ",
", , , , , , , , , , , , , , , , , , , , , , , , , , , , , , , , , , , , , , , , , , , , , , , , , , , , , , , , , , , #X, , , , ",
", , , , , , , , , , , , , , , , , , , , , , , , , , , , , #X, , , , , , , , , , , , , , , , , , , , , , , , , , , , , , , , , , ",
", , , , , , , , , , , , , , , , , , , , , , , , , , , , , , , , , , , , , , , , , , , , , , , , , , , , , , , , , , , , , , , , ",
", , , , , , , , , , , , , , , , , , , , , , , , , , , , , , , , , , , , , , , , , , , , , , , , , , , , , , , , , , , , , , , , ",
", , , , , , , , , , , %X, , , , , , , , , , , , , , , , , , , , , , , , , , K , , , , , , , , , , , , , , , , , , , , , , , , , ",
", , , , , , , , , , , , , , , , , , , , , , , , , , , , , , , , , , , , , , , , , , , , , , , , , , , , , , , K , , , , , , , , ",
", , , , , , , , , , , , , , , , , , , , , , , , , , , , , , , , , , , , , , , , , , , , , , , , , , , , , , , , , , , , K , , , ",
", , , , , , , , , , , , , , , , , , , , , , , , , , , , , , , , , , , , , , , , , , , , , , , , , , , , , , , , , , , , , , , , ",
", , , , , , , , , , , , , , , , , , , , , , , , , , , , , , , , , , , , , , , , , , , , , , , , , , , , , , , , , , , , , , , , ",
", , , , , , , , , , , , , , , , , , , , , , , , , , , , , , , , , , , , , , , , , , , , , , , , , , , , , , , , , , , , , #X, , ",
", , , , , , , , , , , , , , , , , , , , , , , , , , , , , , , , , , , , , , , , , , , , , , , , , , , , , , , , , , , , , , , , ",
", , , , , , , , , , , , , , , , , , , , , , , , , , , , , , , , , , , , , , , , , , , , , , , , , , , , , , , , , , , , , , , , ",
", , , , , , , , , , , , , , , , , , , , , , , , , , , , , , , , , , , , , , , , , , , , , , , , , , , , , , , , , , , , , , , , ",
", , , , , , , , , , , , , , , , %X, , , , , , , , , , , , , , , , , , , , , , , , , , , , , , , , , , , , , , , , , , , , , , , "
};
