/* XPM */
static char *_c002da295f34d5b8ba980f251548949giKCFis2dzN0B8ee[] = {
/* columns rows colors chars-per-pixel */
"64 64 212 2 ",
"   c #020203",
".  c #000807",
"X  c #140D0D",
"o  c #17100F",
"O  c #18100F",
"+  c #1A0A13",
"@  c #1C1412",
"#  c #1F1E10",
"$  c #1C1D1B",
"%  c #211A15",
"&  c #241619",
"*  c #261B1A",
"=  c #291C1C",
"-  c #3C1313",
";  c #3F1817",
":  c #242114",
">  c #27221B",
",  c #2D211F",
"<  c #181328",
"1  c #291327",
"2  c #221428",
"3  c #2B1428",
"4  c #3B1427",
"5  c #331528",
"6  c #3D1629",
"7  c #3E1929",
"8  c #2F2320",
"9  c #332523",
"0  c #3A2321",
"q  c #372826",
"w  c #3D2D2B",
"e  c #3C3828",
"r  c #3F3230",
"t  c #420008",
"y  c #4E1817",
"u  c #571919",
"i  c #6C1019",
"p  c #590E25",
"a  c #461527",
"s  c #4A1728",
"d  c #41192A",
"f  c #4B1A2A",
"g  c #581526",
"h  c #541A29",
"j  c #5C1A2A",
"k  c #6A0E27",
"l  c #780B26",
"z  c #671828",
"x  c #761727",
"c  c #791D2B",
"v  c #422D2C",
"b  c #582224",
"n  c #56212F",
"m  c #41312E",
"M  c #463532",
"N  c #4A3936",
"B  c #4F3D39",
"V  c #543535",
"C  c #533E3B",
"Z  c #6A232A",
"A  c #7C2626",
"S  c #7B252C",
"D  c #6A2833",
"F  c #6A3135",
"G  c #514637",
"H  c #54413D",
"J  c #59413E",
"K  c #545335",
"L  c #6E432D",
"P  c #262B44",
"I  c #3A4466",
"U  c #5C4441",
"Y  c #5F5140",
"T  c #920A2A",
"R  c #881C27",
"E  c #8D232C",
"W  c #89282A",
"Q  c #932423",
"!  c #942627",
"~  c #9C242D",
"^  c #9C2A2A",
"/  c #8A3229",
"(  c #9D3322",
")  c #963A28",
"_  c #8A2831",
"`  c #9A2D31",
"'  c #883237",
"]  c #973639",
"[  c #A2252B",
"{  c #A32D2D",
"}  c #AA2D2D",
"|  c #B32A2D",
" . c #B92B2F",
".. c #A63726",
"X. c #A43B23",
"o. c #AA3B24",
"O. c #BC3B29",
"+. c #A62F32",
"@. c #A53535",
"#. c #AA3C3D",
"$. c #B7393A",
"%. c #B23E3F",
"&. c #C8372F",
"*. c #D03B2F",
"=. c #C73636",
"-. c #C73838",
";. c #9B4A24",
":. c #AA4626",
">. c #AB4A23",
",. c #B64A25",
"<. c #B35623",
"1. c #B9592A",
"2. c #AE5533",
"3. c #A6543C",
"4. c #BA6226",
"5. c #B97726",
"6. c #BD6135",
"7. c #C8432C",
"8. c #C64C2A",
"9. c #C2542A",
"0. c #C35928",
"q. c #C66929",
"w. c #D46E2A",
"e. c #C27528",
"r. c #D5712C",
"t. c #C66E33",
"y. c #C46C3B",
"u. c #D16931",
"i. c #C87035",
"p. c #D87A36",
"a. c #E3772F",
"s. c #E97D31",
"d. c #AA3E42",
"f. c #B84244",
"g. c #B25D44",
"h. c #817D50",
"j. c #B57852",
"k. c #C44546",
"l. c #DB4E4E",
"z. c #E15353",
"x. c #CB6E40",
"c. c #D47D45",
"v. c #C6922A",
"b. c #CB9329",
"n. c #CF8F36",
"m. c #EA8233",
"M. c #F58E34",
"N. c #F59235",
"B. c #F69537",
"V. c #C9A02C",
"C. c #FAA937",
"Z. c #E8BF33",
"A. c #FAB835",
"S. c #DBC22F",
"D. c #E4C92F",
"F. c #FBD72F",
"G. c #E5C834",
"H. c #FBCC34",
"J. c #EDDB32",
"K. c #FCD035",
"L. c #F7DA3A",
"P. c #FBE936",
"I. c #FBE239",
"U. c #918C59",
"Y. c #969560",
"T. c #ADAB6D",
"R. c #B2AF6F",
"E. c #DA824A",
"W. c #C8895B",
"Q. c #E78B48",
"!. c #F09A4D",
"~. c #EB9755",
"^. c #ECA548",
"/. c #F7AC4E",
"(. c #FAB847",
"). c #F6A757",
"_. c #F5A55D",
"`. c #C0A76C",
"'. c #C6B975",
"]. c #F2AC62",
"[. c #F7BD6E",
"{. c #F9CC42",
"}. c #FCD744",
"|. c #FBD64D",
" X c #FCC356",
".X c #FBE746",
"XX c #FBEB44",
"oX c #FBF344",
"OX c #FCF35C",
"+X c #D5C37A",
"@X c #F6C971",
"#X c #F7CB7A",
"$X c #FEE96D",
"%X c #FDF270",
"&X c #FEF572",
"*X c #5A6988",
"=X c #616886",
"-X c #8B9BB4",
";X c #D7D084",
":X c #E5D485",
">X c #F4D685",
",X c #FDF983",
"<X c #FEF98B",
"1X c #F7EC94",
"2X c #F7F296",
"3X c #FEFA91",
"4X c #F7F399",
"5X c #F8F49C",
"6X c #FFFB9C",
"7X c #FFFDA3",
"8X c #C0CBDC",
"9X c #E9E5E1",
/* pixels */
"< < < < < < < < < < < < < < < < < < < < < < < < < < < < < < < < < < < < < < < < < < < < < < < < < < < < < < < < < < < < < < < < ",
"< < < 8X< < < < < < < < < I < < < < < < < < < < < < < < < < < < < < < < < < < < < < < < P < < < < < < < < < < < < < < < < < < < ",
"< < < < < < < < < < < < < < < < < < < < < < < < < < < < < < < < < < < < < < < < < < < < < < < < < < < < < < < < < < < < < < < < ",
"< < < < < < < < < < < < < < < < < < < < < < < < < < < < < < < < < < < < < < < < < < < < < < < < < < < < < < < < < < < < < < < < ",
"< < < < < < < < < < < < < < < < < < < < < < < < < < < < < < < < < < < < < < < < < < < < < < < < < < < < < < < < < < < < < < < < ",
"< < < < < < < < < < < < < < < < < < *X< < < < < < < < < < < < < < < < < < < I < < < 8X< < < < < < < < < < < < < < < < < < < < < ",
"< < < < < < < < < < < < < < < < < < < < < < < < < < j +.-.-.-.-.-.=.-.l.z.z.d.7 < < < < < < < < < < < < < < < < < < < < < < < < ",
"< < < < < < < < < < < < < < < < < < < < < < < < < D ] ` ^ ^ ^ ^ ^ ^ ^ #.#.d.#.] n < < < < < < < < < < < < < < < < < < < < < < < ",
"< < < < < < < < < < < < < < < < < < < < < < < 3 n d.k./ - ; ; ; ; - - - - y @.k.' d 1 < < < < < < < < < < < < < < < < < < < < < ",
"< < < < < < < < < < < < < < < < < < < < < < < D d.#.' F N N N N N w > $ $ = Z ] f.] d < < < < < < < < < < < < < < < < < < < < < ",
"< < < < < < < < < < < < < < < < < < < < < 5 D ] f.] v N J J C C U C m q q q $ b #.f.' n < < < < < < < < < < < < < < < < < < < < ",
"< < < < < < < < < < < < < < < < < < < < < f d.f.S V C M w w 9 q N C N m q 9 9 0 b ] k.] 1 -X< < < < < < < < < < < < < < < < < < ",
"< < < < < < < < < < < < < < < < < < < < < h %.$.u r J v * * X * N H B m 9 , , * . W k.] 1 < < < < < < < < < < < < < < < < < < < ",
"< < < < < < < < < < < < < < < < < < < < < f +.} u r J v = * * 9 N H B m , % @ @ . A $._ 2 < < < < < < < < < < < < < < < P < < < ",
"< -X< < < < < < < < < < < < < < < < < < < d ` ^ y m U C M M M N B H B q % @ @ O . i +.S 2 < < < < < < < < < < < < < < < < < < < ",
"< < < < < < < < < < < < < < < < < < < < < d _ ! t w U J C C B N M M M 8 X O @ X   i ^ S 2 < < < < < < I < < < < < < < < < < < < ",
"< < < I < < < < < < < < < < < < < < < < < 7 _ ] L G U J C B M 9 * , q = o O X % e L @.S < < < < < < < < < < < < < < < < < < < < ",
"< < < < < < < < < < < < < < < < < < < < < d E j.'.Y.M B C w 8 % X * 9 9 , =   K T.`.3.x < < < < < < < < < < < < < < < < < < < < ",
"< < < < < < < < < < < < < < < < < < < < < d R W.>X+Xh.Y v +       + = = & 9 K Y.:X+Xg.l < < < < < < < < < < < < < < < < < < < < ",
"< < < < < < < < < < < < < < < < < < < < < 7 E x._.#X;XU.* : # # # : > > @ e T.:X[.Q.2.x < < < < < < < < < < < < < < < < < < < < ",
"< < < < < < < < < < < < < < < < < < < < < 5 Z X.u.].#X'.T.T.T.T.T.T.T.T.T.R.+X#X~.9./ j < < < < < < < < < < < < < < < < < < < < ",
"< < < < < < < < < < < < < < < < < < < < < < 3 z ( u.).>X1X2X4X5X5X5X5X2X2X1X@XQ.1.W f < < < < < < < < < < < < < < < < < < < < < ",
"< < < < < < < < < < < < < < < < < < < < < < < g Q ,.p.].@X&X<X7X7X7X6X,X$X@X~.w.o.x 5 < < < < < < < < < -X< < < < < < < < < < < ",
"< < < < < < < < < < < < < < < < < < < < < < < j ! >.q.Q.(.XX&X3X6X6X<XOXL./.p.4.o.R 6 < < < < < < < < < < < < < < < P < < < < < ",
"< < < < < < < < < < < < < < < < < < < < < < < j ^ ,.t.~. XP.oX%X3X<XOXP.}.).E.4.:.W 6 < < < < < < < < < < < < < < < < < < < < < ",
"< < < < < < < < < < < < < < < < < < < < < < < s S ) 1.c.^.H.F.OX3X,XXXF.A.Q.y.>./ Z 5 < < < < < < < < < < < < < < < < < < < < < ",
"< < < < < < < < < < < < < < < < < < < *X< < < < 5 x ( <.r.B.K.OX3X,XXXA.m.q.>.Q j < < < < < -X< < < < < < < < < < < < < < < < < ",
"< < < < < < < < < < < < < < < < < < < < < < < < 2 x ( <.w.M.H.OX3X,XXXA.s.q.>.Q g < < < < < < < < I < < < < < < < < < < < < < < ",
"< < < < < < < < < < < < < < < < < < < < < < < < 1 x ( <.r.N.H.OX3X,XXXA.s.q.>.Q g < < < < < < < < < < < < < < < < < < < < < < < ",
"< < < < < < < < < < < < < < < < < < < < < < < < 3 x ..<.r.B.K.OX3X,XXXA.m.q.>.Q g < < < < < < < < < < < < < < < < < < < < < < < ",
"< < < < < < < < < < < < < < < < < < < < < < < < 3 R O.1.p.!.}.OX3X,XXX(.Q.t.,.| z < < < < < < < < < < < < < < < < < < < < < < < ",
"< < < < < < < < < < < 8X< < < < P < < < < < < < 5 ~ *.0.c._.|.OX3X,XXX X~.i.8.&.c < < < < < < < < < < < < < < < < < < < < < < < ",
"< < < < < < < < < < < < < < < < < < < < < < < < 5 ~ *.0.c._.|.OX3X,XXX X~.t.8.&.c < < < < < < < < < < < < < < < < < < < < < < < ",
"< < < < < < < < < < < < < < < < < < < < < < < < 3 c { :.y.Q.(.|.%X$X{.^.E.1.o.^ j < < < < < < < < < < < < < < < < < < < < < < < ",
"< < < < < < < < < < < < < < < < < < < < < < < < < 3 h W :.q.m.C..XL.B.p.1.X.c d 2 < < < < < < < < < < < < < < < < < < < < < < < ",
"< < < < < < < < < < < < < < < < < < < < < < < < < < 4 R X.4.a.C.I.K.M.w.<.( k < < < < < < < < < < < < < < < < < < < < < < < < < ",
"< < < < < < < < < < < < < < < < < < < < < < < < < < s ! :.4.a.C.I.K.M.r.<.o.c 3 < < < < < < < < < < < < < < < < < < < < < *X< < ",
"< < < < < < < < < < < < < < < < < < < < < < < < < < j | 7.q.a.C.I.K.N.r.0.&.~ 5 < < < < 9X< < < < < < < < < < < < < < < < < < < ",
"< < < < < < < < < < < < < < < < < < < < < < < < < < j  .7.q.Q./.I.}.!.p.0.*.[ 5 < < < < < < < < < < < < < < < < < < < P < < < < ",
"< < < < < < < < < < < < < < < < < < < < < < < < < < h } 7.1.E.)..X|.~.x.1.&.E 5 < < < < < < < < < < < < < < < < < < < < < < < < ",
"< < < < < < < < < < < < < < < < < < < < < < < < < < 5 z W :.6.n.L.G.n.2.( A j 2 < < < < < < P < < < < < < < < < < < < < < < < < ",
"< < < < < < < < < < < < < < < < < < < < < < < < < < < < g Q >.b.J.D.5.X.R 4 < < < < < < < < < < < < < < < < < < < < < < < < < < ",
"< < < < < < < < < < < < < < < < P < < < < < < < < < < < z ^ >.b.J.D.5.o.R a < < < < < < < < < < < < < *X< < < < < < < < < < < < ",
"< < < < < < < < < < < < < < < < < < *X< < < < < < < < < c $.,.b.J.D.e.O.[ h < < < < < < < < < < < < < < < < < < < < < < < < < < ",
"< < < < < < < < < < < < < < < < < < < < < < < < < < < < E &.8.b.J.D.e.*. .j < < < < < -X< < < < < < < < < < < < < < < < < < < < ",
"< < P < < < < < < < < < < < < < < < < < < < < < < < < < R &.8.b.J.D.e.*. .j < < < < < < < < < < < < < < < < < < < < < < < < < < ",
"< < < < < < < < < < < < < < < < < < < < < < < < < < < < z { o.v.J.S.4.} E s < < < < < < < < < < < < < < < < < < < < < < < < < < ",
"< < < < < < < < < < < < < < < < < < < < < < < < < < < < 2 f l 5.J.S.3.k 5 2 < < < < < < < < < < < < < < < < < < < < < < < < < < ",
"< < < < < < < < < < < < < < < < < < < < < < < < < < < < < 1 l 5.J.S.;.p < < < < < < < < < < < < < < < < < < < < < < < < < < < < ",
"< < < < < < < < < < < < < < < < < < < < < < < < < < < < < 5 T e.J.D.>.k < < < < < < < < < < < < < < < < < I < < < < < < < < < < ",
"< < < < < < < < < < < < < < < < < < < < < < < < < < < < < 6 T p.J.Z.9.l < < < < < < < < < < < < < < < < < < < < < < < *X< < < < ",
"< < < < < < < < < < < < < < < < < < < < < < < < < < < < < =Xl 2.V.v.) z < < < < < < < < < < < < < < < < < < < < < < < < < < < < ",
"< < < < < < < < < < < < < < < < < < < < < < < < < < < < < < < b ) / 7 < < < < < < < < < < < < < < < < < < < < < < < < < < < < < ",
"< < < < < < < < < < < < < < < < < < < < < < < < < < < < < < < s R l 1 < < < < < < < < < < < < < < < < < < < < < < < < < < < < < ",
"< < < < < < < < < < < -X< < < < < < < < < < < < < < < < < < < j [ E 5 < < < P < < < < < < < < < < < < < < < < < < < < < < < < < ",
"< < < < < < < < < < < < < < < < < < < < < < < < < < < < < < < z | [ 6 < < < < < < < < < < < < < < < < < < < < P < < < < < < < < ",
"< < < < < < < < < < < < < < < < < < < < < < < < < < < < < < < f E c 3 < < < < < < < < < < < < < < < < < < < < < < < < < P < < < ",
"< < < < < < < < < < < < < < < < < < < < < < < < < < < < < < < < 2 2 < < < < < < < < < < < < < < < < < < < < < < < < < < < < < < ",
"< < < < < < < < < < < < < < < < < < < < < < < < < < < < < < < < < < < < < < < < < < < < < < < < < < < < < < < < < < < < < < < < ",
"< < < < < < < < < < < < < < < < < < < < < < < < < < < < < < < < < < < < < < < < < < < < < < < < < < < < < < < < < < < < < *X< < ",
"< < < < < < < < < < < < < < < < < < < < < < < < < < < < < < < < < < < < < < < < < < < < < < < < < < < < < < < < < < < < < < < < ",
"< < < < < < < < < < < < < < < < < < < < < < < < < < < < < < < < < < < < < < < < < < < < < < < < < < < < < < < < < < < < < < < < ",
"< < < < < < < < < < < < < < < < < < < < < < < < < < < < < < < < < < < < < < < < < < < < < < < < < < < < < < < < < < < < < < < < ",
"< < < < < < < < < < < < < < < < -X< < < < < < < < < < < < < < < < < < < < < < < < < < < < < < < < < < < < < < < < < < < < < < < "
};
