/* XPM */
static char *_4a8162d4e5544bed3f2b1b132a03d9floI9simLqnCXRVr7[] = {
/* columns rows colors chars-per-pixel */
"64 64 213 2 ",
"   c #020203",
".  c #000807",
"X  c #140D0D",
"o  c #17100F",
"O  c #18100F",
"+  c #1A0A13",
"@  c #1C1412",
"#  c #1F1E10",
"$  c #1C1D1B",
"%  c #211A15",
"&  c #241619",
"*  c #261B1A",
"=  c #291C1C",
"-  c #3C1313",
";  c #3F1817",
":  c #242114",
">  c #27221B",
",  c #2D211F",
"<  c #181328",
"1  c #291327",
"2  c #221428",
"3  c #2B1428",
"4  c #3B1427",
"5  c #331528",
"6  c #3D1629",
"7  c #3E1929",
"8  c #2F2320",
"9  c #332523",
"0  c #3A2321",
"q  c #372826",
"w  c #3D2D2B",
"e  c #3C3828",
"r  c #3F3230",
"t  c #420008",
"y  c #4E1817",
"u  c #571919",
"i  c #6C1019",
"p  c #55201F",
"a  c #590E25",
"s  c #481527",
"d  c #41192A",
"f  c #4B1A2A",
"g  c #581526",
"h  c #541A29",
"j  c #5C1A2A",
"k  c #6A0E27",
"l  c #780B26",
"z  c #671828",
"x  c #761727",
"c  c #791D2B",
"v  c #422D2C",
"b  c #582224",
"n  c #56212F",
"m  c #41312E",
"M  c #463532",
"N  c #4A3936",
"B  c #4F3D39",
"V  c #543535",
"C  c #533E3B",
"Z  c #6A232A",
"A  c #7C2626",
"S  c #7B252C",
"D  c #6A2833",
"F  c #6A3135",
"G  c #514637",
"H  c #54413D",
"J  c #59413E",
"K  c #545335",
"L  c #6E432D",
"P  c #262B44",
"I  c #462C42",
"U  c #3A4466",
"Y  c #5C4441",
"T  c #5F5140",
"R  c #920A2A",
"E  c #881C27",
"W  c #8D232C",
"Q  c #89282A",
"!  c #932423",
"~  c #942627",
"^  c #9C242D",
"/  c #9C2A2A",
"(  c #8A3229",
")  c #9D3322",
"_  c #963A28",
"`  c #8A2831",
"'  c #9A2D31",
"]  c #883237",
"[  c #973639",
"{  c #A2252B",
"}  c #A32D2D",
"|  c #AA2D2D",
" . c #B32A2D",
".. c #B92B2F",
"X. c #A63726",
"o. c #A43B23",
"O. c #AA3B24",
"+. c #BA372A",
"@. c #A62F32",
"#. c #A53535",
"$. c #AA3C3D",
"%. c #B73838",
"&. c #B23E3F",
"*. c #C8372F",
"=. c #D03B2F",
"-. c #C73636",
";. c #C73838",
":. c #9B4A24",
">. c #A94726",
",. c #AB4A23",
"<. c #B64A25",
"1. c #B35623",
"2. c #B9592A",
"3. c #AD5437",
"4. c #BA6226",
"5. c #B97726",
"6. c #BD6135",
"7. c #C8432C",
"8. c #C64C2A",
"9. c #C2542A",
"0. c #C35928",
"q. c #C66929",
"w. c #D46E2A",
"e. c #C27127",
"r. c #C37F2A",
"t. c #D5712C",
"y. c #C66E33",
"u. c #C46C3B",
"i. c #D16931",
"p. c #C87035",
"a. c #D87A36",
"s. c #E3772F",
"d. c #E97D31",
"f. c #AA3E42",
"g. c #B84244",
"h. c #B25D44",
"j. c #817D50",
"k. c #B57852",
"l. c #C44546",
"z. c #DB4E4E",
"x. c #E15353",
"c. c #CB6E40",
"v. c #D47D45",
"b. c #C6922A",
"n. c #CB9329",
"m. c #CF8F36",
"M. c #EA8233",
"N. c #F58E34",
"B. c #F59235",
"V. c #F69537",
"C. c #C9A02C",
"Z. c #FAA937",
"A. c #E8BF33",
"S. c #FAB835",
"D. c #DBC22F",
"F. c #E4C92F",
"G. c #FBD72F",
"H. c #E5C834",
"J. c #FBCC34",
"K. c #EDDB32",
"L. c #FCD035",
"P. c #F7DA3A",
"I. c #FBE936",
"U. c #FBE239",
"Y. c #918C59",
"T. c #969560",
"R. c #ADAB6D",
"E. c #B2AF6F",
"W. c #DA824A",
"Q. c #C8895B",
"!. c #E78B48",
"~. c #F09A4D",
"^. c #EB9755",
"/. c #ECA548",
"(. c #F7AC4E",
"). c #FAB847",
"_. c #F6A757",
"`. c #F5A55D",
"'. c #C0A76C",
"]. c #C6B975",
"[. c #F2AC62",
"{. c #F7BD6E",
"}. c #F9CC42",
"|. c #FCD744",
" X c #FBD64D",
".X c #FCC356",
"XX c #FBE746",
"oX c #FBEB44",
"OX c #FBF344",
"+X c #FCF35C",
"@X c #D5C37A",
"#X c #F6C971",
"$X c #F7CB7A",
"%X c #FEE96D",
"&X c #FDF270",
"*X c #FEF572",
"=X c #5A6988",
"-X c #9395AD",
";X c #8B9BB4",
":X c #D7D084",
">X c #E5D485",
",X c #F4D685",
"<X c #FDF983",
"1X c #FEF98B",
"2X c #F7EC94",
"3X c #F7F296",
"4X c #FEFA91",
"5X c #F7F399",
"6X c #F8F49C",
"7X c #FFFB9C",
"8X c #FFFDA3",
"9X c #C0CBDC",
"0X c #E9E5E1",
/* pixels */
"< < < < < < < < < < < < < < < < < < < < < < < < < < < < < < < < < < < < < < < < < < < < < < < < < < < < < < < < < < < < < < < < ",
"< < < 9X< < < < < < < < < U < < < < < < < < < < < < < < < < < < < < < < < < < < < < < < P < < < < < < < < < < < < < < < < < < < ",
"< < < < < < < < < < < < < < < < < < < < < < < < < < < < < < < < < < < < < < < < < < < < < < < < < < < < < < < < < < < < < < < < ",
"< < < < < < < < < < < < < < < < < < < < < < < < < < < < < < < < < < < < < < < < < < < < < < < < < < < < < < < < < < < < < < < < ",
"< < < < < < < < < < < < < < < < < < < < < < < < < < < < < < < < < < < < < < < < < < < < < < < < < < < < < < < < < < < < < < < < ",
"< < < < < < < < < < < < < < < < < < =X< < < < < < < < < < < < < < < < < < < U < < < 9X< < < < < < < < < < < < < < < < < < < < < ",
"< < < < < < < < < < < < < < < < < < < < < < < < < < < < < < < < < < < < < < < < < < < < < < < < < < < < < < < < < < < < < < < < ",
"< < < < < < < < < < < < < < < < < < < < < < < < < < < < < < < < < < < < < < < < < < < < < < < < < < < < < < < < < < < < < < < < ",
"< < < < < < < < < < < < < < < < < < < < < < < < < < < < < < < < < < < < < < < < < < < < < < < < < < < < < < < < < < < < < < < < ",
"< < < < < < < < < < < < < < < < < < < < < < < < < < < < < < < < < < < < < < < < < < < < < < < < < < < < < < < < < < < < < < < < ",
"< < < < < < < < < < < < < < < < < < < < < < < < < < < < < < < < < < < < < < < < < < < < < < < < < < < < < < < < < < < < < < < < ",
"< < < < < < < < < < < < < < < < < < < < < < < < < < < < < < < < < < < < < < < < < < < < < ;X< < < < < < < < < < < < < < < < < < ",
"< < < < < < < < < < < < < < < < < < < < < < < < < < < < < < < < < =X< < < < < < < < < < < < < < < < < < < < < < < < < < < < < < ",
"< < < < < < < < < < < < < < < < < < < < < < < < ;X< < < < < < < < < < < P < < < < < < < < < < < < < < < < < < < < < < < P < < < ",
"< ;X< < < < < < < < < < < < < < < < < < < < < < < < < < < < < < < < < < < < < < < < < < < < < < < < < < < < < < < < < < < < < < ",
"< < < < < < < < < < < < < < < < < < < < < < < < < < < < < < < < P < < < < < < < < < < < < < < < < < < U < < < < < < < < < < < < ",
"< < < U < < < < < < < < < < < < < < < < < < < < < < < < < < < < < < < < < < < < < < < < < < < < < < < < < < < < < < < < < < < < ",
"< < < < < < < < < < < < < < < < < < < < < < < < < < < < < < < < < < < < < < < < < < < < < < < < < < < < < < < < < < < < < < < < ",
"< < < < < < < < < < < < < < < < < < < < < < < < < < < < < < < < < < < < < < < < < < < < < < < < < < < < < < < < < < < < < < < < ",
"< < < < < < < < < < < 2 2 2 2 < < < < < < < < < < < < < < < < < < < < < < < < < < < < < < < < < < < < < < < < < < < < < < < < < ",
"< < < < < < < < < < n [ [ ` S S S x l x j < < < < < < < < < < < < < < < < < < < < < < < < < < < < < < < < < < < < < < < < < < < ",
"< < < < < < < < 2 d ] l.l.%.@./ #.3.h.3.( f 5 6 6 5 < < < < < < < < < < < < < < < < < < < < < < < < < < < < < < < < < < < < < < ",
"< < < < < < < < d [ g.[ Q A x i L '.@X!.9.Q x E Q Z < < < < < < < < < < < < < < < < < < < < < < < < < < ;X< < < < < < < < < < < ",
"< < < < < < < n ] g.$.p .       e R.>X{.^.9.O.O.>.( j g g g z c c j 2 < < < < < < < < < < < < < < < < < < < < < < < P < < < < < ",
"< < < < < < 7 [ l.[ b 0 * @ O X % K T.>X$X!.w.4.4.>.! ! ! !  .*.*./ d < ;X5 5 5 2 < < < < < < < < < < < < < < < < < < < < < < < ",
"< < < < < < f.$.#.Z $ 9 , @ @ @ X   K R.@X#X^.a.W.u.,.,.,.,.<.8.8.O.c k c ^ { W j < < < < < < < < < < < < < < < < < < < < < < < ",
"< < < < < < x.&.y = q q , % @ O O = 9 e E.2X#X(._.!.q.q.q.q.y.p.y.2.o.) O.*.=.*.A 4 s h j j -X2 < < < < < < < < < < < < < < < < ",
"< < < < < < x.&.- $ q q q , @ X o , & @ R.3X%XP.|.S.M.d.d.M.!.^.^.W.2.1.1.0.0.2.) E E { ....W 5 < U < < < < < < < < < < < < < < ",
"< < < < < < z.$.- $ q m m m q , = 9 = > R.3X<X+XI.G.S.S.S.S.)..X.X/.a.w.t.t.a.c.2.o.O.+.7.7.| k a k l z < < < < < < < < < < < < ",
"< < < < < < ;./ - > m B B B B M q 9 = > R.6X7X1X+XoXoXoXoXoXoXoXXX}.V.N.B.B.~.^.m.5.5.e.e.e.4.>.:.,.8._ 7 1 5 6 3 < < < < < < < ",
"< < < < < < -./ - w C C H H H M , * + : R.6X8X7X1X<X<X<X<X<X<X<X<X%XP.L.L.L.|. XH.F.F.F.F.F.D.D.A.D.A.b.( l W { c 2 < < < < < < ",
"< < < < < < ;./ ; N Y B N N B M * X   # R.6X8X7X4X4X4X4X4X4X4X4X4X*XXXU.U.U.U.XXP.K.K.K.K.K.K.K.K.K.K.C._ E {  .Q 2 < < < < < < ",
"< < < < < < ;./ ; N C q * 9 N N q %   # R.6X8X4X&X+X+X+X+X+X+X+X+X XZ.Z.Z.Z.(._.m.n.n.n.n.n.b.5.5.r.a.3.b s j z f < < < < < < < ",
"< < < < < < ;./ ; N C 9 X * M B M 8   # R.5X1X*XOXG.L.L.L.L.|. X X).M.s.s.s.!.W.6.,.,.<.8.8.O.l l R R l < < < < < < < < < < < < ",
"< < < < < < ;./ ; N J w * * M C B w + : R.3X&XoXI.J.V.N.B.V.~.`.`.!.q.4.4.q.q.2.>.! / +.*.*.} s 1 5 6 5 < < < < < < < < < < < < ",
"< < < < < < ;./ - N J w * = M C C C v * R.2X#X)..X/.t.w.t.t.a.v.v.u.>.o.<.7.7.7.Q g z c E E z 2 < < < < < < < < < < < < < < < < ",
"< < < < < < @.' Q F B M v v C J J B T Y.].,X[.!.^.v.1.1.1.1.2.0.0.>.Q E ~  ...| z < < < < < < < < < < < < < < < < < < < < =X< < ",
"< < < < < < j [ g.] v C J J Y Y Y M j.:X$X_.a.q.y.2.) ) ) X.+.=.=.@.h 4 s j j h 5 < < < 0X< < < < < < < < < < < < < < < < < < < ",
"< < < < < < < D f.$.[ V r r m w G T.@X$X[.i.<.,.,._ x x x x E ^ ^ c 3 < < < < < < < < < < < < < < < < < < < < < < < < P < < < < ",
"< < < < < < < < n f.g.S u u y t L ].,X`.i.) ! ~ / S 5 2 2 3 3 5 5 3 < < < < < < < < < < < < < < < < < < < < < < < < < < < < < < ",
"< < < < < < < < 3 D [ g.%.| / ~ _ k.Q.c.o.z g j j f < < < < < < < < < < < < < < < < < < < < P < < < < < < < < < < < < < < < < < ",
"< < < < < < < < < < D f.&.@.' ` ` W E W Z 3 < < < < < < < < < < < < < < < < < < < < < < < < < < < < < < < < < < < < < < < < < < ",
"< < < < < < < < < < 5 f h f d d I d d 7 5 < < < < < < < < < < < < < < < < < < < < < < < < < < < < < < =X< < < < < < < < < < < < ",
"< < < < < < < < < < < < < < < < < < =X< < < < < < < < < < =X< < < < < < < < < < < < < < < < < < < < < < < < < < < < < < < < < < ",
"< < < < < < < < < < < < < < < < < < < < < < < < < < < < < < < < < < < < < < < < < < < ;X< < < < < < < < < < < < < < < < < < < < ",
"< < P < < < < < < < < < < < < < < < < < < < < < < < < < < < < < < < < < < < < < < < < < < < < < < < < < < < < < < < < < < < < < ",
"< < < < < < < < < < < < < < < < < < < < < < < < < < < < < < < < < < < < < < < < < < < < < < < < < < < < < < < < < < < < < < < < ",
"< < < < < < < < < < < < < < < < < < < < < < < < < < < < < < < < < < =X< < < < < < < < < < < < < < < < < < < < < < < < < < < < < ",
"< < < < < < < < < < < < < < < < < < < < < < < < < < < < < < < < < < < < < < < < < < < < < < < < < < < < < < < < < < < < < < < < ",
"< < < < < < < < < < < < < < < < < < < < < < < < < < < < < < < < < < < < < < < < < < < < < < < < < < < < < U < < < < < < < < < < ",
"< < < < < < < < < < < < < < < < < < < < < < < < < < < < < < < < < < < < < < < < < < < < < < < < < < < < < < < < < < < =X< < < < ",
"< < < < < < < < < < < < < < < < < < < < < < < < < < < < < =X< < < < < < < < < < < < < < < < < < < < < < < < < < < < < < < < < < ",
"< < < < < < < < < < < < < < < < < < < < < < < < < < < < < < < < < < < < < < < < < < < < < < < < < < < < < < < < < < < < < < < < ",
"< < < < < < < < < < < < < < < < < < < < < < < < < < < < < < < < < < < < < < < < < < < < < < < < < < < < < < < < < < < < < < < < ",
"< < < < < < < < < < < ;X< < < < < < < < < < < < < < < < < < < < < < < < < < P < < < < < < < < < < < < < < < < < < < < < < < < < ",
"< < < < < < < < < < < < < < < < < < < < < < < < < < < < < < < < < < < < < < < < < < < < < < < < < < < < < < < P < < < < < < < < ",
"< < < < < < < < < < < < < < < < < < < < < < < < < < < < < < < < < < < < < < < < < < < < < < < < < < < < < < < < < < < < P < < < ",
"< < < < < < < < < < < < < < < < < < < < < < < < < < < < < < < < < < < < < < < < < < < < < < < < < < < < < < < < < < < < < < < < ",
"< < < < < < < < < < < < < < < < < < < < < < < < < < < < < < < < < < < < < < < < < < < < < < < < < < < < < < < < < < < < < < < < ",
"< < < < < < < < < < < < < < < < < < < < < < < < < < < < < < < < < < < < < < < < < < < < < < < < < < < < < < < < < < < < < =X< < ",
"< < < < < < < < < < < < < < < < < < < < < < < < < < < < < < < < < < < < < < < < < < < < < < < < < < < < < < < < < < < < < < < < ",
"< < < < < < < < < < < < < < < < < < < < < < < < < < < < < < < < < < < < < < < < < < < < < < < < < < < < < < < < < < < < < < < < ",
"< < < < < < < < < < < < < < < < < < < < < < < < < < < < < < < < < < < < < < < < < < < < < < < < < < < < < < < < < < < < < < < < ",
"< < < < < < < < < < < < < < < < ;X< < < < < < < < < < < < < < < < < < < < < < < < < < < < < < < < < < < < < < < < < < < < < < < "
};
