/* XPM */
static char *_0a32b3f66b94d33808681cfd3e3659bsgpDRXaPcY3LvUTs[] = {
/* columns rows colors chars-per-pixel */
"64 64 12 1 ",
"  c #180E0E",
". c #181328",
"X c #262B44",
"o c #3A4466",
"O c #CC7F00",
"+ c #FF9F00",
"@ c yellow",
"# c #5A6988",
"$ c #8B9BB4",
"% c #C0CBDC",
"& c #E9E5E1",
"* c white",
/* pixels */
"................................................................",
"...%.........o..............................X...................",
"................................................................",
"................................................................",
"................................................................",
"..................#...................o...%.....................",
"................................................................",
"................................................................",
"................................................................",
"................................................................",
"................................................................",
".............................................$..................",
".................................#..............................",
"........................$...........X.......................X...",
".$..............................................................",
"................................X..................o............",
"...o............................................................",
"................................................................",
"................................................................",
"................................................................",
"................................................................",
"................................................................",
"....................................................$...........",
"..........................................................X.....",
"..............................    ..$...........................",
"............................. @@@@ .............................",
"...................#........ @++++O ..........$.................",
"............................ @++++O .............o..............",
"........................... @++@@++O .X.........................",
"........................... @++@O++O ...........................",
"........................... @+@@O++O ...........................",
"...........%....X.......... @++@O++O ...........................",
"........................... @++@O++O ...........................",
"........................... @++@O++* X..........................",
"........................... @++@O+** ...........................",
"........................... @++OO**O ...........................",
"........................... @+++**+* ........................#..",
"............................ @+**+* ........&...................",
"............................. **O* ........................X....",
"..............................    ..............................",
"..............................................X.................",
"................................................................",
"................X..................................#............",
"..................#..........#..................................",
"...........................................$....................",
"..X.............................................................",
"................................................................",
"..................................#.............................",
"................................................................",
".....................................................o..........",
"...........................................................#....",
".............................#..................................",
"................................................................",
"................................................................",
"...........$..........................X.........................",
".......................................................X........",
"............................................................X...",
"................................................................",
"................................................................",
".............................................................#..",
"................................................................",
"................................................................",
"................................................................",
"................$..............................................."
};
